STARTFONT 2.1
COMMENT
COMMENT Converted from OpenType font "Montserrat-Medium.otf" by "otf2bdf 3.0".
COMMENT
FONT -FreeType-Montserrat Medium-Medium-R-Normal--21-200-75-75-P-116-ISO10646-1
SIZE 20 75 75
FONTBOUNDINGBOX 52 28 -18 -6
STARTPROPERTIES 19
FOUNDRY "FreeType"
FAMILY_NAME "Montserrat Medium"
WEIGHT_NAME "Medium"
SLANT "R"
SETWIDTH_NAME "Normal"
ADD_STYLE_NAME ""
PIXEL_SIZE 21
POINT_SIZE 200
RESOLUTION_X 75
RESOLUTION_Y 75
SPACING "P"
AVERAGE_WIDTH 116
CHARSET_REGISTRY "ISO10646"
CHARSET_ENCODING "1"
FONT_ASCENT 20
FONT_DESCENT 5
COPYRIGHT "Copyright 2011 The Montserrat Project Authors (https://github.com/JulietaUla/Montserrat)"
_OTF_FONTFILE "Montserrat-Medium.otf"
_OTF_PSNAME "Montserrat-Medium"
ENDPROPERTIES
CHARS 969
STARTCHAR 0000
ENCODING 0
SWIDTH 0 0
DWIDTH 0 0
BBX 0 0 0 0
BITMAP
ENDCHAR
STARTCHAR 000D
ENCODING 13
SWIDTH 288 0
DWIDTH 6 0
BBX 0 0 0 0
BITMAP
ENDCHAR
STARTCHAR 0020
ENCODING 32
SWIDTH 288 0
DWIDTH 6 0
BBX 0 0 0 0
BITMAP
ENDCHAR
STARTCHAR 0021
ENCODING 33
SWIDTH 288 0
DWIDTH 6 0
BBX 3 15 1 0
BITMAP
60
60
60
60
60
60
60
60
60
60
00
00
40
E0
60
ENDCHAR
STARTCHAR 0022
ENCODING 34
SWIDTH 384 0
DWIDTH 8 0
BBX 6 6 1 9
BITMAP
CC
CC
CC
CC
CC
CC
ENDCHAR
STARTCHAR 0023
ENCODING 35
SWIDTH 720 0
DWIDTH 15 0
BBX 13 15 1 0
BITMAP
0860
0840
1840
1840
FFF8
FFF8
10C0
10C0
10C0
FFF0
FFF0
3080
3080
3080
3180
ENDCHAR
STARTCHAR 0024
ENCODING 36
SWIDTH 624 0
DWIDTH 13 0
BBX 11 19 1 -2
BITMAP
0400
0400
1F80
7FC0
6440
C400
C400
E400
7C00
3F80
07C0
04E0
0460
0460
C4E0
FFC0
3F00
0400
0400
ENDCHAR
STARTCHAR 0025
ENCODING 37
SWIDTH 864 0
DWIDTH 18 0
BBX 16 15 1 0
BITMAP
7808
CC18
8430
8620
8660
84C0
CC80
799C
0326
0263
0643
0C43
0863
1826
301C
ENDCHAR
STARTCHAR 0026
ENCODING 38
SWIDTH 672 0
DWIDTH 14 0
BBX 13 15 1 0
BITMAP
1F00
3B80
3180
3080
3180
3F00
1E00
3E00
6710
C3B0
C1F0
C0E0
E0F0
7FB8
3F10
ENDCHAR
STARTCHAR 0027
ENCODING 39
SWIDTH 192 0
DWIDTH 4 0
BBX 2 6 1 9
BITMAP
C0
C0
C0
C0
C0
C0
ENDCHAR
STARTCHAR 0028
ENCODING 40
SWIDTH 336 0
DWIDTH 7 0
BBX 4 20 2 -4
BITMAP
30
30
60
60
60
C0
C0
C0
C0
C0
C0
C0
C0
C0
C0
60
60
60
30
30
ENDCHAR
STARTCHAR 0029
ENCODING 41
SWIDTH 336 0
DWIDTH 7 0
BBX 4 20 1 -4
BITMAP
C0
C0
60
60
60
30
30
30
30
30
30
30
30
30
30
60
60
60
C0
C0
ENDCHAR
STARTCHAR 002A
ENCODING 42
SWIDTH 384 0
DWIDTH 8 0
BBX 8 8 0 8
BITMAP
08
08
EB
3C
3C
EF
08
08
ENDCHAR
STARTCHAR 002B
ENCODING 43
SWIDTH 576 0
DWIDTH 12 0
BBX 10 9 1 3
BITMAP
0C00
0C00
0C00
0C00
FFC0
FFC0
0C00
0C00
0C00
ENDCHAR
STARTCHAR 002C
ENCODING 44
SWIDTH 240 0
DWIDTH 5 0
BBX 3 6 1 -3
BITMAP
C0
E0
E0
40
C0
C0
ENDCHAR
STARTCHAR 002D
ENCODING 45
SWIDTH 384 0
DWIDTH 8 0
BBX 6 2 1 5
BITMAP
FC
FC
ENDCHAR
STARTCHAR 002E
ENCODING 46
SWIDTH 240 0
DWIDTH 5 0
BBX 3 3 1 0
BITMAP
C0
E0
C0
ENDCHAR
STARTCHAR 002F
ENCODING 47
SWIDTH 336 0
DWIDTH 7 0
BBX 8 20 0 -2
BITMAP
03
03
02
06
06
0C
0C
0C
18
18
18
30
30
20
60
60
40
C0
C0
80
ENDCHAR
STARTCHAR 0030
ENCODING 48
SWIDTH 672 0
DWIDTH 14 0
BBX 12 15 1 0
BITMAP
0F00
3FC0
70E0
6060
E060
C030
C030
C030
C030
C030
E060
6060
70E0
3FC0
0F00
ENDCHAR
STARTCHAR 0031
ENCODING 49
SWIDTH 384 0
DWIDTH 8 0
BBX 6 15 0 0
BITMAP
FC
FC
1C
1C
1C
1C
1C
1C
1C
1C
1C
1C
1C
1C
1C
ENDCHAR
STARTCHAR 0032
ENCODING 50
SWIDTH 576 0
DWIDTH 12 0
BBX 10 15 1 0
BITMAP
3E00
FF80
C180
01C0
00C0
0180
0180
0300
0700
0E00
1C00
3000
6000
FFC0
FFC0
ENDCHAR
STARTCHAR 0033
ENCODING 51
SWIDTH 576 0
DWIDTH 12 0
BBX 11 15 0 0
BITMAP
7FC0
7FC0
01C0
0380
0300
0600
0E00
0FC0
00C0
0060
0060
0060
40E0
FFC0
3F00
ENDCHAR
STARTCHAR 0034
ENCODING 52
SWIDTH 672 0
DWIDTH 14 0
BBX 13 15 1 0
BITMAP
0180
0300
0700
0600
0C00
1800
30C0
70C0
60C0
FFF8
FFF8
00C0
00C0
00C0
00C0
ENDCHAR
STARTCHAR 0035
ENCODING 53
SWIDTH 576 0
DWIDTH 12 0
BBX 10 15 1 0
BITMAP
7F80
7F80
6000
6000
6000
6000
7E00
FF80
01C0
00C0
00C0
00C0
C1C0
FF80
3F00
ENDCHAR
STARTCHAR 0036
ENCODING 54
SWIDTH 624 0
DWIDTH 13 0
BBX 11 15 1 0
BITMAP
0FC0
3FC0
7000
6000
E000
C000
CF80
FFC0
F0E0
E060
E060
6060
60E0
3FC0
1F80
ENDCHAR
STARTCHAR 0037
ENCODING 55
SWIDTH 576 0
DWIDTH 12 0
BBX 11 15 1 0
BITMAP
FFE0
FFE0
C0C0
C0C0
0180
0180
0300
0300
0700
0600
0E00
0C00
0C00
1800
1800
ENDCHAR
STARTCHAR 0038
ENCODING 56
SWIDTH 624 0
DWIDTH 13 0
BBX 11 15 1 0
BITMAP
1F00
7FC0
60E0
E060
E060
60E0
7FC0
3FC0
60E0
C060
C060
C060
E060
7FC0
1F80
ENDCHAR
STARTCHAR 0039
ENCODING 57
SWIDTH 624 0
DWIDTH 13 0
BBX 11 15 1 0
BITMAP
3E00
7F80
C1C0
C0C0
C0E0
C0E0
C1E0
7F60
3E60
0060
00C0
00C0
0180
7F00
7E00
ENDCHAR
STARTCHAR 003A
ENCODING 58
SWIDTH 240 0
DWIDTH 5 0
BBX 3 11 1 0
BITMAP
C0
E0
C0
00
00
00
00
00
C0
E0
C0
ENDCHAR
STARTCHAR 003B
ENCODING 59
SWIDTH 240 0
DWIDTH 5 0
BBX 3 14 1 -3
BITMAP
C0
E0
C0
00
00
00
00
00
40
E0
E0
40
40
C0
ENDCHAR
STARTCHAR 003C
ENCODING 60
SWIDTH 576 0
DWIDTH 12 0
BBX 10 9 1 3
BITMAP
00C0
03C0
1F00
7800
E000
F800
1E00
07C0
00C0
ENDCHAR
STARTCHAR 003D
ENCODING 61
SWIDTH 576 0
DWIDTH 12 0
BBX 10 7 1 4
BITMAP
FFC0
FFC0
0000
0000
0000
FFC0
FFC0
ENDCHAR
STARTCHAR 003E
ENCODING 62
SWIDTH 576 0
DWIDTH 12 0
BBX 10 9 1 3
BITMAP
C000
F000
3E00
0780
00C0
07C0
1E00
F800
C000
ENDCHAR
STARTCHAR 003F
ENCODING 63
SWIDTH 576 0
DWIDTH 12 0
BBX 11 15 0 0
BITMAP
1F00
7FC0
E0C0
00E0
00C0
00C0
0180
0300
0600
0600
0000
0000
0400
0E00
0600
ENDCHAR
STARTCHAR 0040
ENCODING 64
SWIDTH 1056 0
DWIDTH 22 0
BBX 20 19 1 -4
BITMAP
03F800
0F1E00
180380
3000C0
60C640
63FE60
C70E20
C60620
CC0620
CC0630
CC0620
C40620
C60E20
43FFE0
61F3C0
300000
180000
0F1C00
03F800
ENDCHAR
STARTCHAR 0041
ENCODING 65
SWIDTH 720 0
DWIDTH 15 0
BBX 15 15 0 0
BITMAP
0380
0380
06C0
06C0
0660
0C60
0C70
1830
1830
3FF8
3FF8
300C
600C
600E
C006
ENDCHAR
STARTCHAR 0042
ENCODING 66
SWIDTH 768 0
DWIDTH 16 0
BBX 13 15 2 0
BITMAP
FFC0
FFE0
C070
C030
C030
C070
FFE0
FFE0
C070
C038
C018
C018
C030
FFF0
FFC0
ENDCHAR
STARTCHAR 0043
ENCODING 67
SWIDTH 720 0
DWIDTH 15 0
BBX 13 15 1 0
BITMAP
07E0
1FF0
3838
7000
6000
C000
C000
C000
C000
C000
6000
7000
3838
1FF0
07E0
ENDCHAR
STARTCHAR 0044
ENCODING 68
SWIDTH 816 0
DWIDTH 17 0
BBX 14 15 2 0
BITMAP
FF80
FFE0
C070
C018
C01C
C00C
C00C
C00C
C00C
C00C
C01C
C018
C070
FFE0
FF80
ENDCHAR
STARTCHAR 0045
ENCODING 69
SWIDTH 672 0
DWIDTH 14 0
BBX 11 15 2 0
BITMAP
FFC0
FFC0
C000
C000
C000
C000
FFC0
FFC0
C000
C000
C000
C000
C000
FFE0
FFE0
ENDCHAR
STARTCHAR 0046
ENCODING 70
SWIDTH 624 0
DWIDTH 13 0
BBX 10 15 2 0
BITMAP
FFC0
FFC0
C000
C000
C000
C000
C000
FFC0
FFC0
C000
C000
C000
C000
C000
C000
ENDCHAR
STARTCHAR 0047
ENCODING 71
SWIDTH 768 0
DWIDTH 16 0
BBX 13 15 1 0
BITMAP
07E0
1FF8
3818
7000
6000
C000
C000
C018
C018
C018
6018
7018
3818
1FF8
07E0
ENDCHAR
STARTCHAR 0048
ENCODING 72
SWIDTH 816 0
DWIDTH 17 0
BBX 13 15 2 0
BITMAP
C018
C018
C018
C018
C018
C018
FFF8
FFF8
C018
C018
C018
C018
C018
C018
C018
ENDCHAR
STARTCHAR 0049
ENCODING 73
SWIDTH 288 0
DWIDTH 6 0
BBX 2 15 2 0
BITMAP
C0
C0
C0
C0
C0
C0
C0
C0
C0
C0
C0
C0
C0
C0
C0
ENDCHAR
STARTCHAR 004A
ENCODING 74
SWIDTH 528 0
DWIDTH 11 0
BBX 9 15 0 0
BITMAP
7F80
7F80
0180
0180
0180
0180
0180
0180
0180
0180
0180
0300
C300
FF00
3C00
ENDCHAR
STARTCHAR 004B
ENCODING 75
SWIDTH 720 0
DWIDTH 15 0
BBX 13 15 2 0
BITMAP
C030
C060
C0C0
C180
C300
C600
CE00
DE00
FF00
F380
E180
C0C0
C0E0
C070
C038
ENDCHAR
STARTCHAR 004C
ENCODING 76
SWIDTH 576 0
DWIDTH 12 0
BBX 10 15 2 0
BITMAP
C000
C000
C000
C000
C000
C000
C000
C000
C000
C000
C000
C000
C000
FFC0
FFC0
ENDCHAR
STARTCHAR 004D
ENCODING 77
SWIDTH 960 0
DWIDTH 20 0
BBX 16 15 2 0
BITMAP
C003
E007
E007
F00F
F01B
D81B
CC33
CC33
C663
C663
C3C3
C383
C183
C003
C003
ENDCHAR
STARTCHAR 004E
ENCODING 78
SWIDTH 816 0
DWIDTH 17 0
BBX 13 15 2 0
BITMAP
C018
E018
F018
F818
D818
CC18
CE18
C718
C398
C198
C1D8
C0F8
C078
C038
C018
ENDCHAR
STARTCHAR 004F
ENCODING 79
SWIDTH 864 0
DWIDTH 18 0
BBX 15 15 1 0
BITMAP
07E0
1FF8
383C
700C
6006
C006
C006
C006
C006
C006
6006
700C
381C
1FF8
07E0
ENDCHAR
STARTCHAR 0050
ENCODING 80
SWIDTH 720 0
DWIDTH 15 0
BBX 12 15 2 0
BITMAP
FF80
FFC0
C060
C070
C030
C030
C030
C070
C0E0
FFC0
FF00
C000
C000
C000
C000
ENDCHAR
STARTCHAR 0051
ENCODING 81
SWIDTH 864 0
DWIDTH 18 0
BBX 16 18 1 -3
BITMAP
07E0
1FF8
383C
700C
6006
C006
C006
C006
C006
C006
6006
700C
381C
1FF8
07E0
00C1
007F
003E
ENDCHAR
STARTCHAR 0052
ENCODING 82
SWIDTH 720 0
DWIDTH 15 0
BBX 12 15 2 0
BITMAP
FF80
FFC0
C060
C070
C030
C030
C030
C070
C0E0
FFC0
FF80
C1C0
C0C0
C060
C030
ENDCHAR
STARTCHAR 0053
ENCODING 83
SWIDTH 624 0
DWIDTH 13 0
BBX 11 15 1 0
BITMAP
1F80
7FC0
6040
C000
C000
E000
7000
3F00
0FC0
00E0
0060
0060
C0E0
FFC0
3F00
ENDCHAR
STARTCHAR 0054
ENCODING 84
SWIDTH 576 0
DWIDTH 12 0
BBX 12 15 0 0
BITMAP
FFF0
FFF0
0600
0600
0600
0600
0600
0600
0600
0600
0600
0600
0600
0600
0600
ENDCHAR
STARTCHAR 0055
ENCODING 85
SWIDTH 768 0
DWIDTH 16 0
BBX 12 15 2 0
BITMAP
C030
C030
C030
C030
C030
C030
C030
C030
C030
C030
C030
6030
7060
3FE0
1F80
ENDCHAR
STARTCHAR 0056
ENCODING 86
SWIDTH 720 0
DWIDTH 15 0
BBX 15 15 0 0
BITMAP
C006
600C
600C
7018
3018
3838
1830
1830
0C60
0C60
0EC0
06C0
07C0
0380
0380
ENDCHAR
STARTCHAR 0057
ENCODING 87
SWIDTH 1104 0
DWIDTH 23 0
BBX 22 15 1 0
BITMAP
C0300C
C07018
E07818
607818
60D830
70CC30
30CC30
318C60
398660
198660
1B06C0
1B03C0
0F03C0
0E0380
0E0180
ENDCHAR
STARTCHAR 0058
ENCODING 88
SWIDTH 672 0
DWIDTH 14 0
BBX 12 15 1 0
BITMAP
C030
6060
70E0
30C0
1980
1F00
0F00
0600
0F00
1B80
39C0
30C0
6060
E070
C030
ENDCHAR
STARTCHAR 0059
ENCODING 89
SWIDTH 624 0
DWIDTH 13 0
BBX 13 15 0 0
BITMAP
C018
6018
7030
3060
1860
18C0
0CC0
0F80
0780
0300
0300
0300
0300
0300
0300
ENDCHAR
STARTCHAR 005A
ENCODING 90
SWIDTH 672 0
DWIDTH 14 0
BBX 12 15 1 0
BITMAP
FFF0
FFF0
0060
00C0
0180
0380
0700
0600
0C00
1C00
3800
3000
6000
FFF0
FFF0
ENDCHAR
STARTCHAR 005B
ENCODING 91
SWIDTH 336 0
DWIDTH 7 0
BBX 5 20 2 -4
BITMAP
F8
F8
C0
C0
C0
C0
C0
C0
C0
C0
C0
C0
C0
C0
C0
C0
C0
C0
F8
F8
ENDCHAR
STARTCHAR 005C
ENCODING 92
SWIDTH 336 0
DWIDTH 7 0
BBX 9 20 -1 -2
BITMAP
C000
4000
6000
6000
2000
3000
3000
1800
1800
1800
0C00
0C00
0C00
0600
0600
0200
0300
0300
0100
0180
ENDCHAR
STARTCHAR 005D
ENCODING 93
SWIDTH 336 0
DWIDTH 7 0
BBX 5 20 0 -4
BITMAP
F8
F8
18
18
18
18
18
18
18
18
18
18
18
18
18
18
18
18
F8
F8
ENDCHAR
STARTCHAR 005E
ENCODING 94
SWIDTH 576 0
DWIDTH 12 0
BBX 8 9 2 3
BITMAP
18
18
3C
24
66
62
43
C3
81
ENDCHAR
STARTCHAR 005F
ENCODING 95
SWIDTH 480 0
DWIDTH 10 0
BBX 10 1 0 -1
BITMAP
FFC0
ENDCHAR
STARTCHAR 0060
ENCODING 96
SWIDTH 624 0
DWIDTH 13 0
BBX 5 3 3 12
BITMAP
C0
70
18
ENDCHAR
STARTCHAR 0061
ENCODING 97
SWIDTH 576 0
DWIDTH 12 0
BBX 10 11 1 0
BITMAP
3F00
FF80
4180
00C0
00C0
7FC0
E0C0
C0C0
C1C0
7FC0
3EC0
ENDCHAR
STARTCHAR 0062
ENCODING 98
SWIDTH 672 0
DWIDTH 14 0
BBX 11 16 2 0
BITMAP
C000
C000
C000
C000
C000
DF00
FFC0
E0E0
C060
C060
C060
C060
C060
E0E0
FFC0
DF00
ENDCHAR
STARTCHAR 0063
ENCODING 99
SWIDTH 576 0
DWIDTH 12 0
BBX 10 11 1 0
BITMAP
1F00
3FC0
60C0
C000
C000
C000
C000
C000
60C0
3FC0
1F00
ENDCHAR
STARTCHAR 0064
ENCODING 100
SWIDTH 672 0
DWIDTH 14 0
BBX 11 16 1 0
BITMAP
0060
0060
0060
0060
0060
1F60
7FE0
60E0
C060
C060
C060
C060
C060
60E0
7FE0
1F60
ENDCHAR
STARTCHAR 0065
ENCODING 101
SWIDTH 624 0
DWIDTH 13 0
BBX 11 11 1 0
BITMAP
1F00
7F80
60C0
C060
C060
FFE0
C000
C000
60C0
3FC0
1F00
ENDCHAR
STARTCHAR 0066
ENCODING 102
SWIDTH 336 0
DWIDTH 7 0
BBX 8 16 0 0
BITMAP
0F
1F
30
30
30
FE
FE
30
30
30
30
30
30
30
30
30
ENDCHAR
STARTCHAR 0067
ENCODING 103
SWIDTH 672 0
DWIDTH 14 0
BBX 11 15 1 -4
BITMAP
1F20
7FA0
60E0
C060
C060
C060
C060
E060
70E0
3FE0
0E60
0060
40E0
7FC0
1F80
ENDCHAR
STARTCHAR 0068
ENCODING 104
SWIDTH 672 0
DWIDTH 14 0
BBX 10 16 2 0
BITMAP
C000
C000
C000
C000
C000
DF00
FF80
E1C0
C0C0
C0C0
C0C0
C0C0
C0C0
C0C0
C0C0
C0C0
ENDCHAR
STARTCHAR 0069
ENCODING 105
SWIDTH 288 0
DWIDTH 6 0
BBX 2 16 2 0
BITMAP
80
C0
C0
00
00
C0
C0
C0
C0
C0
C0
C0
C0
C0
C0
C0
ENDCHAR
STARTCHAR 006A
ENCODING 106
SWIDTH 288 0
DWIDTH 6 0
BBX 6 20 -2 -4
BITMAP
0C
0C
0C
00
00
0C
0C
0C
0C
0C
0C
0C
0C
0C
0C
0C
0C
0C
F8
F0
ENDCHAR
STARTCHAR 006B
ENCODING 107
SWIDTH 624 0
DWIDTH 13 0
BBX 10 16 2 0
BITMAP
C000
C000
C000
C000
C000
C1C0
C380
C700
CE00
DC00
FC00
F600
C700
C380
C1C0
C0C0
ENDCHAR
STARTCHAR 006C
ENCODING 108
SWIDTH 288 0
DWIDTH 6 0
BBX 2 16 2 0
BITMAP
C0
C0
C0
C0
C0
C0
C0
C0
C0
C0
C0
C0
C0
C0
C0
C0
ENDCHAR
STARTCHAR 006D
ENCODING 109
SWIDTH 1056 0
DWIDTH 22 0
BBX 18 11 2 0
BITMAP
DF1F00
FFBF80
E1E1C0
C0C0C0
C0C0C0
C0C0C0
C0C0C0
C0C0C0
C0C0C0
C0C0C0
C0C0C0
ENDCHAR
STARTCHAR 006E
ENCODING 110
SWIDTH 672 0
DWIDTH 14 0
BBX 10 11 2 0
BITMAP
DF00
FF80
E1C0
C0C0
C0C0
C0C0
C0C0
C0C0
C0C0
C0C0
C0C0
ENDCHAR
STARTCHAR 006F
ENCODING 111
SWIDTH 624 0
DWIDTH 13 0
BBX 11 11 1 0
BITMAP
1F00
3FC0
60C0
C060
C060
C060
C060
C060
60C0
3FC0
1F00
ENDCHAR
STARTCHAR 0070
ENCODING 112
SWIDTH 672 0
DWIDTH 14 0
BBX 11 15 2 -4
BITMAP
DF00
FFC0
E0E0
C060
C060
C060
C060
C060
E0E0
FFC0
DF00
C000
C000
C000
C000
ENDCHAR
STARTCHAR 0071
ENCODING 113
SWIDTH 672 0
DWIDTH 14 0
BBX 11 15 1 -4
BITMAP
1F60
7FE0
60E0
C060
C060
C060
C060
C060
60E0
7FE0
1F60
0060
0060
0060
0060
ENDCHAR
STARTCHAR 0072
ENCODING 114
SWIDTH 432 0
DWIDTH 9 0
BBX 6 11 2 0
BITMAP
DC
FC
E0
C0
C0
C0
C0
C0
C0
C0
C0
ENDCHAR
STARTCHAR 0073
ENCODING 115
SWIDTH 480 0
DWIDTH 10 0
BBX 9 11 1 0
BITMAP
3E00
FF00
C100
C000
E000
7E00
0F00
0180
8180
FF00
7E00
ENDCHAR
STARTCHAR 0074
ENCODING 116
SWIDTH 432 0
DWIDTH 9 0
BBX 8 13 0 0
BITMAP
30
30
FE
FE
30
30
30
30
30
30
30
1F
0F
ENDCHAR
STARTCHAR 0075
ENCODING 117
SWIDTH 672 0
DWIDTH 14 0
BBX 10 11 2 0
BITMAP
C0C0
C0C0
C0C0
C0C0
C0C0
C0C0
C0C0
C0C0
E1C0
7FC0
3EC0
ENDCHAR
STARTCHAR 0076
ENCODING 118
SWIDTH 576 0
DWIDTH 12 0
BBX 11 11 0 0
BITMAP
C060
6060
6060
70C0
30C0
3180
1980
1B00
0F00
0E00
0600
ENDCHAR
STARTCHAR 0077
ENCODING 119
SWIDTH 912 0
DWIDTH 19 0
BBX 18 11 0 0
BITMAP
C0C040
60E0C0
60E0C0
61B180
31B180
333180
131B00
1A1B00
1E0A00
0E0E00
0C0E00
ENDCHAR
STARTCHAR 0078
ENCODING 120
SWIDTH 576 0
DWIDTH 12 0
BBX 10 11 1 0
BITMAP
C1C0
6180
7300
3600
1C00
0C00
1E00
3600
6300
E180
C0C0
ENDCHAR
STARTCHAR 0079
ENCODING 121
SWIDTH 576 0
DWIDTH 12 0
BBX 11 15 0 -4
BITMAP
C060
6060
6060
30C0
30C0
3180
1980
1B00
0F00
0E00
0600
0600
0C00
F800
F000
ENDCHAR
STARTCHAR 007A
ENCODING 122
SWIDTH 528 0
DWIDTH 11 0
BBX 9 11 1 0
BITMAP
FF80
FF80
0300
0600
0C00
1C00
3800
3000
6000
FF80
FF80
ENDCHAR
STARTCHAR 007B
ENCODING 123
SWIDTH 336 0
DWIDTH 7 0
BBX 6 20 1 -4
BITMAP
1C
3C
30
30
30
30
30
30
30
E0
F0
30
30
30
30
30
30
30
3C
1C
ENDCHAR
STARTCHAR 007C
ENCODING 124
SWIDTH 288 0
DWIDTH 6 0
BBX 2 20 2 -4
BITMAP
C0
C0
C0
C0
C0
C0
C0
C0
C0
C0
C0
C0
C0
C0
C0
C0
C0
C0
C0
C0
ENDCHAR
STARTCHAR 007D
ENCODING 125
SWIDTH 336 0
DWIDTH 7 0
BBX 6 20 0 -4
BITMAP
E0
F0
30
30
30
30
30
30
18
1C
1C
30
30
30
30
30
30
30
F0
E0
ENDCHAR
STARTCHAR 007E
ENCODING 126
SWIDTH 576 0
DWIDTH 12 0
BBX 10 4 1 6
BITMAP
7840
CCC0
C780
0100
ENDCHAR
STARTCHAR 00A0
ENCODING 160
SWIDTH 288 0
DWIDTH 6 0
BBX 0 0 0 0
BITMAP
ENDCHAR
STARTCHAR 00A1
ENCODING 161
SWIDTH 288 0
DWIDTH 6 0
BBX 3 14 1 -3
BITMAP
60
E0
40
00
00
60
60
60
60
60
60
60
60
60
ENDCHAR
STARTCHAR 00A2
ENCODING 162
SWIDTH 576 0
DWIDTH 12 0
BBX 10 17 1 -3
BITMAP
0400
0400
0400
1F00
7FC0
64C0
C400
C400
C400
C400
C400
64C0
7FC0
1F00
0400
0400
0400
ENDCHAR
STARTCHAR 00A3
ENCODING 163
SWIDTH 624 0
DWIDTH 13 0
BBX 12 15 1 0
BITMAP
07E0
1FF0
1810
3000
3000
3000
3000
FF80
3000
3000
3000
3000
3000
FFF0
FFF0
ENDCHAR
STARTCHAR 00A4
ENCODING 164
SWIDTH 720 0
DWIDTH 15 0
BBX 12 13 1 0
BITMAP
8010
CFB0
7FE0
3060
6030
4030
4030
4030
6030
3060
7FE0
CFB0
8010
ENDCHAR
STARTCHAR 00A5
ENCODING 165
SWIDTH 720 0
DWIDTH 15 0
BBX 14 15 0 0
BITMAP
C00C
600C
3018
3038
1830
0C60
0CE0
06C0
0780
3FF8
0300
3FF8
0300
0300
0300
ENDCHAR
STARTCHAR 00A6
ENCODING 166
SWIDTH 288 0
DWIDTH 6 0
BBX 2 20 2 -4
BITMAP
C0
C0
C0
C0
C0
C0
C0
00
00
00
00
00
00
C0
C0
C0
C0
C0
C0
C0
ENDCHAR
STARTCHAR 00A7
ENCODING 167
SWIDTH 480 0
DWIDTH 10 0
BBX 9 17 1 -2
BITMAP
3F00
7F80
C000
C000
E000
7C00
FF00
C300
8180
C180
7B00
1E00
0300
0300
8300
FF00
7C00
ENDCHAR
STARTCHAR 00A8
ENCODING 168
SWIDTH 624 0
DWIDTH 13 0
BBX 6 2 3 13
BITMAP
CC
CC
ENDCHAR
STARTCHAR 00A9
ENCODING 169
SWIDTH 816 0
DWIDTH 17 0
BBX 15 15 1 0
BITMAP
07C0
1830
2008
47C4
4EE4
8804
9802
9802
9802
8804
4EE4
47CC
2008
1830
07C0
ENDCHAR
STARTCHAR 00AA
ENCODING 170
SWIDTH 384 0
DWIDTH 8 0
BBX 6 7 1 9
BITMAP
78
8C
04
FC
84
8C
74
ENDCHAR
STARTCHAR 00AB
ENCODING 171
SWIDTH 528 0
DWIDTH 11 0
BBX 8 8 1 2
BITMAP
11
33
66
CC
CC
66
33
11
ENDCHAR
STARTCHAR 00AC
ENCODING 172
SWIDTH 576 0
DWIDTH 12 0
BBX 10 5 1 3
BITMAP
FFC0
FFC0
00C0
00C0
00C0
ENDCHAR
STARTCHAR 00AD
ENCODING 173
SWIDTH 384 0
DWIDTH 8 0
BBX 6 2 1 5
BITMAP
FC
FC
ENDCHAR
STARTCHAR 00AE
ENCODING 174
SWIDTH 816 0
DWIDTH 17 0
BBX 15 15 1 0
BITMAP
07C0
1830
2008
4FC4
4C64
8C24
8C22
8C62
8FC2
8CC4
4C44
4C2C
2008
1830
07C0
ENDCHAR
STARTCHAR 00AF
ENCODING 175
SWIDTH 624 0
DWIDTH 13 0
BBX 7 1 3 14
BITMAP
FE
ENDCHAR
STARTCHAR 00B0
ENCODING 176
SWIDTH 432 0
DWIDTH 9 0
BBX 7 7 1 8
BITMAP
38
44
86
82
86
44
38
ENDCHAR
STARTCHAR 00B1
ENCODING 177
SWIDTH 576 0
DWIDTH 12 0
BBX 10 13 1 0
BITMAP
0C00
0C00
0C00
0C00
FFC0
FFC0
0C00
0C00
0C00
0000
0000
FFC0
FFC0
ENDCHAR
STARTCHAR 00B2
ENCODING 178
SWIDTH 432 0
DWIDTH 9 0
BBX 7 9 1 7
BITMAP
78
CC
06
04
0C
18
30
40
FE
ENDCHAR
STARTCHAR 00B3
ENCODING 179
SWIDTH 432 0
DWIDTH 9 0
BBX 7 9 1 7
BITMAP
FE
0C
08
10
3C
06
06
86
FC
ENDCHAR
STARTCHAR 00B4
ENCODING 180
SWIDTH 624 0
DWIDTH 13 0
BBX 4 3 5 12
BITMAP
30
60
C0
ENDCHAR
STARTCHAR 00B5
ENCODING 181
SWIDTH 672 0
DWIDTH 14 0
BBX 10 15 2 -4
BITMAP
C0C0
C0C0
C0C0
C0C0
C0C0
C0C0
C0C0
C0C0
E1C0
FFC0
DEC0
C000
C000
C000
C000
ENDCHAR
STARTCHAR 00B6
ENCODING 182
SWIDTH 672 0
DWIDTH 14 0
BBX 11 18 0 -2
BITMAP
3FE0
7FE0
7C20
FC20
FC20
7C20
3C20
0C20
0420
0420
0420
0420
0420
0420
0420
0420
0420
0420
ENDCHAR
STARTCHAR 00B7
ENCODING 183
SWIDTH 288 0
DWIDTH 6 0
BBX 3 3 1 4
BITMAP
60
E0
60
ENDCHAR
STARTCHAR 00B8
ENCODING 184
SWIDTH 624 0
DWIDTH 13 0
BBX 4 4 4 -4
BITMAP
20
70
10
F0
ENDCHAR
STARTCHAR 00B9
ENCODING 185
SWIDTH 432 0
DWIDTH 9 0
BBX 6 9 2 7
BITMAP
F0
30
30
30
30
30
30
30
FC
ENDCHAR
STARTCHAR 00BA
ENCODING 186
SWIDTH 432 0
DWIDTH 9 0
BBX 7 7 1 9
BITMAP
78
C4
86
82
86
C4
78
ENDCHAR
STARTCHAR 00BB
ENCODING 187
SWIDTH 528 0
DWIDTH 11 0
BBX 8 8 1 2
BITMAP
CC
66
22
33
33
22
66
CC
ENDCHAR
STARTCHAR 00BC
ENCODING 188
SWIDTH 1056 0
DWIDTH 22 0
BBX 19 15 2 0
BITMAP
F00400
300C00
301800
301000
303000
306000
304180
30C300
FD8200
010400
030C80
061880
041FE0
0C0080
180080
ENDCHAR
STARTCHAR 00BD
ENCODING 189
SWIDTH 1056 0
DWIDTH 22 0
BBX 18 15 2 0
BITMAP
F00400
300C00
301800
301000
303000
306000
304F80
30D8C0
FD8040
0100C0
030080
060300
040600
0C0C00
180FC0
ENDCHAR
STARTCHAR 00BE
ENCODING 190
SWIDTH 1056 0
DWIDTH 22 0
BBX 20 15 1 0
BITMAP
FE0200
0C0600
080C00
100800
3C1800
063000
0620C0
866180
FCC100
008200
018640
030C40
020FF0
060040
0C0040
ENDCHAR
STARTCHAR 00BF
ENCODING 191
SWIDTH 576 0
DWIDTH 12 0
BBX 10 14 1 -3
BITMAP
0C00
0C00
0C00
0000
0000
0C00
1C00
3800
6000
6000
E000
60C0
7FC0
1F00
ENDCHAR
STARTCHAR 00C0
ENCODING 192
SWIDTH 720 0
DWIDTH 15 0
BBX 15 19 0 0
BITMAP
0E00
0300
0180
0000
0380
0380
06C0
06C0
0660
0C60
0C70
1830
1830
3FF8
3FF8
300C
600C
600E
C006
ENDCHAR
STARTCHAR 00C1
ENCODING 193
SWIDTH 720 0
DWIDTH 15 0
BBX 15 19 0 0
BITMAP
00E0
0180
0300
0000
0380
0380
06C0
06C0
0660
0C60
0C70
1830
1830
3FF8
3FF8
300C
600C
600E
C006
ENDCHAR
STARTCHAR 00C2
ENCODING 194
SWIDTH 720 0
DWIDTH 15 0
BBX 15 19 0 0
BITMAP
0380
06C0
0C60
0000
0380
0380
06C0
06C0
0660
0C60
0C70
1830
1830
3FF8
3FF8
300C
600C
600E
C006
ENDCHAR
STARTCHAR 00C3
ENCODING 195
SWIDTH 720 0
DWIDTH 15 0
BBX 15 19 0 0
BITMAP
0600
0D20
08C0
0000
0380
0380
06C0
06C0
0660
0C60
0C70
1830
1830
3FF8
3FF8
300C
600C
600E
C006
ENDCHAR
STARTCHAR 00C4
ENCODING 196
SWIDTH 720 0
DWIDTH 15 0
BBX 15 19 0 0
BITMAP
0640
0660
0000
0000
0380
0380
06C0
06C0
0660
0C60
0C70
1830
1830
3FF8
3FF8
300C
600C
600E
C006
ENDCHAR
STARTCHAR 00C5
ENCODING 197
SWIDTH 720 0
DWIDTH 15 0
BBX 15 21 0 0
BITMAP
0380
0240
0440
0640
0380
0000
0380
0380
06C0
06C0
0660
0C60
0C70
1830
1830
3FF8
3FF8
300C
600C
600E
C006
ENDCHAR
STARTCHAR 00C6
ENCODING 198
SWIDTH 1056 0
DWIDTH 22 0
BBX 21 15 0 0
BITMAP
00FFF0
00FFF0
01B000
01B000
033000
063000
063FE0
0C3FE0
0C3000
1FF000
1FF000
303000
603000
603FF8
C03FF8
ENDCHAR
STARTCHAR 00C7
ENCODING 199
SWIDTH 720 0
DWIDTH 15 0
BBX 13 19 1 -4
BITMAP
07E0
1FF0
3838
7000
6000
C000
C000
C000
C000
C000
6000
7000
3838
1FF0
07E0
0100
0380
0080
0780
ENDCHAR
STARTCHAR 00C8
ENCODING 200
SWIDTH 672 0
DWIDTH 14 0
BBX 11 19 2 0
BITMAP
3800
1C00
0600
0000
FFC0
FFC0
C000
C000
C000
C000
FFC0
FFC0
C000
C000
C000
C000
C000
FFE0
FFE0
ENDCHAR
STARTCHAR 00C9
ENCODING 201
SWIDTH 672 0
DWIDTH 14 0
BBX 11 19 2 0
BITMAP
0380
0600
0C00
0000
FFC0
FFC0
C000
C000
C000
C000
FFC0
FFC0
C000
C000
C000
C000
C000
FFE0
FFE0
ENDCHAR
STARTCHAR 00CA
ENCODING 202
SWIDTH 672 0
DWIDTH 14 0
BBX 11 19 2 0
BITMAP
0E00
1B00
3180
0000
FFC0
FFC0
C000
C000
C000
C000
FFC0
FFC0
C000
C000
C000
C000
C000
FFE0
FFE0
ENDCHAR
STARTCHAR 00CB
ENCODING 203
SWIDTH 672 0
DWIDTH 14 0
BBX 11 19 2 0
BITMAP
1300
3300
0000
0000
FFC0
FFC0
C000
C000
C000
C000
FFC0
FFC0
C000
C000
C000
C000
C000
FFE0
FFE0
ENDCHAR
STARTCHAR 00CC
ENCODING 204
SWIDTH 288 0
DWIDTH 6 0
BBX 5 19 0 0
BITMAP
C0
70
18
00
30
30
30
30
30
30
30
30
30
30
30
30
30
30
30
ENDCHAR
STARTCHAR 00CD
ENCODING 205
SWIDTH 288 0
DWIDTH 6 0
BBX 4 19 2 0
BITMAP
30
60
C0
00
C0
C0
C0
C0
C0
C0
C0
C0
C0
C0
C0
C0
C0
C0
C0
ENDCHAR
STARTCHAR 00CE
ENCODING 206
SWIDTH 288 0
DWIDTH 6 0
BBX 7 19 0 0
BITMAP
38
6C
C6
00
30
30
30
30
30
30
30
30
30
30
30
30
30
30
30
ENDCHAR
STARTCHAR 00CF
ENCODING 207
SWIDTH 288 0
DWIDTH 6 0
BBX 6 19 0 0
BITMAP
CC
CC
00
00
30
30
30
30
30
30
30
30
30
30
30
30
30
30
30
ENDCHAR
STARTCHAR 00D0
ENCODING 208
SWIDTH 816 0
DWIDTH 17 0
BBX 16 15 0 0
BITMAP
3FF0
3FFC
301E
3006
3003
3003
FF83
FF83
3003
3003
3007
3006
301E
3FF8
3FF0
ENDCHAR
STARTCHAR 00D1
ENCODING 209
SWIDTH 816 0
DWIDTH 17 0
BBX 13 19 2 0
BITMAP
0C00
1AC0
1180
0000
C018
E018
F018
F818
D818
CC18
CE18
C718
C398
C198
C1D8
C0F8
C078
C038
C018
ENDCHAR
STARTCHAR 00D2
ENCODING 210
SWIDTH 864 0
DWIDTH 18 0
BBX 15 19 1 0
BITMAP
0E00
0300
0180
0000
07E0
1FF8
383C
700C
6006
C006
C006
C006
C006
C006
6006
700C
381C
1FF8
07E0
ENDCHAR
STARTCHAR 00D3
ENCODING 211
SWIDTH 864 0
DWIDTH 18 0
BBX 15 19 1 0
BITMAP
0060
00C0
0180
0000
07E0
1FF8
383C
700C
6006
C006
C006
C006
C006
C006
6006
700C
381C
1FF8
07E0
ENDCHAR
STARTCHAR 00D4
ENCODING 212
SWIDTH 864 0
DWIDTH 18 0
BBX 15 19 1 0
BITMAP
0180
03C0
0460
0000
07E0
1FF8
383C
700C
6006
C006
C006
C006
C006
C006
6006
700C
381C
1FF8
07E0
ENDCHAR
STARTCHAR 00D5
ENCODING 213
SWIDTH 864 0
DWIDTH 18 0
BBX 15 19 1 0
BITMAP
0600
0D20
08E0
0000
07E0
1FF8
383C
700C
6006
C006
C006
C006
C006
C006
6006
700C
381C
1FF8
07E0
ENDCHAR
STARTCHAR 00D6
ENCODING 214
SWIDTH 864 0
DWIDTH 18 0
BBX 15 18 1 0
BITMAP
0660
0660
0000
07E0
1FF8
383C
700C
6006
C006
C006
C006
C006
C006
6006
700C
381C
1FF8
07E0
ENDCHAR
STARTCHAR 00D7
ENCODING 215
SWIDTH 576 0
DWIDTH 12 0
BBX 8 8 2 3
BITMAP
42
E7
7E
3C
3C
7E
E7
42
ENDCHAR
STARTCHAR 00D8
ENCODING 216
SWIDTH 864 0
DWIDTH 18 0
BBX 15 17 1 -1
BITMAP
0004
07EC
1FF8
383C
702C
6066
C0C6
C086
C186
C306
C206
6406
7C0C
381C
1FF8
37E0
6000
ENDCHAR
STARTCHAR 00D9
ENCODING 217
SWIDTH 768 0
DWIDTH 16 0
BBX 12 19 2 0
BITMAP
1800
0E00
0300
0000
C030
C030
C030
C030
C030
C030
C030
C030
C030
C030
C030
6030
7060
3FE0
1F80
ENDCHAR
STARTCHAR 00DA
ENCODING 218
SWIDTH 768 0
DWIDTH 16 0
BBX 12 19 2 0
BITMAP
0180
0300
0600
0000
C030
C030
C030
C030
C030
C030
C030
C030
C030
C030
C030
6030
7060
3FE0
1F80
ENDCHAR
STARTCHAR 00DB
ENCODING 219
SWIDTH 768 0
DWIDTH 16 0
BBX 12 19 2 0
BITMAP
0700
0D80
18C0
0000
C030
C030
C030
C030
C030
C030
C030
C030
C030
C030
C030
6030
7060
3FE0
1F80
ENDCHAR
STARTCHAR 00DC
ENCODING 220
SWIDTH 768 0
DWIDTH 16 0
BBX 12 19 2 0
BITMAP
1980
1980
0000
0000
C030
C030
C030
C030
C030
C030
C030
C030
C030
C030
C030
6030
7060
3FE0
1F80
ENDCHAR
STARTCHAR 00DD
ENCODING 221
SWIDTH 624 0
DWIDTH 13 0
BBX 13 19 0 0
BITMAP
01C0
0380
0600
0000
C018
6018
7030
3060
1860
18C0
0CC0
0F80
0780
0300
0300
0300
0300
0300
0300
ENDCHAR
STARTCHAR 00DE
ENCODING 222
SWIDTH 720 0
DWIDTH 15 0
BBX 12 15 2 0
BITMAP
C000
C000
FF80
FFE0
C060
C030
C030
C030
C030
C060
FFC0
FF80
C000
C000
C000
ENDCHAR
STARTCHAR 00DF
ENCODING 223
SWIDTH 672 0
DWIDTH 14 0
BBX 11 16 2 0
BITMAP
1F00
7F80
61C0
C0C0
C0C0
C0C0
C180
C700
C7C0
C0E0
C060
C060
C060
C0E0
CFC0
CF80
ENDCHAR
STARTCHAR 00E0
ENCODING 224
SWIDTH 576 0
DWIDTH 12 0
BBX 10 15 1 0
BITMAP
3000
1800
0C00
0000
3F00
FF80
4180
00C0
00C0
7FC0
E0C0
C0C0
C1C0
7FC0
3EC0
ENDCHAR
STARTCHAR 00E1
ENCODING 225
SWIDTH 576 0
DWIDTH 12 0
BBX 10 15 1 0
BITMAP
0300
0600
0C00
0000
3F00
FF80
4180
00C0
00C0
7FC0
E0C0
C0C0
C1C0
7FC0
3EC0
ENDCHAR
STARTCHAR 00E2
ENCODING 226
SWIDTH 576 0
DWIDTH 12 0
BBX 10 15 1 0
BITMAP
0E00
1B00
2180
0000
3F00
FF80
4180
00C0
00C0
7FC0
E0C0
C0C0
C1C0
7FC0
3EC0
ENDCHAR
STARTCHAR 00E3
ENCODING 227
SWIDTH 576 0
DWIDTH 12 0
BBX 10 15 1 0
BITMAP
3000
2D00
2700
0000
3F00
FF80
4180
00C0
00C0
7FC0
E0C0
C0C0
C1C0
7FC0
3EC0
ENDCHAR
STARTCHAR 00E4
ENCODING 228
SWIDTH 576 0
DWIDTH 12 0
BBX 10 15 1 0
BITMAP
3300
3300
0000
0000
3F00
FF80
4180
00C0
00C0
7FC0
E0C0
C0C0
C1C0
7FC0
3EC0
ENDCHAR
STARTCHAR 00E5
ENCODING 229
SWIDTH 576 0
DWIDTH 12 0
BBX 10 17 1 0
BITMAP
0C00
1200
1200
1200
0C00
0000
3F00
FF80
4180
00C0
00C0
7FC0
E0C0
C0C0
C1C0
7FC0
3EC0
ENDCHAR
STARTCHAR 00E6
ENCODING 230
SWIDTH 1008 0
DWIDTH 21 0
BBX 19 11 1 0
BITMAP
3E1F00
FFFF80
41E0C0
00C0C0
00C060
7FFFE0
E0C000
C0C000
C1E080
7F7FC0
3E1F00
ENDCHAR
STARTCHAR 00E7
ENCODING 231
SWIDTH 576 0
DWIDTH 12 0
BBX 10 15 1 -4
BITMAP
1F00
3FC0
60C0
C000
C000
C000
C000
C000
60C0
7FC0
1F00
0C00
0E00
0200
1E00
ENDCHAR
STARTCHAR 00E8
ENCODING 232
SWIDTH 624 0
DWIDTH 13 0
BBX 11 15 1 0
BITMAP
3800
0C00
0600
0000
1F00
7F80
60C0
C060
C060
FFE0
C000
C000
60C0
3FC0
1F00
ENDCHAR
STARTCHAR 00E9
ENCODING 233
SWIDTH 624 0
DWIDTH 13 0
BBX 11 15 1 0
BITMAP
0380
0600
0C00
0000
1F00
7F80
60C0
C060
C060
FFE0
C000
C000
60C0
3FC0
1F00
ENDCHAR
STARTCHAR 00EA
ENCODING 234
SWIDTH 624 0
DWIDTH 13 0
BBX 11 15 1 0
BITMAP
0E00
1B00
3180
0000
1F00
7F80
60C0
C060
C060
FFE0
C000
C000
60C0
3FC0
1F00
ENDCHAR
STARTCHAR 00EB
ENCODING 235
SWIDTH 624 0
DWIDTH 13 0
BBX 11 15 1 0
BITMAP
1300
3300
0000
0000
1F00
7F80
60C0
C060
C060
FFE0
C000
C000
60C0
3FC0
1F00
ENDCHAR
STARTCHAR 00EC
ENCODING 236
SWIDTH 288 0
DWIDTH 6 0
BBX 4 15 0 0
BITMAP
C0
60
30
00
30
30
30
30
30
30
30
30
30
30
30
ENDCHAR
STARTCHAR 00ED
ENCODING 237
SWIDTH 288 0
DWIDTH 6 0
BBX 4 15 2 0
BITMAP
30
60
80
00
C0
C0
C0
C0
C0
C0
C0
C0
C0
C0
C0
ENDCHAR
STARTCHAR 00EE
ENCODING 238
SWIDTH 288 0
DWIDTH 6 0
BBX 6 15 0 0
BITMAP
30
78
CC
00
30
30
30
30
30
30
30
30
30
30
30
ENDCHAR
STARTCHAR 00EF
ENCODING 239
SWIDTH 288 0
DWIDTH 6 0
BBX 5 15 0 0
BITMAP
D8
D8
00
00
30
30
30
30
30
30
30
30
30
30
30
ENDCHAR
STARTCHAR 00F0
ENCODING 240
SWIDTH 624 0
DWIDTH 13 0
BBX 11 16 1 0
BITMAP
3C00
7FC0
03C0
1EC0
3860
0060
0E60
3FE0
61E0
C0E0
C060
C060
C060
E0C0
7F80
1F00
ENDCHAR
STARTCHAR 00F1
ENCODING 241
SWIDTH 672 0
DWIDTH 14 0
BBX 10 15 2 0
BITMAP
3000
2D00
2700
0000
DF00
FF80
E1C0
C0C0
C0C0
C0C0
C0C0
C0C0
C0C0
C0C0
C0C0
ENDCHAR
STARTCHAR 00F2
ENCODING 242
SWIDTH 624 0
DWIDTH 13 0
BBX 11 15 1 0
BITMAP
3800
0C00
0600
0000
1F00
3FC0
60C0
C060
C060
C060
C060
C060
60C0
3FC0
1F00
ENDCHAR
STARTCHAR 00F3
ENCODING 243
SWIDTH 624 0
DWIDTH 13 0
BBX 11 15 1 0
BITMAP
0380
0600
0C00
0000
1F00
3FC0
60C0
C060
C060
C060
C060
C060
60C0
3FC0
1F00
ENDCHAR
STARTCHAR 00F4
ENCODING 244
SWIDTH 624 0
DWIDTH 13 0
BBX 11 15 1 0
BITMAP
0E00
1B00
3180
0000
1F00
3FC0
60C0
C060
C060
C060
C060
C060
60C0
3FC0
1F00
ENDCHAR
STARTCHAR 00F5
ENCODING 245
SWIDTH 624 0
DWIDTH 13 0
BBX 11 15 1 0
BITMAP
1C80
2780
0000
0000
1F00
3FC0
60C0
C060
C060
C060
C060
C060
60C0
3FC0
1F00
ENDCHAR
STARTCHAR 00F6
ENCODING 246
SWIDTH 624 0
DWIDTH 13 0
BBX 11 15 1 0
BITMAP
1900
1980
0000
0000
1F00
3FC0
60C0
C060
C060
C060
C060
C060
60C0
3FC0
1F00
ENDCHAR
STARTCHAR 00F7
ENCODING 247
SWIDTH 576 0
DWIDTH 12 0
BBX 10 11 1 2
BITMAP
0C00
0C00
0000
0000
FFC0
FFC0
0000
0000
0000
0C00
0C00
ENDCHAR
STARTCHAR 00F8
ENCODING 248
SWIDTH 624 0
DWIDTH 13 0
BBX 11 13 1 -1
BITMAP
0040
1FC0
3FC0
61C0
C360
C260
C460
CC60
C860
70C0
3FC0
3F00
4000
ENDCHAR
STARTCHAR 00F9
ENCODING 249
SWIDTH 672 0
DWIDTH 14 0
BBX 10 15 2 0
BITMAP
3000
1800
0C00
0000
C0C0
C0C0
C0C0
C0C0
C0C0
C0C0
C0C0
C0C0
E1C0
7FC0
3EC0
ENDCHAR
STARTCHAR 00FA
ENCODING 250
SWIDTH 672 0
DWIDTH 14 0
BBX 10 15 2 0
BITMAP
0300
0600
0C00
0000
C0C0
C0C0
C0C0
C0C0
C0C0
C0C0
C0C0
C0C0
E1C0
7FC0
3EC0
ENDCHAR
STARTCHAR 00FB
ENCODING 251
SWIDTH 672 0
DWIDTH 14 0
BBX 10 15 2 0
BITMAP
0C00
1E00
6100
0000
C0C0
C0C0
C0C0
C0C0
C0C0
C0C0
C0C0
C0C0
E1C0
7FC0
3EC0
ENDCHAR
STARTCHAR 00FC
ENCODING 252
SWIDTH 672 0
DWIDTH 14 0
BBX 10 15 2 0
BITMAP
3300
3300
0000
0000
C0C0
C0C0
C0C0
C0C0
C0C0
C0C0
C0C0
C0C0
E1C0
7FC0
3EC0
ENDCHAR
STARTCHAR 00FD
ENCODING 253
SWIDTH 576 0
DWIDTH 12 0
BBX 11 19 0 -4
BITMAP
0380
0600
0C00
0000
C060
6060
6060
30C0
30C0
3180
1980
1B00
0F00
0E00
0600
0600
0C00
F800
F000
ENDCHAR
STARTCHAR 00FE
ENCODING 254
SWIDTH 672 0
DWIDTH 14 0
BBX 11 20 2 -4
BITMAP
C000
C000
C000
C000
C000
DF00
FFC0
E0E0
C060
C060
C060
C060
C060
E0E0
FFC0
DF00
C000
C000
C000
C000
ENDCHAR
STARTCHAR 00FF
ENCODING 255
SWIDTH 576 0
DWIDTH 12 0
BBX 11 19 0 -4
BITMAP
1B00
1900
0000
0000
C060
6060
6060
30C0
30C0
3180
1980
1B00
0F00
0E00
0600
0600
0C00
F800
F000
ENDCHAR
STARTCHAR 0100
ENCODING 256
SWIDTH 720 0
DWIDTH 15 0
BBX 15 18 0 0
BITMAP
0FE0
0000
0000
0380
0380
06C0
06C0
0660
0C60
0C70
1830
1830
3FF8
3FF8
300C
600C
600E
C006
ENDCHAR
STARTCHAR 0101
ENCODING 257
SWIDTH 576 0
DWIDTH 12 0
BBX 10 15 1 0
BITMAP
3F00
0000
0000
0000
3F00
FF80
4180
00C0
00C0
7FC0
E0C0
C0C0
C1C0
7FC0
3EC0
ENDCHAR
STARTCHAR 0102
ENCODING 258
SWIDTH 720 0
DWIDTH 15 0
BBX 15 19 0 0
BITMAP
0C20
0460
03C0
0000
0380
0380
06C0
06C0
0660
0C60
0C70
1830
1830
3FF8
3FF8
300C
600C
600E
C006
ENDCHAR
STARTCHAR 0103
ENCODING 259
SWIDTH 576 0
DWIDTH 12 0
BBX 10 15 1 0
BITMAP
2100
3300
1E00
0000
3F00
FF80
4180
00C0
00C0
7FC0
E0C0
C0C0
C1C0
7FC0
3EC0
ENDCHAR
STARTCHAR 0104
ENCODING 260
SWIDTH 720 0
DWIDTH 15 0
BBX 16 19 0 -4
BITMAP
0380
0380
06C0
06C0
0660
0C60
0C70
1830
1830
3FF8
3FF8
300C
600C
600E
C006
000C
0018
0018
000F
ENDCHAR
STARTCHAR 0105
ENCODING 261
SWIDTH 576 0
DWIDTH 12 0
BBX 10 15 1 -4
BITMAP
3F00
FF80
4180
00C0
00C0
7FC0
E0C0
C0C0
C1C0
7FC0
3EC0
0180
0200
0200
03C0
ENDCHAR
STARTCHAR 0106
ENCODING 262
SWIDTH 720 0
DWIDTH 15 0
BBX 13 19 1 0
BITMAP
0060
00C0
0180
0000
07E0
1FF0
3838
7000
6000
C000
C000
C000
C000
C000
6000
7000
3838
1FF0
07E0
ENDCHAR
STARTCHAR 0107
ENCODING 263
SWIDTH 576 0
DWIDTH 12 0
BBX 10 15 1 0
BITMAP
0300
0600
0C00
0000
1F00
3FC0
60C0
C000
C000
C000
C000
C000
60C0
3FC0
1F00
ENDCHAR
STARTCHAR 0108
ENCODING 264
SWIDTH 720 0
DWIDTH 15 0
BBX 13 19 1 0
BITMAP
0380
06C0
0C60
0000
07E0
1FF0
3838
7000
6000
C000
C000
C000
C000
C000
6000
7000
3838
1FF0
07E0
ENDCHAR
STARTCHAR 0109
ENCODING 265
SWIDTH 576 0
DWIDTH 12 0
BBX 10 15 1 0
BITMAP
0E00
1B00
3180
0000
1F00
3FC0
60C0
C000
C000
C000
C000
C000
60C0
3FC0
1F00
ENDCHAR
STARTCHAR 010A
ENCODING 266
SWIDTH 720 0
DWIDTH 15 0
BBX 13 19 1 0
BITMAP
0180
0380
0000
0000
07E0
1FF0
3838
7000
6000
C000
C000
C000
C000
C000
6000
7000
3838
1FF0
07E0
ENDCHAR
STARTCHAR 010B
ENCODING 267
SWIDTH 576 0
DWIDTH 12 0
BBX 10 16 1 0
BITMAP
0C00
0E00
0000
0000
0000
1F00
3FC0
60C0
C000
C000
C000
C000
C000
60C0
3FC0
1F00
ENDCHAR
STARTCHAR 010C
ENCODING 268
SWIDTH 720 0
DWIDTH 15 0
BBX 13 19 1 0
BITMAP
0C60
06C0
0380
0000
07E0
1FF0
3838
7000
6000
C000
C000
C000
C000
C000
6000
7000
3838
1FF0
07E0
ENDCHAR
STARTCHAR 010D
ENCODING 269
SWIDTH 576 0
DWIDTH 12 0
BBX 10 15 1 0
BITMAP
3180
1F00
0C00
0000
1F00
3FC0
60C0
C000
C000
C000
C000
C000
60C0
3FC0
1F00
ENDCHAR
STARTCHAR 010E
ENCODING 270
SWIDTH 816 0
DWIDTH 17 0
BBX 14 19 2 0
BITMAP
1980
0F00
0600
0000
FF80
FFE0
C070
C018
C01C
C00C
C00C
C00C
C00C
C00C
C01C
C018
C070
FFE0
FF80
ENDCHAR
STARTCHAR 010F
ENCODING 271
SWIDTH 672 0
DWIDTH 14 0
BBX 15 17 1 0
BITMAP
0006
0066
0066
0066
0060
0060
1F60
7FE0
60E0
C060
C060
C060
C060
C060
60E0
7FE0
1F60
ENDCHAR
STARTCHAR 0110
ENCODING 272
SWIDTH 816 0
DWIDTH 17 0
BBX 16 15 0 0
BITMAP
3FF0
3FFC
301E
3006
3003
3003
FF83
FF83
3003
3003
3007
3006
301E
3FF8
3FF0
ENDCHAR
STARTCHAR 0111
ENCODING 273
SWIDTH 672 0
DWIDTH 14 0
BBX 13 16 1 0
BITMAP
0060
0060
07F8
0060
0060
1F60
7FE0
60E0
C060
C060
C060
C060
C060
60E0
7FE0
1F60
ENDCHAR
STARTCHAR 0112
ENCODING 274
SWIDTH 672 0
DWIDTH 14 0
BBX 11 18 2 0
BITMAP
3F80
0000
0000
FFC0
FFC0
C000
C000
C000
C000
FFC0
FFC0
C000
C000
C000
C000
C000
FFE0
FFE0
ENDCHAR
STARTCHAR 0113
ENCODING 275
SWIDTH 624 0
DWIDTH 13 0
BBX 11 15 1 0
BITMAP
3F80
0000
0000
0000
1F00
7F80
60C0
C060
C060
FFE0
C000
C000
60C0
3FC0
1F00
ENDCHAR
STARTCHAR 0114
ENCODING 276
SWIDTH 672 0
DWIDTH 14 0
BBX 11 19 2 0
BITMAP
2180
3100
1E00
0000
FFC0
FFC0
C000
C000
C000
C000
FFC0
FFC0
C000
C000
C000
C000
C000
FFE0
FFE0
ENDCHAR
STARTCHAR 0115
ENCODING 277
SWIDTH 624 0
DWIDTH 13 0
BBX 11 15 1 0
BITMAP
2180
3100
1E00
0000
1F00
7F80
60C0
C060
C060
FFE0
C000
C000
60C0
3FC0
1F00
ENDCHAR
STARTCHAR 0116
ENCODING 278
SWIDTH 672 0
DWIDTH 14 0
BBX 11 19 2 0
BITMAP
0C00
0E00
0000
0000
FFC0
FFC0
C000
C000
C000
C000
FFC0
FFC0
C000
C000
C000
C000
C000
FFE0
FFE0
ENDCHAR
STARTCHAR 0117
ENCODING 279
SWIDTH 624 0
DWIDTH 13 0
BBX 11 16 1 0
BITMAP
0C00
0E00
0000
0000
0000
1F00
7F80
60C0
C060
C060
FFE0
C000
C000
60C0
3FC0
1F00
ENDCHAR
STARTCHAR 0118
ENCODING 280
SWIDTH 672 0
DWIDTH 14 0
BBX 11 20 2 -5
BITMAP
FFC0
FFC0
C000
C000
C000
C000
FFC0
FFC0
C000
C000
C000
C000
C000
FFE0
FFE0
00C0
0180
0100
0180
00E0
ENDCHAR
STARTCHAR 0119
ENCODING 281
SWIDTH 624 0
DWIDTH 13 0
BBX 11 15 1 -4
BITMAP
1F00
7F80
60C0
C060
C060
FFE0
C000
C000
60C0
3FC0
1F80
0300
0200
0200
03C0
ENDCHAR
STARTCHAR 011A
ENCODING 282
SWIDTH 672 0
DWIDTH 14 0
BBX 11 19 2 0
BITMAP
3180
1F00
0E00
0000
FFC0
FFC0
C000
C000
C000
C000
FFC0
FFC0
C000
C000
C000
C000
C000
FFE0
FFE0
ENDCHAR
STARTCHAR 011B
ENCODING 283
SWIDTH 624 0
DWIDTH 13 0
BBX 11 15 1 0
BITMAP
3180
1B00
0E00
0000
1F00
7F80
60C0
C060
C060
FFE0
C000
C000
60C0
3FC0
1F00
ENDCHAR
STARTCHAR 011C
ENCODING 284
SWIDTH 768 0
DWIDTH 16 0
BBX 13 19 1 0
BITMAP
0380
06C0
0C60
0000
07E0
1FF8
3818
7000
6000
C000
C000
C018
C018
C018
6018
7018
3818
1FF8
07E0
ENDCHAR
STARTCHAR 011D
ENCODING 285
SWIDTH 672 0
DWIDTH 14 0
BBX 11 19 1 -4
BITMAP
0E00
1B00
3080
0000
1F20
7FA0
60E0
C060
C060
C060
C060
E060
70E0
3FE0
0E60
0060
40E0
7FC0
1F80
ENDCHAR
STARTCHAR 011E
ENCODING 286
SWIDTH 768 0
DWIDTH 16 0
BBX 13 19 1 0
BITMAP
0C20
0C60
07C0
0000
07E0
1FF8
3818
7000
6000
C000
C000
C018
C018
C018
6018
7018
3818
1FF8
07E0
ENDCHAR
STARTCHAR 011F
ENCODING 287
SWIDTH 672 0
DWIDTH 14 0
BBX 11 19 1 -4
BITMAP
3080
1980
0F00
0000
1F20
7FA0
60E0
C060
C060
C060
C060
E060
70E0
3FE0
0E60
0060
40E0
7FC0
1F80
ENDCHAR
STARTCHAR 0120
ENCODING 288
SWIDTH 768 0
DWIDTH 16 0
BBX 13 19 1 0
BITMAP
0180
0380
0000
0000
07E0
1FF8
3818
7000
6000
C000
C000
C018
C018
C018
6018
7018
3818
1FF8
07E0
ENDCHAR
STARTCHAR 0121
ENCODING 289
SWIDTH 672 0
DWIDTH 14 0
BBX 11 20 1 -4
BITMAP
0600
0600
0000
0000
0000
1F20
7FA0
60E0
C060
C060
C060
C060
E060
70E0
3FE0
0E60
0060
40E0
7FC0
1F80
ENDCHAR
STARTCHAR 0122
ENCODING 290
SWIDTH 768 0
DWIDTH 16 0
BBX 13 21 1 -6
BITMAP
07E0
1FF8
3818
7000
6000
C000
C000
C018
C018
C018
6018
7018
3818
1FF8
07E0
0000
0000
0300
0100
0100
0100
ENDCHAR
STARTCHAR 0123
ENCODING 291
SWIDTH 672 0
DWIDTH 14 0
BBX 11 20 1 -4
BITMAP
0200
0400
0600
0600
0000
1F20
7FA0
60E0
C060
C060
C060
C060
E060
70E0
3FE0
0E60
0060
40E0
7FC0
1F80
ENDCHAR
STARTCHAR 0124
ENCODING 292
SWIDTH 816 0
DWIDTH 17 0
BBX 13 19 2 0
BITMAP
0700
0D80
18C0
0000
C018
C018
C018
C018
C018
C018
FFF8
FFF8
C018
C018
C018
C018
C018
C018
C018
ENDCHAR
STARTCHAR 0125
ENCODING 293
SWIDTH 672 0
DWIDTH 14 0
BBX 13 20 -1 0
BITMAP
3800
6C00
C200
0000
1800
1800
1800
1800
1800
1BE0
1FF0
1C38
1818
1818
1818
1818
1818
1818
1818
1818
ENDCHAR
STARTCHAR 0126
ENCODING 294
SWIDTH 816 0
DWIDTH 17 0
BBX 17 15 0 0
BITMAP
300600
300600
FFFF80
FFFF80
300600
300600
3FFE00
3FFE00
300600
300600
300600
300600
300600
300600
300600
ENDCHAR
STARTCHAR 0127
ENCODING 295
SWIDTH 672 0
DWIDTH 14 0
BBX 12 16 0 0
BITMAP
3000
3000
FF00
3000
3000
37C0
3FE0
3870
3030
3030
3030
3030
3030
3030
3030
3030
ENDCHAR
STARTCHAR 0128
ENCODING 296
SWIDTH 288 0
DWIDTH 6 0
BBX 7 19 0 0
BITMAP
40
B6
9C
00
30
30
30
30
30
30
30
30
30
30
30
30
30
30
30
ENDCHAR
STARTCHAR 0129
ENCODING 297
SWIDTH 288 0
DWIDTH 6 0
BBX 6 15 0 0
BITMAP
E4
98
00
00
30
30
30
30
30
30
30
30
30
30
30
ENDCHAR
STARTCHAR 012A
ENCODING 298
SWIDTH 288 0
DWIDTH 6 0
BBX 6 18 0 0
BITMAP
FC
00
00
30
30
30
30
30
30
30
30
30
30
30
30
30
30
30
ENDCHAR
STARTCHAR 012B
ENCODING 299
SWIDTH 288 0
DWIDTH 6 0
BBX 6 15 0 0
BITMAP
FC
00
00
00
30
30
30
30
30
30
30
30
30
30
30
ENDCHAR
STARTCHAR 012C
ENCODING 300
SWIDTH 288 0
DWIDTH 6 0
BBX 7 19 0 0
BITMAP
86
CC
78
00
30
30
30
30
30
30
30
30
30
30
30
30
30
30
30
ENDCHAR
STARTCHAR 012D
ENCODING 301
SWIDTH 288 0
DWIDTH 6 0
BBX 6 16 0 0
BITMAP
8C
CC
78
00
00
30
30
30
30
30
30
30
30
30
30
30
ENDCHAR
STARTCHAR 012E
ENCODING 302
SWIDTH 288 0
DWIDTH 6 0
BBX 3 19 2 -4
BITMAP
C0
C0
C0
C0
C0
C0
C0
C0
C0
C0
C0
C0
C0
C0
C0
C0
80
80
E0
ENDCHAR
STARTCHAR 012F
ENCODING 303
SWIDTH 288 0
DWIDTH 6 0
BBX 3 20 1 -4
BITMAP
40
60
60
00
00
60
60
60
60
60
60
60
60
60
60
60
40
C0
C0
60
ENDCHAR
STARTCHAR 0130
ENCODING 304
SWIDTH 288 0
DWIDTH 6 0
BBX 2 19 2 0
BITMAP
C0
C0
00
00
C0
C0
C0
C0
C0
C0
C0
C0
C0
C0
C0
C0
C0
C0
C0
ENDCHAR
STARTCHAR 0131
ENCODING 305
SWIDTH 288 0
DWIDTH 6 0
BBX 2 11 2 0
BITMAP
C0
C0
C0
C0
C0
C0
C0
C0
C0
C0
C0
ENDCHAR
STARTCHAR 0132
ENCODING 306
SWIDTH 720 0
DWIDTH 15 0
BBX 11 15 2 0
BITMAP
C060
C060
C060
C060
C060
C060
C060
C060
0060
0060
0060
00C0
C1C0
FF80
3F00
ENDCHAR
STARTCHAR 0133
ENCODING 307
SWIDTH 576 0
DWIDTH 12 0
BBX 8 20 2 -4
BITMAP
82
C7
C3
00
00
C3
C3
C3
C3
C3
C3
C3
C3
C3
C3
C3
03
03
3E
3C
ENDCHAR
STARTCHAR 0134
ENCODING 308
SWIDTH 528 0
DWIDTH 11 0
BBX 9 19 0 0
BITMAP
0C00
3E00
6100
0000
7F80
7F80
0180
0180
0180
0180
0180
0180
0180
0180
0180
0300
C300
FF00
3C00
ENDCHAR
STARTCHAR 0135
ENCODING 309
SWIDTH 288 0
DWIDTH 6 0
BBX 8 19 -2 -4
BITMAP
0C
1E
33
00
0C
0C
0C
0C
0C
0C
0C
0C
0C
0C
0C
0C
0C
F8
F0
ENDCHAR
STARTCHAR 0136
ENCODING 310
SWIDTH 720 0
DWIDTH 15 0
BBX 13 21 2 -6
BITMAP
C030
C060
C0C0
C180
C300
C600
CE00
DE00
FF00
F380
E180
C0C0
C0E0
C070
C038
0000
0000
0600
0600
0400
0400
ENDCHAR
STARTCHAR 0137
ENCODING 311
SWIDTH 624 0
DWIDTH 13 0
BBX 10 22 2 -6
BITMAP
C000
C000
C000
C000
C000
C1C0
C380
C700
CE00
DC00
FC00
F600
C700
C380
C1C0
C0C0
0000
0000
0800
0C00
0800
0800
ENDCHAR
STARTCHAR 0138
ENCODING 312
SWIDTH 624 0
DWIDTH 13 0
BBX 10 11 2 0
BITMAP
C1C0
C380
C700
CE00
DC00
FC00
F600
C700
C380
C1C0
C0C0
ENDCHAR
STARTCHAR 0139
ENCODING 313
SWIDTH 576 0
DWIDTH 12 0
BBX 10 19 2 0
BITMAP
3000
6000
C000
0000
C000
C000
C000
C000
C000
C000
C000
C000
C000
C000
C000
C000
C000
FFC0
FFC0
ENDCHAR
STARTCHAR 013A
ENCODING 314
SWIDTH 288 0
DWIDTH 6 0
BBX 4 20 2 0
BITMAP
30
60
80
00
C0
C0
C0
C0
C0
C0
C0
C0
C0
C0
C0
C0
C0
C0
C0
C0
ENDCHAR
STARTCHAR 013B
ENCODING 315
SWIDTH 576 0
DWIDTH 12 0
BBX 10 21 2 -6
BITMAP
C000
C000
C000
C000
C000
C000
C000
C000
C000
C000
C000
C000
C000
FFC0
FFC0
0000
0000
0C00
0C00
0400
0400
ENDCHAR
STARTCHAR 013C
ENCODING 316
SWIDTH 288 0
DWIDTH 6 0
BBX 2 22 2 -6
BITMAP
C0
C0
C0
C0
C0
C0
C0
C0
C0
C0
C0
C0
C0
C0
C0
C0
00
00
C0
C0
80
80
ENDCHAR
STARTCHAR 013D
ENCODING 317
SWIDTH 576 0
DWIDTH 12 0
BBX 10 16 2 0
BITMAP
0180
C180
C180
C180
C000
C000
C000
C000
C000
C000
C000
C000
C000
C000
FFC0
FFC0
ENDCHAR
STARTCHAR 013E
ENCODING 318
SWIDTH 288 0
DWIDTH 6 0
BBX 5 17 2 0
BITMAP
08
C8
C8
C8
C0
C0
C0
C0
C0
C0
C0
C0
C0
C0
C0
C0
C0
ENDCHAR
STARTCHAR 013F
ENCODING 319
SWIDTH 576 0
DWIDTH 12 0
BBX 10 15 2 0
BITMAP
C000
C000
C000
C000
C000
C100
C380
C300
C000
C000
C000
C000
C000
FFC0
FFC0
ENDCHAR
STARTCHAR 0140
ENCODING 320
SWIDTH 336 0
DWIDTH 7 0
BBX 6 16 2 0
BITMAP
C0
C0
C0
C0
C0
C0
C0
D8
DC
C0
C0
C0
C0
C0
C0
C0
ENDCHAR
STARTCHAR 0141
ENCODING 321
SWIDTH 624 0
DWIDTH 13 0
BBX 11 15 1 0
BITMAP
6000
6000
6000
6000
6400
6C00
7800
6000
E000
E000
6000
6000
6000
7FE0
7FE0
ENDCHAR
STARTCHAR 0142
ENCODING 322
SWIDTH 288 0
DWIDTH 6 0
BBX 6 16 0 0
BITMAP
30
30
30
30
30
30
3C
38
30
F0
B0
30
30
30
30
30
ENDCHAR
STARTCHAR 0143
ENCODING 323
SWIDTH 816 0
DWIDTH 17 0
BBX 13 19 2 0
BITMAP
01C0
0300
0600
0000
C018
E018
F018
F818
D818
CC18
CE18
C718
C398
C198
C1D8
C0F8
C078
C038
C018
ENDCHAR
STARTCHAR 0144
ENCODING 324
SWIDTH 672 0
DWIDTH 14 0
BBX 10 15 2 0
BITMAP
0300
0600
0C00
0000
DF00
FF80
E1C0
C0C0
C0C0
C0C0
C0C0
C0C0
C0C0
C0C0
C0C0
ENDCHAR
STARTCHAR 0145
ENCODING 325
SWIDTH 816 0
DWIDTH 17 0
BBX 13 21 2 -6
BITMAP
C018
E018
F018
F818
D818
CC18
CE18
C718
C398
C198
C1D8
C0F8
C078
C038
C018
0000
0000
0600
0200
0200
0200
ENDCHAR
STARTCHAR 0146
ENCODING 326
SWIDTH 672 0
DWIDTH 14 0
BBX 10 17 2 -6
BITMAP
DF00
FF80
E1C0
C0C0
C0C0
C0C0
C0C0
C0C0
C0C0
C0C0
C0C0
0000
0000
0C00
0C00
0400
0800
ENDCHAR
STARTCHAR 0147
ENCODING 327
SWIDTH 816 0
DWIDTH 17 0
BBX 13 19 2 0
BITMAP
18C0
0D80
0700
0000
C018
E018
F018
F818
D818
CC18
CE18
C718
C398
C198
C1D8
C0F8
C078
C038
C018
ENDCHAR
STARTCHAR 0148
ENCODING 328
SWIDTH 672 0
DWIDTH 14 0
BBX 10 15 2 0
BITMAP
3300
1E00
0C00
0000
DF00
FF80
E1C0
C0C0
C0C0
C0C0
C0C0
C0C0
C0C0
C0C0
C0C0
ENDCHAR
STARTCHAR 0149
ENCODING 329
SWIDTH 768 0
DWIDTH 16 0
BBX 13 15 1 0
BITMAP
C000
8000
8000
8000
9BE0
9FF0
1C38
1818
1818
1818
1818
1818
1818
1818
1818
ENDCHAR
STARTCHAR 014A
ENCODING 330
SWIDTH 816 0
DWIDTH 17 0
BBX 13 19 2 -4
BITMAP
C018
E018
F018
F818
D818
CC18
CE18
C718
C398
C198
C1D8
C0F8
C078
C038
C018
0018
0430
07F0
03E0
ENDCHAR
STARTCHAR 014B
ENCODING 331
SWIDTH 672 0
DWIDTH 14 0
BBX 10 15 2 -4
BITMAP
DF00
FF80
E1C0
C0C0
C0C0
C0C0
C0C0
C0C0
C0C0
C0C0
C0C0
00C0
00C0
07C0
0780
ENDCHAR
STARTCHAR 014C
ENCODING 332
SWIDTH 864 0
DWIDTH 18 0
BBX 15 18 1 0
BITMAP
0FE0
0000
0000
07E0
1FF8
383C
700C
6006
C006
C006
C006
C006
C006
6006
700C
381C
1FF8
07E0
ENDCHAR
STARTCHAR 014D
ENCODING 333
SWIDTH 624 0
DWIDTH 13 0
BBX 11 15 1 0
BITMAP
3F80
0000
0000
0000
1F00
3FC0
60C0
C060
C060
C060
C060
C060
60C0
3FC0
1F00
ENDCHAR
STARTCHAR 014E
ENCODING 334
SWIDTH 864 0
DWIDTH 18 0
BBX 15 19 1 0
BITMAP
0C20
0460
03C0
0000
07E0
1FF8
383C
700C
6006
C006
C006
C006
C006
C006
6006
700C
381C
1FF8
07E0
ENDCHAR
STARTCHAR 014F
ENCODING 335
SWIDTH 624 0
DWIDTH 13 0
BBX 11 15 1 0
BITMAP
3080
1180
0F00
0000
1F00
3FC0
60C0
C060
C060
C060
C060
C060
60C0
3FC0
1F00
ENDCHAR
STARTCHAR 0150
ENCODING 336
SWIDTH 864 0
DWIDTH 18 0
BBX 15 19 1 0
BITMAP
01B8
0330
0660
0000
07E0
1FF8
383C
700C
6006
C006
C006
C006
C006
C006
6006
700C
381C
1FF8
07E0
ENDCHAR
STARTCHAR 0151
ENCODING 337
SWIDTH 624 0
DWIDTH 13 0
BBX 11 15 1 0
BITMAP
0CC0
0D80
1900
0000
1F00
3FC0
60C0
C060
C060
C060
C060
C060
60C0
3FC0
1F00
ENDCHAR
STARTCHAR 0152
ENCODING 338
SWIDTH 1104 0
DWIDTH 23 0
BBX 21 15 1 0
BITMAP
07FFF8
1FFFF8
381800
601800
E01800
C01800
C01FF0
C01FF0
C01800
C01800
601800
701800
381800
1FFFF8
07FFF8
ENDCHAR
STARTCHAR 0153
ENCODING 339
SWIDTH 1056 0
DWIDTH 22 0
BBX 20 11 1 0
BITMAP
1F0F80
3FDFE0
60F070
C07030
C06030
C07FF0
C06000
C07000
60F820
3FDFE0
1F07C0
ENDCHAR
STARTCHAR 0154
ENCODING 340
SWIDTH 720 0
DWIDTH 15 0
BBX 12 19 2 0
BITMAP
0380
0700
0C00
0000
FF80
FFC0
C060
C070
C030
C030
C030
C070
C0E0
FFC0
FF80
C1C0
C0C0
C060
C030
ENDCHAR
STARTCHAR 0155
ENCODING 341
SWIDTH 432 0
DWIDTH 9 0
BBX 6 15 2 0
BITMAP
0C
18
20
00
DC
FC
E0
C0
C0
C0
C0
C0
C0
C0
C0
ENDCHAR
STARTCHAR 0156
ENCODING 342
SWIDTH 720 0
DWIDTH 15 0
BBX 12 21 2 -6
BITMAP
FF80
FFC0
C060
C070
C030
C030
C030
C070
C0E0
FFC0
FF80
C1C0
C0C0
C060
C030
0000
0000
0600
0600
0400
0400
ENDCHAR
STARTCHAR 0157
ENCODING 343
SWIDTH 432 0
DWIDTH 9 0
BBX 6 17 2 -6
BITMAP
DC
FC
E0
C0
C0
C0
C0
C0
C0
C0
C0
00
00
C0
C0
80
80
ENDCHAR
STARTCHAR 0158
ENCODING 344
SWIDTH 720 0
DWIDTH 15 0
BBX 12 19 2 0
BITMAP
3180
0F00
0600
0000
FF80
FFC0
C060
C070
C030
C030
C030
C070
C0E0
FFC0
FF80
C1C0
C0C0
C060
C030
ENDCHAR
STARTCHAR 0159
ENCODING 345
SWIDTH 432 0
DWIDTH 9 0
BBX 6 15 2 0
BITMAP
CC
78
30
00
DC
FC
E0
C0
C0
C0
C0
C0
C0
C0
C0
ENDCHAR
STARTCHAR 015A
ENCODING 346
SWIDTH 624 0
DWIDTH 13 0
BBX 11 19 1 0
BITMAP
0180
0300
0600
0000
1F80
7FC0
6040
C000
C000
E000
7000
3F00
0FC0
00E0
0060
0060
C0E0
FFC0
3F00
ENDCHAR
STARTCHAR 015B
ENCODING 347
SWIDTH 480 0
DWIDTH 10 0
BBX 9 15 1 0
BITMAP
0600
0C00
1800
0000
3E00
FF00
C100
C000
E000
7E00
0F00
0180
8180
FF00
7E00
ENDCHAR
STARTCHAR 015C
ENCODING 348
SWIDTH 624 0
DWIDTH 13 0
BBX 11 19 1 0
BITMAP
0600
0F00
3180
0000
1F80
7FC0
6040
C000
C000
E000
7000
3F00
0FC0
00E0
0060
0060
C0E0
FFC0
3F00
ENDCHAR
STARTCHAR 015D
ENCODING 349
SWIDTH 480 0
DWIDTH 10 0
BBX 9 15 1 0
BITMAP
1C00
3600
4300
0000
3E00
FF00
C100
C000
E000
7E00
0F00
0180
8180
FF00
7E00
ENDCHAR
STARTCHAR 015E
ENCODING 350
SWIDTH 624 0
DWIDTH 13 0
BBX 11 19 1 -4
BITMAP
1F80
7FC0
6040
C000
C000
E000
7000
3F00
0FC0
00E0
0060
0060
C0E0
FFC0
3F00
0400
0600
0300
0E00
ENDCHAR
STARTCHAR 015F
ENCODING 351
SWIDTH 480 0
DWIDTH 10 0
BBX 9 15 1 -4
BITMAP
3E00
FF00
C100
C000
E000
7E00
0F00
0180
8180
FF00
7E00
1800
1C00
0400
3C00
ENDCHAR
STARTCHAR 0160
ENCODING 352
SWIDTH 624 0
DWIDTH 13 0
BBX 11 19 1 0
BITMAP
3180
1B00
0E00
0000
1F80
7FC0
6040
C000
C000
E000
7000
3F00
0FC0
00E0
0060
0060
C0E0
FFC0
3F00
ENDCHAR
STARTCHAR 0161
ENCODING 353
SWIDTH 480 0
DWIDTH 10 0
BBX 9 15 1 0
BITMAP
6600
3C00
1800
0000
3E00
FF00
C100
C000
E000
7E00
0F00
0180
8180
FF00
7E00
ENDCHAR
STARTCHAR 0162
ENCODING 354
SWIDTH 576 0
DWIDTH 12 0
BBX 12 19 0 -4
BITMAP
FFF0
FFF0
0600
0600
0600
0600
0600
0600
0600
0600
0600
0600
0600
0600
0600
0400
0700
0100
0F00
ENDCHAR
STARTCHAR 0163
ENCODING 355
SWIDTH 432 0
DWIDTH 9 0
BBX 8 17 0 -4
BITMAP
30
30
FE
FE
30
30
30
30
30
30
30
1F
1F
04
0E
02
1E
ENDCHAR
STARTCHAR 0164
ENCODING 356
SWIDTH 576 0
DWIDTH 12 0
BBX 12 19 0 0
BITMAP
1980
0F00
0600
0000
FFF0
FFF0
0600
0600
0600
0600
0600
0600
0600
0600
0600
0600
0600
0600
0600
ENDCHAR
STARTCHAR 0165
ENCODING 357
SWIDTH 432 0
DWIDTH 9 0
BBX 8 16 0 0
BITMAP
02
02
32
32
30
FE
FE
30
30
30
30
30
30
30
1F
0F
ENDCHAR
STARTCHAR 0166
ENCODING 358
SWIDTH 576 0
DWIDTH 12 0
BBX 12 15 0 0
BITMAP
FFF0
FFF0
0600
0600
0600
0600
0600
3FC0
3FC0
0600
0600
0600
0600
0600
0600
ENDCHAR
STARTCHAR 0167
ENCODING 359
SWIDTH 432 0
DWIDTH 9 0
BBX 8 13 0 0
BITMAP
30
30
FE
FE
30
30
7E
30
30
30
38
1F
0F
ENDCHAR
STARTCHAR 0168
ENCODING 360
SWIDTH 768 0
DWIDTH 16 0
BBX 12 19 2 0
BITMAP
0800
16C0
1380
0000
C030
C030
C030
C030
C030
C030
C030
C030
C030
C030
C030
6030
7060
3FE0
1F80
ENDCHAR
STARTCHAR 0169
ENCODING 361
SWIDTH 672 0
DWIDTH 14 0
BBX 10 15 2 0
BITMAP
3000
2D00
2700
0000
C0C0
C0C0
C0C0
C0C0
C0C0
C0C0
C0C0
C0C0
E1C0
7FC0
3EC0
ENDCHAR
STARTCHAR 016A
ENCODING 362
SWIDTH 768 0
DWIDTH 16 0
BBX 12 18 2 0
BITMAP
1FC0
0000
0000
C030
C030
C030
C030
C030
C030
C030
C030
C030
C030
C030
6030
7060
3FE0
1F80
ENDCHAR
STARTCHAR 016B
ENCODING 363
SWIDTH 672 0
DWIDTH 14 0
BBX 10 15 2 0
BITMAP
3F00
0000
0000
0000
C0C0
C0C0
C0C0
C0C0
C0C0
C0C0
C0C0
C0C0
E1C0
7FC0
3EC0
ENDCHAR
STARTCHAR 016C
ENCODING 364
SWIDTH 768 0
DWIDTH 16 0
BBX 12 19 2 0
BITMAP
10C0
1880
0F00
0000
C030
C030
C030
C030
C030
C030
C030
C030
C030
C030
C030
6030
7060
3FE0
1F80
ENDCHAR
STARTCHAR 016D
ENCODING 365
SWIDTH 672 0
DWIDTH 14 0
BBX 10 16 2 0
BITMAP
2100
3300
1E00
0000
0000
C0C0
C0C0
C0C0
C0C0
C0C0
C0C0
C0C0
C0C0
E1C0
7FC0
3EC0
ENDCHAR
STARTCHAR 016E
ENCODING 366
SWIDTH 768 0
DWIDTH 16 0
BBX 12 21 2 0
BITMAP
0700
0900
0880
0900
0700
0000
C030
C030
C030
C030
C030
C030
C030
C030
C030
C030
C030
6030
7060
3FE0
1F80
ENDCHAR
STARTCHAR 016F
ENCODING 367
SWIDTH 672 0
DWIDTH 14 0
BBX 10 17 2 0
BITMAP
0C00
1200
1200
1200
0C00
0000
C0C0
C0C0
C0C0
C0C0
C0C0
C0C0
C0C0
C0C0
E1C0
7FC0
3EC0
ENDCHAR
STARTCHAR 0170
ENCODING 368
SWIDTH 768 0
DWIDTH 16 0
BBX 12 19 2 0
BITMAP
0660
0CC0
0980
0000
C030
C030
C030
C030
C030
C030
C030
C030
C030
C030
C030
6030
7060
3FE0
1F80
ENDCHAR
STARTCHAR 0171
ENCODING 369
SWIDTH 672 0
DWIDTH 14 0
BBX 10 15 2 0
BITMAP
0DC0
1980
3300
0000
C0C0
C0C0
C0C0
C0C0
C0C0
C0C0
C0C0
C0C0
E1C0
7FC0
3EC0
ENDCHAR
STARTCHAR 0172
ENCODING 370
SWIDTH 768 0
DWIDTH 16 0
BBX 12 19 2 -4
BITMAP
C030
C030
C030
C030
C030
C030
C030
C030
C030
C030
C030
6030
7060
3FE0
1F80
0600
0C00
0C00
0780
ENDCHAR
STARTCHAR 0173
ENCODING 371
SWIDTH 672 0
DWIDTH 14 0
BBX 11 15 2 -4
BITMAP
C0C0
C0C0
C0C0
C0C0
C0C0
C0C0
C0C0
C0C0
E1C0
7FC0
3EC0
0180
0300
0300
01E0
ENDCHAR
STARTCHAR 0174
ENCODING 372
SWIDTH 1104 0
DWIDTH 23 0
BBX 22 19 1 0
BITMAP
007000
00D800
018C00
000000
C0300C
C07018
E07818
607818
60D830
70CC30
30CC30
318C60
398660
198660
1B06C0
1B03C0
0F03C0
0E0380
0E0180
ENDCHAR
STARTCHAR 0175
ENCODING 373
SWIDTH 912 0
DWIDTH 19 0
BBX 18 15 0 0
BITMAP
00E000
01B000
031800
000000
C0C040
60E0C0
60E0C0
61B180
31B180
333180
131B00
1A1B00
1E0A00
0E0E00
0C0E00
ENDCHAR
STARTCHAR 0176
ENCODING 374
SWIDTH 624 0
DWIDTH 13 0
BBX 13 19 0 0
BITMAP
0700
0D80
18C0
0000
C018
6018
7030
3060
1860
18C0
0CC0
0F80
0780
0300
0300
0300
0300
0300
0300
ENDCHAR
STARTCHAR 0177
ENCODING 375
SWIDTH 576 0
DWIDTH 12 0
BBX 11 19 0 -4
BITMAP
0E00
1B00
3180
0000
C060
6060
6060
30C0
30C0
3180
1980
1B00
0F00
0E00
0600
0600
0C00
F800
F000
ENDCHAR
STARTCHAR 0178
ENCODING 376
SWIDTH 624 0
DWIDTH 13 0
BBX 13 19 0 0
BITMAP
0CC0
0CC0
0000
0000
C018
6018
7030
3060
1860
18C0
0CC0
0F80
0780
0300
0300
0300
0300
0300
0300
ENDCHAR
STARTCHAR 0179
ENCODING 377
SWIDTH 672 0
DWIDTH 14 0
BBX 12 19 1 0
BITMAP
0180
0300
0600
0000
FFF0
FFF0
0060
00C0
0180
0380
0700
0600
0C00
1C00
3800
3000
6000
FFF0
FFF0
ENDCHAR
STARTCHAR 017A
ENCODING 378
SWIDTH 528 0
DWIDTH 11 0
BBX 9 15 1 0
BITMAP
0700
0C00
1800
0000
FF80
FF80
0300
0600
0C00
1C00
3800
3000
6000
FF80
FF80
ENDCHAR
STARTCHAR 017B
ENCODING 379
SWIDTH 672 0
DWIDTH 14 0
BBX 12 19 1 0
BITMAP
0600
0600
0000
0000
FFF0
FFF0
0060
00C0
0180
0380
0700
0600
0C00
1C00
3800
3000
6000
FFF0
FFF0
ENDCHAR
STARTCHAR 017C
ENCODING 380
SWIDTH 528 0
DWIDTH 11 0
BBX 9 16 1 0
BITMAP
1800
1C00
0000
0000
0000
FF80
FF80
0300
0600
0C00
1C00
3800
3000
6000
FF80
FF80
ENDCHAR
STARTCHAR 017D
ENCODING 381
SWIDTH 672 0
DWIDTH 14 0
BBX 12 19 1 0
BITMAP
1980
0F00
0600
0000
FFF0
FFF0
0060
00C0
0180
0380
0700
0600
0C00
1C00
3800
3000
6000
FFF0
FFF0
ENDCHAR
STARTCHAR 017E
ENCODING 382
SWIDTH 528 0
DWIDTH 11 0
BBX 9 15 1 0
BITMAP
6300
3600
1C00
0000
FF80
FF80
0300
0600
0C00
1C00
3800
3000
6000
FF80
FF80
ENDCHAR
STARTCHAR 017F
ENCODING 383
SWIDTH 288 0
DWIDTH 6 0
BBX 7 16 1 0
BITMAP
1E
3E
30
60
60
E0
E0
60
60
60
60
60
60
60
60
60
ENDCHAR
STARTCHAR 018F
ENCODING 399
SWIDTH 816 0
DWIDTH 17 0
BBX 15 15 1 0
BITMAP
0FC0
3FF0
3038
001C
000C
0006
0006
FFFE
FFFE
C006
600C
600C
3838
1FF0
07C0
ENDCHAR
STARTCHAR 0192
ENCODING 402
SWIDTH 432 0
DWIDTH 9 0
BBX 12 20 -2 -4
BITMAP
00F0
01F0
0300
0300
0300
0FE0
0FE0
0600
0600
0600
0600
0600
0600
0600
0600
0C00
0C00
0C00
FC00
F000
ENDCHAR
STARTCHAR 01A0
ENCODING 416
SWIDTH 864 0
DWIDTH 18 0
BBX 15 18 1 0
BITMAP
0002
0002
0002
07FE
1FF8
383C
700C
6006
C006
C006
C006
C006
C006
6006
700C
383C
1FF8
07E0
ENDCHAR
STARTCHAR 01A1
ENCODING 417
SWIDTH 624 0
DWIDTH 13 0
BBX 11 14 1 0
BITMAP
0060
0020
0020
1FE0
3FC0
60C0
C060
C060
C060
C060
C060
60C0
3FC0
1F00
ENDCHAR
STARTCHAR 01AF
ENCODING 431
SWIDTH 816 0
DWIDTH 17 0
BBX 15 18 2 0
BITMAP
0004
0006
0004
C03C
C030
C030
C030
C030
C030
C030
C030
C030
C030
C030
6030
7060
3FE0
1F80
ENDCHAR
STARTCHAR 01B0
ENCODING 432
SWIDTH 672 0
DWIDTH 14 0
BBX 12 14 2 0
BITMAP
0030
0010
0030
C0E0
C0C0
C0C0
C0C0
C0C0
C0C0
C0C0
C0C0
E1C0
7FC0
3EC0
ENDCHAR
STARTCHAR 01B7
ENCODING 439
SWIDTH 624 0
DWIDTH 13 0
BBX 11 15 1 0
BITMAP
FFC0
FFC0
0180
0380
0300
0600
0E00
0F80
00C0
0060
0060
0060
C0C0
FFC0
3F00
ENDCHAR
STARTCHAR 01C4
ENCODING 452
SWIDTH 1440 0
DWIDTH 30 0
BBX 28 19 2 0
BITMAP
00003180
00001B00
00000E00
00000000
FF80FFE0
FFE0FFE0
C07000C0
C01801C0
C01C0380
C00C0300
C00C0600
C00C0E00
C00C1C00
C00C1800
C01C3000
C0186000
C070E000
FFE1FFF0
FF81FFF0
ENDCHAR
STARTCHAR 01C5
ENCODING 453
SWIDTH 1344 0
DWIDTH 28 0
BBX 25 16 2 0
BITMAP
00006300
FF803600
FFE01C00
C0700000
C0380000
C01CFF80
C00CFF80
C00C0300
C00C0600
C00C0E00
C00C1C00
C01C1800
C0183000
C0786000
FFE0FF80
FF80FF80
ENDCHAR
STARTCHAR 01C6
ENCODING 454
SWIDTH 1200 0
DWIDTH 25 0
BBX 23 16 1 0
BITMAP
00618C
0060D8
006070
006000
006000
1F63FE
7FE3FE
60E00C
C06018
C06030
C06070
C06060
C060C0
60E180
7FE3FE
1F63FE
ENDCHAR
STARTCHAR 01C7
ENCODING 455
SWIDTH 1104 0
DWIDTH 23 0
BBX 19 15 2 0
BITMAP
C00FE0
C00FE0
C00060
C00060
C00060
C00060
C00060
C00060
C00060
C00060
C00060
C00060
C010E0
FFDFC0
FFCF80
ENDCHAR
STARTCHAR 01C8
ENCODING 456
SWIDTH 864 0
DWIDTH 18 0
BBX 15 20 2 -4
BITMAP
000C
C00E
C004
C000
C000
C00C
C00C
C00C
C00C
C00C
C00C
C00C
C00C
C00C
FFCC
FFCC
000C
000C
007C
0078
ENDCHAR
STARTCHAR 01C9
ENCODING 457
SWIDTH 576 0
DWIDTH 12 0
BBX 8 20 2 -4
BITMAP
C3
C7
C2
C0
C0
C3
C3
C3
C3
C3
C3
C3
C3
C3
C3
C3
03
03
3E
3C
ENDCHAR
STARTCHAR 01CA
ENCODING 458
SWIDTH 1344 0
DWIDTH 28 0
BBX 24 15 2 0
BITMAP
C018FF
E018FF
F01807
F81807
D81807
CC1807
CE1807
C71807
C39807
C19807
C0D807
C0F806
C07986
C039FE
C01878
ENDCHAR
STARTCHAR 01CB
ENCODING 459
SWIDTH 1104 0
DWIDTH 23 0
BBX 19 20 2 -4
BITMAP
000060
C01860
E01840
F01800
F81800
D81860
DC1860
CE1860
C71860
C31860
C19860
C1D860
C0F860
C07860
C03860
C01860
000060
000060
0007C0
000780
ENDCHAR
STARTCHAR 01CC
ENCODING 460
SWIDTH 960 0
DWIDTH 20 0
BBX 17 20 2 -4
BITMAP
000100
000380
000300
000000
000000
DF0300
FF8300
E1C300
C0C300
C0C300
C0C300
C0C300
C0C300
C0C300
C0C300
C0C300
000300
000300
001F00
003E00
ENDCHAR
STARTCHAR 01CD
ENCODING 461
SWIDTH 720 0
DWIDTH 15 0
BBX 15 19 0 0
BITMAP
0C60
06C0
0380
0000
0380
0380
06C0
06C0
0660
0C60
0C70
1830
1830
3FF8
3FF8
300C
600C
600E
C006
ENDCHAR
STARTCHAR 01CE
ENCODING 462
SWIDTH 576 0
DWIDTH 12 0
BBX 10 15 1 0
BITMAP
3300
1E00
0C00
0000
3F00
FF80
4180
00C0
00C0
7FC0
E0C0
C0C0
C1C0
7FC0
3EC0
ENDCHAR
STARTCHAR 01D3
ENCODING 467
SWIDTH 768 0
DWIDTH 16 0
BBX 12 19 2 0
BITMAP
1880
0F00
0600
0000
C030
C030
C030
C030
C030
C030
C030
C030
C030
C030
C030
6030
7060
3FE0
1F80
ENDCHAR
STARTCHAR 01D4
ENCODING 468
SWIDTH 672 0
DWIDTH 14 0
BBX 10 15 2 0
BITMAP
3300
1E00
0C00
0000
C0C0
C0C0
C0C0
C0C0
C0C0
C0C0
C0C0
C0C0
E1C0
7FC0
3EC0
ENDCHAR
STARTCHAR 01E4
ENCODING 484
SWIDTH 816 0
DWIDTH 17 0
BBX 15 15 1 0
BITMAP
07E0
1FF8
3818
7000
6000
C000
C000
C018
C018
C1FE
61FE
7018
3818
1FF8
07E0
ENDCHAR
STARTCHAR 01E5
ENCODING 485
SWIDTH 720 0
DWIDTH 15 0
BBX 13 15 1 -4
BITMAP
1F20
7FA0
60E0
C060
C060
C060
C060
60E0
7FE0
1F60
0060
07F8
40E0
7FC0
1F80
ENDCHAR
STARTCHAR 01E6
ENCODING 486
SWIDTH 768 0
DWIDTH 16 0
BBX 13 19 1 0
BITMAP
0C60
06C0
0380
0000
07E0
1FF8
3818
7000
6000
C000
C000
C018
C018
C018
6018
7018
3818
1FF8
07E0
ENDCHAR
STARTCHAR 01E7
ENCODING 487
SWIDTH 672 0
DWIDTH 14 0
BBX 11 19 1 -4
BITMAP
1980
0F00
0600
0000
1F20
7FA0
60E0
C060
C060
C060
C060
E060
70E0
3FE0
0E60
0060
40E0
7FC0
1F80
ENDCHAR
STARTCHAR 01E8
ENCODING 488
SWIDTH 720 0
DWIDTH 15 0
BBX 13 19 2 0
BITMAP
1180
0F00
0600
0000
C030
C060
C0C0
C180
C300
C600
CE00
DE00
FF00
F380
E180
C0C0
C0E0
C070
C038
ENDCHAR
STARTCHAR 01E9
ENCODING 489
SWIDTH 624 0
DWIDTH 13 0
BBX 12 20 0 0
BITMAP
CC00
7800
3000
0000
3000
3000
3000
3000
3000
3070
30E0
31C0
3380
3700
3F00
3D80
31C0
30E0
3070
3030
ENDCHAR
STARTCHAR 01EA
ENCODING 490
SWIDTH 864 0
DWIDTH 18 0
BBX 15 19 1 -4
BITMAP
07E0
1FF8
383C
700C
6006
C006
C006
C006
C006
C006
6006
700C
381C
1FF8
07E0
0300
0200
0600
03C0
ENDCHAR
STARTCHAR 01EB
ENCODING 491
SWIDTH 624 0
DWIDTH 13 0
BBX 11 15 1 -4
BITMAP
1F00
3FC0
60C0
C060
C060
C060
C060
C060
60C0
3FC0
1F00
0400
0800
0800
0F00
ENDCHAR
STARTCHAR 01EE
ENCODING 494
SWIDTH 624 0
DWIDTH 13 0
BBX 11 19 1 0
BITMAP
3180
1E00
0C00
0000
FFC0
FFC0
0180
0380
0300
0600
0E00
0F80
00C0
0060
0060
0060
C0C0
FFC0
3F00
ENDCHAR
STARTCHAR 01EF
ENCODING 495
SWIDTH 528 0
DWIDTH 11 0
BBX 10 19 0 -4
BITMAP
6300
3E00
0C00
0000
FFC0
FFC0
0180
0300
0600
0C00
0C00
1F80
01C0
00C0
00C0
00C0
C1C0
FF80
3F00
ENDCHAR
STARTCHAR 01FA
ENCODING 506
SWIDTH 720 0
DWIDTH 15 0
BBX 15 22 0 0
BITMAP
0020
03C0
0240
0440
0640
0380
0000
0380
0380
06C0
06C0
0660
0C60
0C70
1830
1830
3FF8
3FF8
300C
600C
600E
C006
ENDCHAR
STARTCHAR 01FB
ENCODING 507
SWIDTH 576 0
DWIDTH 12 0
BBX 10 18 1 0
BITMAP
0180
0F00
1200
1200
1200
0C00
0000
3F00
FF80
4180
00C0
00C0
7FC0
E0C0
C0C0
C1C0
7FC0
3EC0
ENDCHAR
STARTCHAR 01FC
ENCODING 508
SWIDTH 1056 0
DWIDTH 22 0
BBX 21 19 0 0
BITMAP
000C00
001800
003000
000000
00FFF0
00FFF0
01B000
01B000
033000
063000
063FE0
0C3FE0
0C3000
1FF000
1FF000
303000
603000
603FF8
C03FF8
ENDCHAR
STARTCHAR 01FD
ENCODING 509
SWIDTH 1008 0
DWIDTH 21 0
BBX 19 15 1 0
BITMAP
007000
00E000
018000
000000
3E1F00
FFFF80
41E0C0
00C0C0
00C060
7FFFE0
E0C000
C0C000
C1E080
7F7FC0
3E1F00
ENDCHAR
STARTCHAR 01FE
ENCODING 510
SWIDTH 864 0
DWIDTH 18 0
BBX 15 20 1 -1
BITMAP
0060
00C0
0180
0004
07EC
1FF8
383C
702C
6066
C0C6
C086
C186
C306
C206
6406
7C0C
381C
1FF8
37E0
6000
ENDCHAR
STARTCHAR 01FF
ENCODING 511
SWIDTH 624 0
DWIDTH 13 0
BBX 11 16 1 -1
BITMAP
0380
0600
0C00
0040
1FC0
3FC0
61C0
C360
C260
C460
CC60
C860
70C0
3FC0
3F00
4000
ENDCHAR
STARTCHAR 0200
ENCODING 512
SWIDTH 720 0
DWIDTH 15 0
BBX 15 19 0 0
BITMAP
1980
0C80
04C0
0000
0380
0380
06C0
06C0
0660
0C60
0C70
1830
1830
3FF8
3FF8
300C
600C
600E
C006
ENDCHAR
STARTCHAR 0201
ENCODING 513
SWIDTH 576 0
DWIDTH 12 0
BBX 10 15 1 0
BITMAP
6C00
6600
3300
0000
3F00
FF80
4180
00C0
00C0
7FC0
E0C0
C0C0
C1C0
7FC0
3EC0
ENDCHAR
STARTCHAR 0202
ENCODING 514
SWIDTH 720 0
DWIDTH 15 0
BBX 15 19 0 0
BITMAP
03C0
0460
0C20
0000
0380
0380
06C0
06C0
0660
0C60
0C70
1830
1830
3FF8
3FF8
300C
600C
600E
C006
ENDCHAR
STARTCHAR 0203
ENCODING 515
SWIDTH 576 0
DWIDTH 12 0
BBX 10 16 1 0
BITMAP
1E00
3300
2100
0000
0000
3F00
FF80
4180
00C0
00C0
7FC0
E0C0
C0C0
C1C0
7FC0
3EC0
ENDCHAR
STARTCHAR 0204
ENCODING 516
SWIDTH 672 0
DWIDTH 14 0
BBX 11 19 2 0
BITMAP
6C00
3600
3300
0000
FFC0
FFC0
C000
C000
C000
C000
FFC0
FFC0
C000
C000
C000
C000
C000
FFE0
FFE0
ENDCHAR
STARTCHAR 0205
ENCODING 517
SWIDTH 624 0
DWIDTH 13 0
BBX 11 15 1 0
BITMAP
6E00
3600
1300
0000
1F00
7F80
60C0
C060
C060
FFE0
C000
C000
60C0
3FC0
1F00
ENDCHAR
STARTCHAR 0206
ENCODING 518
SWIDTH 672 0
DWIDTH 14 0
BBX 11 19 2 0
BITMAP
1E00
3100
2180
0000
FFC0
FFC0
C000
C000
C000
C000
FFC0
FFC0
C000
C000
C000
C000
C000
FFE0
FFE0
ENDCHAR
STARTCHAR 0207
ENCODING 519
SWIDTH 624 0
DWIDTH 13 0
BBX 11 16 1 0
BITMAP
1E00
3100
2180
0000
0000
1F00
7F80
60C0
C060
C060
FFE0
C000
C000
60C0
3FC0
1F00
ENDCHAR
STARTCHAR 0208
ENCODING 520
SWIDTH 288 0
DWIDTH 6 0
BBX 7 19 -1 0
BITMAP
D8
4C
66
00
18
18
18
18
18
18
18
18
18
18
18
18
18
18
18
ENDCHAR
STARTCHAR 0209
ENCODING 521
SWIDTH 288 0
DWIDTH 6 0
BBX 7 15 -2 0
BITMAP
CC
66
32
00
0C
0C
0C
0C
0C
0C
0C
0C
0C
0C
0C
ENDCHAR
STARTCHAR 020A
ENCODING 522
SWIDTH 288 0
DWIDTH 6 0
BBX 7 19 0 0
BITMAP
78
CC
86
00
30
30
30
30
30
30
30
30
30
30
30
30
30
30
30
ENDCHAR
STARTCHAR 020B
ENCODING 523
SWIDTH 288 0
DWIDTH 6 0
BBX 6 16 0 0
BITMAP
78
C8
8C
00
00
30
30
30
30
30
30
30
30
30
30
30
ENDCHAR
STARTCHAR 020C
ENCODING 524
SWIDTH 864 0
DWIDTH 18 0
BBX 15 19 1 0
BITMAP
1980
0D80
04C0
0000
07E0
1FF8
383C
700C
6006
C006
C006
C006
C006
C006
6006
700C
381C
1FF8
07E0
ENDCHAR
STARTCHAR 020D
ENCODING 525
SWIDTH 624 0
DWIDTH 13 0
BBX 11 15 1 0
BITMAP
6600
3200
1300
0000
1F00
3FC0
60C0
C060
C060
C060
C060
C060
60C0
3FC0
1F00
ENDCHAR
STARTCHAR 020E
ENCODING 526
SWIDTH 864 0
DWIDTH 18 0
BBX 15 19 1 0
BITMAP
03C0
0660
0C20
0000
07E0
1FF8
383C
700C
6006
C006
C006
C006
C006
C006
6006
700C
381C
1FF8
07E0
ENDCHAR
STARTCHAR 020F
ENCODING 527
SWIDTH 624 0
DWIDTH 13 0
BBX 11 16 1 0
BITMAP
0F00
1180
3180
0000
0000
1F00
3FC0
60C0
C060
C060
C060
C060
C060
60C0
3FC0
1F00
ENDCHAR
STARTCHAR 0210
ENCODING 528
SWIDTH 720 0
DWIDTH 15 0
BBX 12 19 2 0
BITMAP
6600
3300
1900
0000
FF80
FFC0
C060
C070
C030
C030
C030
C070
C0E0
FFC0
FF80
C1C0
C0C0
C060
C030
ENDCHAR
STARTCHAR 0211
ENCODING 529
SWIDTH 432 0
DWIDTH 9 0
BBX 8 15 0 0
BITMAP
CC
66
32
00
37
3F
38
30
30
30
30
30
30
30
30
ENDCHAR
STARTCHAR 0212
ENCODING 530
SWIDTH 720 0
DWIDTH 15 0
BBX 12 19 2 0
BITMAP
0F00
1180
3080
0000
FF80
FFC0
C060
C070
C030
C030
C030
C070
C0E0
FFC0
FF80
C1C0
C0C0
C060
C030
ENDCHAR
STARTCHAR 0213
ENCODING 531
SWIDTH 432 0
DWIDTH 9 0
BBX 6 16 2 0
BITMAP
78
CC
84
00
00
DC
FC
E0
C0
C0
C0
C0
C0
C0
C0
C0
ENDCHAR
STARTCHAR 0214
ENCODING 532
SWIDTH 768 0
DWIDTH 16 0
BBX 12 19 2 0
BITMAP
3600
1300
1980
0000
C030
C030
C030
C030
C030
C030
C030
C030
C030
C030
C030
6030
7060
3FE0
1F80
ENDCHAR
STARTCHAR 0215
ENCODING 533
SWIDTH 672 0
DWIDTH 14 0
BBX 10 15 2 0
BITMAP
CC00
6600
3300
0000
C0C0
C0C0
C0C0
C0C0
C0C0
C0C0
C0C0
C0C0
E1C0
7FC0
3EC0
ENDCHAR
STARTCHAR 0216
ENCODING 534
SWIDTH 768 0
DWIDTH 16 0
BBX 12 19 2 0
BITMAP
0F00
1980
10C0
0000
C030
C030
C030
C030
C030
C030
C030
C030
C030
C030
C030
6030
7060
3FE0
1F80
ENDCHAR
STARTCHAR 0217
ENCODING 535
SWIDTH 672 0
DWIDTH 14 0
BBX 10 16 2 0
BITMAP
1E00
3300
2100
0000
0000
C0C0
C0C0
C0C0
C0C0
C0C0
C0C0
C0C0
C0C0
E1C0
7FC0
3EC0
ENDCHAR
STARTCHAR 0218
ENCODING 536
SWIDTH 624 0
DWIDTH 13 0
BBX 11 21 1 -6
BITMAP
1F80
7FC0
6040
C000
C000
E000
7000
3F00
0FC0
00E0
0060
0060
C0E0
FFC0
3F00
0000
0000
0600
0600
0400
0400
ENDCHAR
STARTCHAR 0219
ENCODING 537
SWIDTH 480 0
DWIDTH 10 0
BBX 9 17 1 -6
BITMAP
3E00
FF00
C100
C000
E000
7E00
0F00
0180
8180
FF00
7E00
0000
0000
1800
1800
0800
1000
ENDCHAR
STARTCHAR 021A
ENCODING 538
SWIDTH 576 0
DWIDTH 12 0
BBX 12 21 0 -6
BITMAP
FFF0
FFF0
0600
0600
0600
0600
0600
0600
0600
0600
0600
0600
0600
0600
0600
0000
0000
0600
0600
0200
0400
ENDCHAR
STARTCHAR 021B
ENCODING 539
SWIDTH 432 0
DWIDTH 9 0
BBX 8 19 0 -6
BITMAP
30
30
FE
FE
30
30
30
30
30
30
30
1F
0F
00
00
0C
0C
04
08
ENDCHAR
STARTCHAR 021E
ENCODING 542
SWIDTH 816 0
DWIDTH 17 0
BBX 13 19 2 0
BITMAP
18C0
0D80
0700
0000
C018
C018
C018
C018
C018
C018
FFF8
FFF8
C018
C018
C018
C018
C018
C018
C018
ENDCHAR
STARTCHAR 021F
ENCODING 543
SWIDTH 672 0
DWIDTH 14 0
BBX 12 20 0 0
BITMAP
CC00
7800
3000
0000
3000
3000
3000
3000
3000
37C0
3FE0
3870
3030
3030
3030
3030
3030
3030
3030
3030
ENDCHAR
STARTCHAR 022A
ENCODING 554
SWIDTH 864 0
DWIDTH 18 0
BBX 15 21 1 0
BITMAP
0FE0
0000
0000
0660
0660
0000
07E0
1FF8
383C
700C
6006
C006
C006
C006
C006
C006
6006
700C
381C
1FF8
07E0
ENDCHAR
STARTCHAR 022B
ENCODING 555
SWIDTH 624 0
DWIDTH 13 0
BBX 11 17 1 0
BITMAP
3F80
0000
1900
1900
0000
0000
1F00
3FC0
60C0
C060
C060
C060
C060
C060
60C0
3FC0
1F00
ENDCHAR
STARTCHAR 022C
ENCODING 556
SWIDTH 864 0
DWIDTH 18 0
BBX 15 21 1 0
BITMAP
0FE0
0000
0000
0720
0CE0
0000
07E0
1FF8
383C
700C
6006
C006
C006
C006
C006
C006
6006
700C
381C
1FF8
07E0
ENDCHAR
STARTCHAR 022D
ENCODING 557
SWIDTH 624 0
DWIDTH 13 0
BBX 11 17 1 0
BITMAP
3F80
0000
1C80
2780
0000
0000
1F00
3FC0
60C0
C060
C060
C060
C060
C060
60C0
3FC0
1F00
ENDCHAR
STARTCHAR 0230
ENCODING 560
SWIDTH 864 0
DWIDTH 18 0
BBX 15 21 1 0
BITMAP
0FE0
0000
0000
0180
0180
0000
07E0
1FF8
383C
700C
6006
C006
C006
C006
C006
C006
6006
700C
381C
1FF8
07E0
ENDCHAR
STARTCHAR 0231
ENCODING 561
SWIDTH 624 0
DWIDTH 13 0
BBX 11 17 1 0
BITMAP
3F80
0000
0600
0600
0000
0000
1F00
3FC0
60C0
C060
C060
C060
C060
C060
60C0
3FC0
1F00
ENDCHAR
STARTCHAR 0232
ENCODING 562
SWIDTH 624 0
DWIDTH 13 0
BBX 13 18 0 0
BITMAP
1FC0
0000
0000
C018
6018
7030
3060
1860
18C0
0CC0
0F80
0780
0300
0300
0300
0300
0300
0300
ENDCHAR
STARTCHAR 0233
ENCODING 563
SWIDTH 576 0
DWIDTH 12 0
BBX 11 19 0 -4
BITMAP
3F80
0000
0000
0000
C060
6060
6060
30C0
30C0
3180
1980
1B00
0F00
0E00
0600
0600
0C00
F800
F000
ENDCHAR
STARTCHAR 0237
ENCODING 567
SWIDTH 288 0
DWIDTH 6 0
BBX 6 15 -2 -4
BITMAP
0C
0C
0C
0C
0C
0C
0C
0C
0C
0C
0C
0C
0C
F8
F0
ENDCHAR
STARTCHAR 0259
ENCODING 601
SWIDTH 624 0
DWIDTH 13 0
BBX 11 11 1 0
BITMAP
3F00
7F80
41C0
00C0
0060
FFE0
C060
C060
60C0
7F80
1F00
ENDCHAR
STARTCHAR 0292
ENCODING 658
SWIDTH 528 0
DWIDTH 11 0
BBX 10 15 0 -4
BITMAP
FFC0
FFC0
0180
0300
0600
0C00
0C00
1F80
01C0
00C0
00C0
00C0
C1C0
FF80
3F00
ENDCHAR
STARTCHAR 02B9
ENCODING 697
SWIDTH 192 0
DWIDTH 4 0
BBX 2 6 1 9
BITMAP
C0
C0
C0
C0
C0
C0
ENDCHAR
STARTCHAR 02BA
ENCODING 698
SWIDTH 384 0
DWIDTH 8 0
BBX 6 6 1 9
BITMAP
CC
CC
CC
CC
CC
CC
ENDCHAR
STARTCHAR 02BB
ENCODING 699
SWIDTH 288 0
DWIDTH 6 0
BBX 3 6 1 12
BITMAP
20
60
40
60
E0
60
ENDCHAR
STARTCHAR 02BC
ENCODING 700
SWIDTH 192 0
DWIDTH 4 0
BBX 2 5 1 10
BITMAP
C0
80
80
80
80
ENDCHAR
STARTCHAR 02BE
ENCODING 702
SWIDTH 624 0
DWIDTH 13 0
BBX 3 5 6 12
BITMAP
C0
40
20
40
C0
ENDCHAR
STARTCHAR 02BF
ENCODING 703
SWIDTH 624 0
DWIDTH 13 0
BBX 2 5 4 12
BITMAP
40
80
80
80
40
ENDCHAR
STARTCHAR 02C6
ENCODING 710
SWIDTH 624 0
DWIDTH 13 0
BBX 7 3 3 12
BITMAP
38
6C
C6
ENDCHAR
STARTCHAR 02C7
ENCODING 711
SWIDTH 624 0
DWIDTH 13 0
BBX 6 3 3 12
BITMAP
C4
78
30
ENDCHAR
STARTCHAR 02C8
ENCODING 712
SWIDTH 192 0
DWIDTH 4 0
BBX 1 4 1 11
BITMAP
80
80
80
80
ENDCHAR
STARTCHAR 02C9
ENCODING 713
SWIDTH 624 0
DWIDTH 13 0
BBX 7 1 3 14
BITMAP
FE
ENDCHAR
STARTCHAR 02CA
ENCODING 714
SWIDTH 624 0
DWIDTH 13 0
BBX 4 3 5 12
BITMAP
30
60
C0
ENDCHAR
STARTCHAR 02CB
ENCODING 715
SWIDTH 624 0
DWIDTH 13 0
BBX 5 3 3 12
BITMAP
C0
70
18
ENDCHAR
STARTCHAR 02CC
ENCODING 716
SWIDTH 192 0
DWIDTH 4 0
BBX 1 4 1 -5
BITMAP
80
80
80
80
ENDCHAR
STARTCHAR 02D8
ENCODING 728
SWIDTH 624 0
DWIDTH 13 0
BBX 7 3 3 13
BITMAP
86
C4
78
ENDCHAR
STARTCHAR 02D9
ENCODING 729
SWIDTH 624 0
DWIDTH 13 0
BBX 2 2 5 14
BITMAP
C0
C0
ENDCHAR
STARTCHAR 02DA
ENCODING 730
SWIDTH 624 0
DWIDTH 13 0
BBX 5 5 4 12
BITMAP
70
90
88
90
70
ENDCHAR
STARTCHAR 02DB
ENCODING 731
SWIDTH 624 0
DWIDTH 13 0
BBX 5 6 2 -5
BITMAP
10
60
40
C0
C0
78
ENDCHAR
STARTCHAR 02DC
ENCODING 732
SWIDTH 624 0
DWIDTH 13 0
BBX 7 3 3 13
BITMAP
40
B6
9C
ENDCHAR
STARTCHAR 02DD
ENCODING 733
SWIDTH 624 0
DWIDTH 13 0
BBX 7 3 4 12
BITMAP
66
CC
98
ENDCHAR
STARTCHAR 0300
ENCODING 768
SWIDTH 0 0
DWIDTH 0 0
BBX 4 3 -9 12
BITMAP
C0
60
30
ENDCHAR
STARTCHAR 0301
ENCODING 769
SWIDTH 0 0
DWIDTH 0 0
BBX 5 3 -8 12
BITMAP
38
70
C0
ENDCHAR
STARTCHAR 0302
ENCODING 770
SWIDTH 0 0
DWIDTH 0 0
BBX 7 3 -10 12
BITMAP
38
6C
C6
ENDCHAR
STARTCHAR 0303
ENCODING 771
SWIDTH 0 0
DWIDTH 0 0
BBX 7 3 -10 13
BITMAP
40
F2
8E
ENDCHAR
STARTCHAR 0304
ENCODING 772
SWIDTH 0 0
DWIDTH 0 0
BBX 7 1 -10 14
BITMAP
FE
ENDCHAR
STARTCHAR 0306
ENCODING 774
SWIDTH 0 0
DWIDTH 0 0
BBX 7 3 -10 13
BITMAP
C2
46
7C
ENDCHAR
STARTCHAR 0307
ENCODING 775
SWIDTH 0 0
DWIDTH 0 0
BBX 2 2 -7 14
BITMAP
C0
C0
ENDCHAR
STARTCHAR 0308
ENCODING 776
SWIDTH 0 0
DWIDTH 0 0
BBX 6 2 -9 13
BITMAP
CC
CC
ENDCHAR
STARTCHAR 0309
ENCODING 777
SWIDTH 0 0
DWIDTH 0 0
BBX 4 4 -8 13
BITMAP
E0
30
10
60
ENDCHAR
STARTCHAR 030A
ENCODING 778
SWIDTH 0 0
DWIDTH 0 0
BBX 5 5 -9 12
BITMAP
70
48
88
48
70
ENDCHAR
STARTCHAR 030B
ENCODING 779
SWIDTH 0 0
DWIDTH 0 0
BBX 7 3 -9 12
BITMAP
36
64
CC
ENDCHAR
STARTCHAR 030C
ENCODING 780
SWIDTH 0 0
DWIDTH 0 0
BBX 6 3 -9 12
BITMAP
8C
78
30
ENDCHAR
STARTCHAR 030F
ENCODING 783
SWIDTH 0 0
DWIDTH 0 0
BBX 7 3 -11 12
BITMAP
CC
66
32
ENDCHAR
STARTCHAR 0311
ENCODING 785
SWIDTH 0 0
DWIDTH 0 0
BBX 7 3 -10 13
BITMAP
3C
66
C2
ENDCHAR
STARTCHAR 0312
ENCODING 786
SWIDTH 0 0
DWIDTH 0 0
BBX 2 4 -7 12
BITMAP
C0
80
C0
C0
ENDCHAR
STARTCHAR 031B
ENCODING 795
SWIDTH 0 0
DWIDTH 0 0
BBX 4 5 -7 9
BITMAP
20
30
20
E0
80
ENDCHAR
STARTCHAR 0323
ENCODING 803
SWIDTH 0 0
DWIDTH 0 0
BBX 2 2 -7 -4
BITMAP
C0
C0
ENDCHAR
STARTCHAR 0324
ENCODING 804
SWIDTH 0 0
DWIDTH 0 0
BBX 5 2 -9 -4
BITMAP
C8
C8
ENDCHAR
STARTCHAR 0326
ENCODING 806
SWIDTH 0 0
DWIDTH 0 0
BBX 2 4 -7 -6
BITMAP
C0
C0
80
80
ENDCHAR
STARTCHAR 0327
ENCODING 807
SWIDTH 0 0
DWIDTH 0 0
BBX 4 4 -8 -4
BITMAP
40
60
30
E0
ENDCHAR
STARTCHAR 0328
ENCODING 808
SWIDTH 0 0
DWIDTH 0 0
BBX 4 6 -10 -5
BITMAP
20
60
C0
80
C0
70
ENDCHAR
STARTCHAR 032E
ENCODING 814
SWIDTH 0 0
DWIDTH 0 0
BBX 7 3 -10 -4
BITMAP
C2
46
3C
ENDCHAR
STARTCHAR 0331
ENCODING 817
SWIDTH 0 0
DWIDTH 0 0
BBX 7 1 -10 -3
BITMAP
FE
ENDCHAR
STARTCHAR 0335
ENCODING 821
SWIDTH 0 0
DWIDTH 0 0
BBX 8 1 -10 9
BITMAP
FF
ENDCHAR
STARTCHAR 0336
ENCODING 822
SWIDTH 0 0
DWIDTH 0 0
BBX 17 2 -18 8
BITMAP
FFFF80
FFFF80
ENDCHAR
STARTCHAR 0337
ENCODING 823
SWIDTH 0 0
DWIDTH 0 0
BBX 6 5 -8 6
BITMAP
04
0C
18
70
C0
ENDCHAR
STARTCHAR 0338
ENCODING 824
SWIDTH 0 0
DWIDTH 0 0
BBX 9 14 -11 -1
BITMAP
0080
0080
0100
0200
0200
0400
0C00
0800
1000
3000
2000
4000
C000
8000
ENDCHAR
STARTCHAR 0394
ENCODING 916
SWIDTH 720 0
DWIDTH 15 0
BBX 15 15 0 0
BITMAP
0380
0380
06C0
06C0
0660
0C60
0C70
1830
1830
3018
3018
300C
600C
7FFE
FFFE
ENDCHAR
STARTCHAR 03A9
ENCODING 937
SWIDTH 912 0
DWIDTH 19 0
BBX 19 15 0 0
BITMAP
03F000
0FFC00
1E0E00
180700
300380
300180
300180
300180
300180
300180
300300
180300
0C0600
FE1FE0
FE1FE0
ENDCHAR
STARTCHAR 03BC
ENCODING 956
SWIDTH 672 0
DWIDTH 14 0
BBX 10 15 2 -4
BITMAP
C0C0
C0C0
C0C0
C0C0
C0C0
C0C0
C0C0
C0C0
E1C0
FFC0
DEC0
C000
C000
C000
C000
ENDCHAR
STARTCHAR 03C0
ENCODING 960
SWIDTH 720 0
DWIDTH 15 0
BBX 15 11 0 0
BITMAP
7FFE
FFFE
C630
CC30
CC30
0C30
0C30
0C30
0C30
0C30
0C30
ENDCHAR
STARTCHAR 0400
ENCODING 1024
SWIDTH 672 0
DWIDTH 14 0
BBX 11 19 2 0
BITMAP
3800
0C00
0600
0000
FFE0
FFE0
C000
C000
C000
C000
FFC0
FFC0
C000
C000
C000
C000
C000
FFE0
FFE0
ENDCHAR
STARTCHAR 0401
ENCODING 1025
SWIDTH 672 0
DWIDTH 14 0
BBX 11 19 2 0
BITMAP
1300
3300
0000
0000
FFE0
FFE0
C000
C000
C000
C000
FFC0
FFC0
C000
C000
C000
C000
C000
FFE0
FFE0
ENDCHAR
STARTCHAR 0402
ENCODING 1026
SWIDTH 816 0
DWIDTH 17 0
BBX 17 15 0 0
BITMAP
FFF800
FFF800
060000
060000
060000
060000
06FC00
07FF00
070300
060300
060380
060300
060300
063F00
063C00
ENDCHAR
STARTCHAR 0403
ENCODING 1027
SWIDTH 576 0
DWIDTH 12 0
BBX 10 19 2 0
BITMAP
0300
0600
0800
0000
FFC0
FFC0
C000
C000
C000
C000
C000
C000
C000
C000
C000
C000
C000
C000
C000
ENDCHAR
STARTCHAR 0404
ENCODING 1028
SWIDTH 720 0
DWIDTH 15 0
BBX 13 15 1 0
BITMAP
07C0
1FF0
3838
7000
6000
E000
C000
FF80
FF80
C000
6000
7000
3838
1FF0
07C0
ENDCHAR
STARTCHAR 0405
ENCODING 1029
SWIDTH 624 0
DWIDTH 13 0
BBX 11 15 1 0
BITMAP
1F80
7FE0
6040
E000
C000
E000
7000
3F00
0FC0
00E0
0060
0060
C060
FFC0
3F80
ENDCHAR
STARTCHAR 0406
ENCODING 1030
SWIDTH 336 0
DWIDTH 7 0
BBX 2 15 2 0
BITMAP
C0
C0
C0
C0
C0
C0
C0
C0
C0
C0
C0
C0
C0
C0
C0
ENDCHAR
STARTCHAR 0407
ENCODING 1031
SWIDTH 288 0
DWIDTH 6 0
BBX 6 19 0 0
BITMAP
CC
CC
00
00
30
30
30
30
30
30
30
30
30
30
30
30
30
30
30
ENDCHAR
STARTCHAR 0408
ENCODING 1032
SWIDTH 528 0
DWIDTH 11 0
BBX 8 15 1 0
BITMAP
7F
7F
03
03
03
03
03
03
03
03
03
03
C7
FE
7C
ENDCHAR
STARTCHAR 0409
ENCODING 1033
SWIDTH 1200 0
DWIDTH 25 0
BBX 24 15 0 0
BITMAP
0FFC00
0FFC00
0C0C00
0C0C00
0C0C00
0C0FF0
0C0FFC
080C0E
080C07
180C03
180C03
180C03
380C06
F00FFE
E00FF8
ENDCHAR
STARTCHAR 040A
ENCODING 1034
SWIDTH 1200 0
DWIDTH 25 0
BBX 22 15 2 0
BITMAP
C03000
C03000
C03000
C03000
C03000
C03000
FFFFE0
FFFFF8
C03018
C0300C
C0300C
C0300C
C03018
C03FF8
C03FE0
ENDCHAR
STARTCHAR 040B
ENCODING 1035
SWIDTH 864 0
DWIDTH 18 0
BBX 17 15 0 0
BITMAP
FFF800
FFF800
060000
060000
060000
060000
06FC00
07FE00
070700
060300
060380
060380
060380
060380
060380
ENDCHAR
STARTCHAR 040C
ENCODING 1036
SWIDTH 720 0
DWIDTH 15 0
BBX 12 19 2 0
BITMAP
0380
0600
0C00
0000
C030
C060
C0C0
C1C0
C180
C300
FE00
FE00
C300
C380
C180
C0C0
C0E0
C060
C030
ENDCHAR
STARTCHAR 040D
ENCODING 1037
SWIDTH 816 0
DWIDTH 17 0
BBX 13 19 2 0
BITMAP
1C00
0600
0300
0000
C018
C038
C078
C0F8
C0D8
C198
C398
C718
C618
CC18
DC18
F818
F018
E018
E018
ENDCHAR
STARTCHAR 040E
ENCODING 1038
SWIDTH 672 0
DWIDTH 14 0
BBX 13 19 1 0
BITMAP
10C0
1980
0F00
0000
C018
C030
6030
6060
3060
30C0
18C0
1980
0D80
0F00
0700
0600
0E00
7C00
7800
ENDCHAR
STARTCHAR 040F
ENCODING 1039
SWIDTH 816 0
DWIDTH 17 0
BBX 13 18 2 -3
BITMAP
C038
C038
C038
C038
C038
C038
C038
C038
C038
C038
C038
C038
C038
FFF8
FFF8
0600
0600
0600
ENDCHAR
STARTCHAR 0410
ENCODING 1040
SWIDTH 768 0
DWIDTH 16 0
BBX 15 15 0 0
BITMAP
0180
03C0
03C0
06C0
0660
0C60
0C30
0C30
1818
1FF8
3FFC
300C
600C
6006
E006
ENDCHAR
STARTCHAR 0411
ENCODING 1041
SWIDTH 720 0
DWIDTH 15 0
BBX 12 15 2 0
BITMAP
FFE0
FFE0
C000
C000
C000
C000
FFC0
FFE0
C070
C030
C030
C030
C070
FFE0
FFC0
ENDCHAR
STARTCHAR 0412
ENCODING 1042
SWIDTH 768 0
DWIDTH 16 0
BBX 12 15 2 0
BITMAP
FF80
FFE0
C060
C070
C070
C060
FFC0
FFE0
C070
C030
C030
C030
C030
FFE0
FFC0
ENDCHAR
STARTCHAR 0413
ENCODING 1043
SWIDTH 576 0
DWIDTH 12 0
BBX 10 15 2 0
BITMAP
FFC0
FFC0
C000
C000
C000
C000
C000
C000
C000
C000
C000
C000
C000
C000
C000
ENDCHAR
STARTCHAR 0414
ENCODING 1044
SWIDTH 816 0
DWIDTH 17 0
BBX 16 18 0 -3
BITMAP
0FFC
0FFC
0C0C
080C
080C
080C
080C
180C
180C
180C
180C
180C
300C
FFFF
FFFF
C003
C003
C003
ENDCHAR
STARTCHAR 0415
ENCODING 1045
SWIDTH 672 0
DWIDTH 14 0
BBX 11 15 2 0
BITMAP
FFE0
FFE0
C000
C000
C000
C000
FFC0
FFC0
C000
C000
C000
C000
C000
FFE0
FFE0
ENDCHAR
STARTCHAR 0416
ENCODING 1046
SWIDTH 1008 0
DWIDTH 21 0
BBX 20 15 1 0
BITMAP
C06060
606060
7060C0
306180
186180
186300
0FFE00
0FFF00
1C6300
186380
306180
7060C0
6060E0
E06060
C06070
ENDCHAR
STARTCHAR 0417
ENCODING 1047
SWIDTH 624 0
DWIDTH 13 0
BBX 11 15 1 0
BITMAP
3F00
FF80
40C0
00E0
00E0
00C0
3F80
3F80
00C0
0060
0060
0060
C0E0
FFC0
3F00
ENDCHAR
STARTCHAR 0418
ENCODING 1048
SWIDTH 816 0
DWIDTH 17 0
BBX 13 15 2 0
BITMAP
C018
C038
C078
C0F8
C0D8
C198
C398
C718
C618
CC18
DC18
F818
F018
E018
E018
ENDCHAR
STARTCHAR 0419
ENCODING 1049
SWIDTH 816 0
DWIDTH 17 0
BBX 13 19 2 0
BITMAP
1040
18C0
0F80
0000
C018
C038
C078
C0F8
C0D8
C198
C398
C718
C618
CC18
DC18
F818
F018
E018
E018
ENDCHAR
STARTCHAR 041A
ENCODING 1050
SWIDTH 720 0
DWIDTH 15 0
BBX 12 15 2 0
BITMAP
C030
C060
C0C0
C1C0
C180
C300
FE00
FE00
C300
C380
C180
C0C0
C0E0
C060
C030
ENDCHAR
STARTCHAR 041B
ENCODING 1051
SWIDTH 768 0
DWIDTH 16 0
BBX 14 15 0 0
BITMAP
0FFC
0FFC
0C0C
0C0C
0C0C
0C0C
0C0C
080C
080C
180C
180C
180C
380C
F00C
E00C
ENDCHAR
STARTCHAR 041C
ENCODING 1052
SWIDTH 960 0
DWIDTH 20 0
BBX 16 15 2 0
BITMAP
C003
E007
E007
F00F
F81F
D81B
CC33
CC33
C663
C663
C3C3
C183
C183
C003
C003
ENDCHAR
STARTCHAR 041D
ENCODING 1053
SWIDTH 816 0
DWIDTH 17 0
BBX 13 15 2 0
BITMAP
C018
C018
C018
C018
C018
C018
FFF8
FFF8
C018
C018
C018
C018
C018
C018
C018
ENDCHAR
STARTCHAR 041E
ENCODING 1054
SWIDTH 864 0
DWIDTH 18 0
BBX 16 15 1 0
BITMAP
07E0
1FF8
381C
700C
6006
C006
C006
C007
C006
C006
6006
700C
381C
1FF8
07E0
ENDCHAR
STARTCHAR 041F
ENCODING 1055
SWIDTH 816 0
DWIDTH 17 0
BBX 13 15 2 0
BITMAP
FFF8
FFF8
C018
C018
C018
C018
C018
C018
C018
C018
C018
C018
C018
C018
C018
ENDCHAR
STARTCHAR 0420
ENCODING 1056
SWIDTH 720 0
DWIDTH 15 0
BBX 12 15 2 0
BITMAP
FF80
FFE0
C060
C030
C030
C030
C030
C070
C0E0
FFC0
FF00
C000
C000
C000
C000
ENDCHAR
STARTCHAR 0421
ENCODING 1057
SWIDTH 720 0
DWIDTH 15 0
BBX 13 15 1 0
BITMAP
07E0
1FF8
3818
7000
6000
C000
C000
C000
C000
C000
6000
7000
3818
1FF8
07E0
ENDCHAR
STARTCHAR 0422
ENCODING 1058
SWIDTH 624 0
DWIDTH 13 0
BBX 12 15 0 0
BITMAP
FFF0
FFF0
0600
0600
0600
0600
0600
0600
0600
0600
0600
0600
0600
0600
0600
ENDCHAR
STARTCHAR 0423
ENCODING 1059
SWIDTH 672 0
DWIDTH 14 0
BBX 13 15 1 0
BITMAP
C018
C030
6030
6060
3060
30C0
18C0
1980
0D80
0F00
0700
0600
0E00
7C00
7800
ENDCHAR
STARTCHAR 0424
ENCODING 1060
SWIDTH 912 0
DWIDTH 19 0
BBX 17 16 1 -1
BITMAP
00C000
03E000
1FFC00
38CF00
60C300
C0C180
C0C180
C0C180
C0C180
C0C180
60C380
70C700
3FFE00
0FF800
00C000
00C000
ENDCHAR
STARTCHAR 0425
ENCODING 1061
SWIDTH 672 0
DWIDTH 14 0
BBX 12 15 1 0
BITMAP
C070
6060
70C0
39C0
1980
1F00
0F00
0600
0F00
1F80
3980
30C0
60E0
E070
C030
ENDCHAR
STARTCHAR 0426
ENCODING 1062
SWIDTH 816 0
DWIDTH 17 0
BBX 15 18 2 -3
BITMAP
C038
C038
C038
C038
C038
C038
C038
C038
C038
C038
C038
C038
C038
FFFE
FFFE
0006
0006
0006
ENDCHAR
STARTCHAR 0427
ENCODING 1063
SWIDTH 720 0
DWIDTH 15 0
BBX 12 15 1 0
BITMAP
C030
C030
C030
C030
C030
C030
E030
6070
7FF0
1FB0
0030
0030
0030
0030
0030
ENDCHAR
STARTCHAR 0428
ENCODING 1064
SWIDTH 1104 0
DWIDTH 23 0
BBX 19 15 2 0
BITMAP
C0C0E0
C0C0E0
C0C0E0
C0C0E0
C0C0E0
C0C0E0
C0C0E0
C0C0E0
C0C0E0
C0C0E0
C0C0E0
C0C0E0
C0C0E0
FFFFE0
FFFFE0
ENDCHAR
STARTCHAR 0429
ENCODING 1065
SWIDTH 1104 0
DWIDTH 23 0
BBX 21 18 2 -3
BITMAP
C0C0E0
C0C0E0
C0C0E0
C0C0E0
C0C0E0
C0C0E0
C0C0E0
C0C0E0
C0C0E0
C0C0E0
C0C0E0
C0C0E0
C0C0E0
FFFFF8
FFFFF8
000018
000018
000018
ENDCHAR
STARTCHAR 042A
ENCODING 1066
SWIDTH 816 0
DWIDTH 17 0
BBX 16 15 0 0
BITMAP
FE00
FE00
0600
0600
0600
07F8
07FE
0607
0603
0603
0603
0603
0607
07FE
07FC
ENDCHAR
STARTCHAR 042B
ENCODING 1067
SWIDTH 1008 0
DWIDTH 21 0
BBX 16 15 2 0
BITMAP
C003
C003
C003
C003
C003
FF03
FFE3
C063
C033
C033
C033
C033
C073
FFE3
FF83
ENDCHAR
STARTCHAR 042C
ENCODING 1068
SWIDTH 720 0
DWIDTH 15 0
BBX 12 15 2 0
BITMAP
C000
C000
C000
C000
C000
FF00
FFE0
C060
C030
C030
C030
C030
C070
FFE0
FF80
ENDCHAR
STARTCHAR 042D
ENCODING 1069
SWIDTH 720 0
DWIDTH 15 0
BBX 13 15 1 0
BITMAP
3F00
FFC0
C0E0
0070
0030
0030
1FF8
1FF8
0038
0030
0030
0070
C0E0
FFC0
3F00
ENDCHAR
STARTCHAR 042E
ENCODING 1070
SWIDTH 1104 0
DWIDTH 23 0
BBX 20 15 2 0
BITMAP
C03E00
C0FF80
C1C1C0
C300E0
C70060
C60070
FE0030
FE0030
C60030
C60060
C30060
C380E0
C1C1C0
C0FF80
C03E00
ENDCHAR
STARTCHAR 042F
ENCODING 1071
SWIDTH 720 0
DWIDTH 15 0
BBX 12 15 1 0
BITMAP
1FF0
3FF0
7030
E030
C030
C030
C030
6030
7030
3FF0
1FF0
1830
3030
6030
6030
ENDCHAR
STARTCHAR 0430
ENCODING 1072
SWIDTH 576 0
DWIDTH 12 0
BBX 10 11 1 0
BITMAP
3E00
FF80
4180
00C0
00C0
7FC0
C0C0
C0C0
C1C0
7FC0
3CC0
ENDCHAR
STARTCHAR 0431
ENCODING 1073
SWIDTH 672 0
DWIDTH 14 0
BBX 12 16 1 0
BITMAP
01E0
0FE0
3E00
3000
6000
6700
DFC0
F0E0
E070
E030
E030
6030
6070
7060
3FC0
0F80
ENDCHAR
STARTCHAR 0432
ENCODING 1074
SWIDTH 624 0
DWIDTH 13 0
BBX 10 11 2 0
BITMAP
FF00
FF80
C180
C180
C300
FF00
C180
C0C0
C1C0
FF80
FF00
ENDCHAR
STARTCHAR 0433
ENCODING 1075
SWIDTH 480 0
DWIDTH 10 0
BBX 8 11 2 0
BITMAP
FF
FF
C0
C0
C0
C0
C0
C0
C0
C0
C0
ENDCHAR
STARTCHAR 0434
ENCODING 1076
SWIDTH 672 0
DWIDTH 14 0
BBX 13 14 0 -3
BITMAP
1FE0
1FE0
1860
1860
1860
1060
3060
3060
3060
FFF8
FFF8
C018
C018
C018
ENDCHAR
STARTCHAR 0435
ENCODING 1077
SWIDTH 624 0
DWIDTH 13 0
BBX 11 11 1 0
BITMAP
1F00
3F80
60C0
C060
C060
FFE0
C000
C000
60C0
3FC0
1F00
ENDCHAR
STARTCHAR 0436
ENCODING 1078
SWIDTH 864 0
DWIDTH 18 0
BBX 16 11 1 0
BITMAP
C183
E186
618E
318C
3198
1FF8
3FF8
318C
618E
E186
C183
ENDCHAR
STARTCHAR 0437
ENCODING 1079
SWIDTH 528 0
DWIDTH 11 0
BBX 9 11 1 0
BITMAP
7E00
FF00
0180
0180
0700
1F00
0180
0180
8180
FF00
7E00
ENDCHAR
STARTCHAR 0438
ENCODING 1080
SWIDTH 672 0
DWIDTH 14 0
BBX 11 11 2 0
BITMAP
C0E0
C1E0
C1E0
C360
C660
CC60
DC60
F860
F060
E060
C060
ENDCHAR
STARTCHAR 0439
ENCODING 1081
SWIDTH 672 0
DWIDTH 14 0
BBX 11 16 2 0
BITMAP
2100
3300
1E00
0000
0000
C0E0
C1E0
C1E0
C360
C660
CC60
DC60
F860
F060
E060
C060
ENDCHAR
STARTCHAR 043A
ENCODING 1082
SWIDTH 576 0
DWIDTH 12 0
BBX 10 11 2 0
BITMAP
C1C0
C180
C300
C600
C600
FC00
FE00
C600
C300
C180
C1C0
ENDCHAR
STARTCHAR 043B
ENCODING 1083
SWIDTH 624 0
DWIDTH 13 0
BBX 11 11 0 0
BITMAP
1FE0
1FE0
1860
1860
1860
1060
1060
3060
3060
F060
E060
ENDCHAR
STARTCHAR 043C
ENCODING 1084
SWIDTH 816 0
DWIDTH 17 0
BBX 13 11 2 0
BITMAP
C038
E038
E078
F078
D8D8
D998
CD98
CF18
C618
C218
C018
ENDCHAR
STARTCHAR 043D
ENCODING 1085
SWIDTH 672 0
DWIDTH 14 0
BBX 10 11 2 0
BITMAP
C0C0
C0C0
C0C0
C0C0
C0C0
FFC0
FFC0
C0C0
C0C0
C0C0
C0C0
ENDCHAR
STARTCHAR 043E
ENCODING 1086
SWIDTH 624 0
DWIDTH 13 0
BBX 11 11 1 0
BITMAP
1F00
3FC0
60E0
C060
C060
C060
C060
C060
60E0
3FC0
1F00
ENDCHAR
STARTCHAR 043F
ENCODING 1087
SWIDTH 672 0
DWIDTH 14 0
BBX 10 11 2 0
BITMAP
FFC0
FFC0
C0C0
C0C0
C0C0
C0C0
C0C0
C0C0
C0C0
C0C0
C0C0
ENDCHAR
STARTCHAR 0440
ENCODING 1088
SWIDTH 672 0
DWIDTH 14 0
BBX 11 15 2 -4
BITMAP
DF00
FFC0
E0E0
C060
C060
C060
C060
C060
E0E0
FFC0
DF00
C000
C000
C000
C000
ENDCHAR
STARTCHAR 0441
ENCODING 1089
SWIDTH 576 0
DWIDTH 12 0
BBX 10 11 1 0
BITMAP
1F00
3FC0
60C0
C000
C000
C000
C000
C000
60C0
3FC0
1F00
ENDCHAR
STARTCHAR 0442
ENCODING 1090
SWIDTH 480 0
DWIDTH 10 0
BBX 10 11 0 0
BITMAP
FFC0
FFC0
0C00
0C00
0C00
0C00
0C00
0C00
0C00
0C00
0C00
ENDCHAR
STARTCHAR 0443
ENCODING 1091
SWIDTH 576 0
DWIDTH 12 0
BBX 12 15 0 -4
BITMAP
C030
6060
6060
30C0
30C0
1980
1980
1900
0F00
0F00
0600
0600
0C00
FC00
F000
ENDCHAR
STARTCHAR 0444
ENCODING 1092
SWIDTH 816 0
DWIDTH 17 0
BBX 15 20 1 -4
BITMAP
0300
0300
0300
0300
0300
0FE0
3FF8
731C
C30E
C306
C306
C306
C30E
731C
3FF8
0FE0
0300
0300
0300
0300
ENDCHAR
STARTCHAR 0445
ENCODING 1093
SWIDTH 528 0
DWIDTH 11 0
BBX 10 11 1 0
BITMAP
C180
6180
7300
3600
1C00
1C00
1E00
3600
6300
E180
C1C0
ENDCHAR
STARTCHAR 0446
ENCODING 1094
SWIDTH 672 0
DWIDTH 14 0
BBX 12 14 2 -3
BITMAP
C0C0
C0C0
C0C0
C0C0
C0C0
C0C0
C0C0
C0C0
C0C0
FFF0
FFF0
0030
0030
0030
ENDCHAR
STARTCHAR 0447
ENCODING 1095
SWIDTH 624 0
DWIDTH 13 0
BBX 10 11 1 0
BITMAP
C0C0
C0C0
C0C0
C0C0
C0C0
E1C0
7FC0
1CC0
00C0
00C0
00C0
ENDCHAR
STARTCHAR 0448
ENCODING 1096
SWIDTH 960 0
DWIDTH 20 0
BBX 16 11 2 0
BITMAP
C183
C183
C183
C183
C183
C183
C183
C183
C183
FFFF
FFFF
ENDCHAR
STARTCHAR 0449
ENCODING 1097
SWIDTH 960 0
DWIDTH 20 0
BBX 17 13 2 -2
BITMAP
C18300
C18300
C18300
C18300
C18300
C18300
C18300
C18300
C18300
FFFF80
FFFF80
000180
000180
ENDCHAR
STARTCHAR 044A
ENCODING 1098
SWIDTH 624 0
DWIDTH 13 0
BBX 13 11 0 0
BITMAP
F800
F800
1800
1800
1FF0
1830
1818
1818
1830
1FF0
1FE0
ENDCHAR
STARTCHAR 044B
ENCODING 1099
SWIDTH 816 0
DWIDTH 17 0
BBX 13 11 2 0
BITMAP
C018
C018
C018
C018
FF18
C398
C198
C198
C198
FF98
FE18
ENDCHAR
STARTCHAR 044C
ENCODING 1100
SWIDTH 576 0
DWIDTH 12 0
BBX 9 11 2 0
BITMAP
C000
C000
C000
C000
FF00
C180
C180
C180
C180
FF80
FE00
ENDCHAR
STARTCHAR 044D
ENCODING 1101
SWIDTH 576 0
DWIDTH 12 0
BBX 10 11 1 0
BITMAP
7E00
FF00
8180
00C0
00C0
1FC0
00C0
00C0
8180
FF00
7E00
ENDCHAR
STARTCHAR 044E
ENCODING 1102
SWIDTH 864 0
DWIDTH 18 0
BBX 15 11 2 0
BITMAP
C1F0
C3FC
C60E
CC06
FC06
FC06
CC06
C606
C60C
C3FC
C1F0
ENDCHAR
STARTCHAR 044F
ENCODING 1103
SWIDTH 624 0
DWIDTH 13 0
BBX 10 11 1 0
BITMAP
3FC0
7FC0
E0C0
C0C0
C0C0
E0C0
7FC0
38C0
30C0
60C0
C0C0
ENDCHAR
STARTCHAR 0450
ENCODING 1104
SWIDTH 624 0
DWIDTH 13 0
BBX 11 15 1 0
BITMAP
3800
0C00
0600
0000
1F00
3F80
60C0
C060
C060
FFE0
C000
C000
60C0
3FC0
1F00
ENDCHAR
STARTCHAR 0451
ENCODING 1105
SWIDTH 624 0
DWIDTH 13 0
BBX 11 15 1 0
BITMAP
1300
3300
0000
0000
1F00
3F80
60C0
C060
C060
FFE0
C000
C000
60C0
3FC0
1F00
ENDCHAR
STARTCHAR 0452
ENCODING 1106
SWIDTH 672 0
DWIDTH 14 0
BBX 12 20 0 -4
BITMAP
3000
3000
FF80
3000
3000
37C0
3FE0
3830
3030
3030
3030
3030
3030
3030
3030
3030
0030
0030
01F0
01E0
ENDCHAR
STARTCHAR 0453
ENCODING 1107
SWIDTH 480 0
DWIDTH 10 0
BBX 8 15 2 0
BITMAP
06
0C
18
00
FF
FF
C0
C0
C0
C0
C0
C0
C0
C0
C0
ENDCHAR
STARTCHAR 0454
ENCODING 1108
SWIDTH 576 0
DWIDTH 12 0
BBX 10 11 1 0
BITMAP
1F80
3FC0
6040
C000
C000
FE00
C000
C000
6040
3FC0
1F80
ENDCHAR
STARTCHAR 0455
ENCODING 1109
SWIDTH 528 0
DWIDTH 11 0
BBX 9 11 1 0
BITMAP
3F00
7F80
C000
C000
E000
7E00
0F80
0180
0180
FF80
7E00
ENDCHAR
STARTCHAR 0456
ENCODING 1110
SWIDTH 288 0
DWIDTH 6 0
BBX 2 16 2 0
BITMAP
80
C0
C0
00
00
C0
C0
C0
C0
C0
C0
C0
C0
C0
C0
C0
ENDCHAR
STARTCHAR 0457
ENCODING 1111
SWIDTH 288 0
DWIDTH 6 0
BBX 5 15 0 0
BITMAP
D8
D8
00
00
30
30
30
30
30
30
30
30
30
30
30
ENDCHAR
STARTCHAR 0458
ENCODING 1112
SWIDTH 288 0
DWIDTH 6 0
BBX 6 20 -2 -4
BITMAP
08
0C
0C
00
00
0C
0C
0C
0C
0C
0C
0C
0C
0C
0C
0C
0C
0C
F8
F0
ENDCHAR
STARTCHAR 0459
ENCODING 1113
SWIDTH 912 0
DWIDTH 19 0
BBX 19 11 0 0
BITMAP
1FE000
1FE000
186000
186000
187FC0
1060C0
106060
306060
3060E0
F07FC0
E07F80
ENDCHAR
STARTCHAR 045A
ENCODING 1114
SWIDTH 960 0
DWIDTH 20 0
BBX 17 11 2 0
BITMAP
C0C000
C0C000
C0C000
C0C000
FFFE00
FFFF80
C0C180
C0C180
C0C180
C0C780
C0FE00
ENDCHAR
STARTCHAR 045B
ENCODING 1115
SWIDTH 672 0
DWIDTH 14 0
BBX 13 16 -1 0
BITMAP
1800
1800
FFC0
1800
1800
1BE0
1FF0
1C18
1818
1818
1818
1818
1818
1818
1818
1818
ENDCHAR
STARTCHAR 045C
ENCODING 1116
SWIDTH 576 0
DWIDTH 12 0
BBX 10 15 2 0
BITMAP
0700
0C00
1800
0000
C1C0
C180
C300
C600
C600
FC00
FE00
C600
C300
C180
C1C0
ENDCHAR
STARTCHAR 045D
ENCODING 1117
SWIDTH 672 0
DWIDTH 14 0
BBX 11 15 2 0
BITMAP
3000
1800
0C00
0000
C0E0
C1E0
C1E0
C360
C660
CC60
DC60
F860
F060
E060
C060
ENDCHAR
STARTCHAR 045E
ENCODING 1118
SWIDTH 576 0
DWIDTH 12 0
BBX 12 20 0 -4
BITMAP
3080
1180
1F00
0000
0000
C030
6060
6060
30C0
30C0
1980
1980
1900
0F00
0F00
0600
0600
0C00
FC00
F000
ENDCHAR
STARTCHAR 045F
ENCODING 1119
SWIDTH 624 0
DWIDTH 13 0
BBX 9 14 2 -3
BITMAP
C180
C180
C180
C180
C180
C180
C180
C180
C180
FF80
FF80
0C00
0C00
0C00
ENDCHAR
STARTCHAR 0462
ENCODING 1122
SWIDTH 816 0
DWIDTH 17 0
BBX 16 16 0 0
BITMAP
0C00
0C00
FFE0
FFE0
0C00
0C00
0FF0
0FFE
0C06
0C03
0C03
0C03
0C03
0C07
0FFE
0FF8
ENDCHAR
STARTCHAR 0463
ENCODING 1123
SWIDTH 624 0
DWIDTH 13 0
BBX 12 16 0 0
BITMAP
1800
1800
1800
1800
FF80
1800
1800
1800
1800
1FE0
1870
1830
1830
1830
1FE0
1FC0
ENDCHAR
STARTCHAR 046A
ENCODING 1130
SWIDTH 912 0
DWIDTH 19 0
BBX 17 15 1 0
BITMAP
7FFF00
7FFE00
300E00
180C00
0C1800
063000
036000
0FF800
1FFC00
318E00
618600
618300
E18300
C18180
C18180
ENDCHAR
STARTCHAR 046B
ENCODING 1131
SWIDTH 720 0
DWIDTH 15 0
BBX 13 11 1 0
BITMAP
7FF0
6030
3060
18C0
0D80
1FC0
76E0
6630
C630
C618
8618
ENDCHAR
STARTCHAR 0472
ENCODING 1138
SWIDTH 864 0
DWIDTH 18 0
BBX 16 15 1 0
BITMAP
07E0
1FF8
381C
700E
6006
C006
FFFF
FFFF
C006
E006
6006
700C
383C
1FF8
07E0
ENDCHAR
STARTCHAR 0473
ENCODING 1139
SWIDTH 672 0
DWIDTH 14 0
BBX 12 11 1 0
BITMAP
1F00
3FC0
60E0
C060
C030
FFF0
C020
C060
60E0
3FC0
1F00
ENDCHAR
STARTCHAR 0474
ENCODING 1140
SWIDTH 768 0
DWIDTH 16 0
BBX 16 15 0 0
BITMAP
E00F
601E
7018
3038
3030
3830
1860
1C60
0C60
0CC0
0EC0
07C0
0780
0380
0380
ENDCHAR
STARTCHAR 0475
ENCODING 1141
SWIDTH 576 0
DWIDTH 12 0
BBX 12 11 0 0
BITMAP
E070
6070
60C0
30C0
31C0
1980
1980
1B00
0F00
0F00
0600
ENDCHAR
STARTCHAR 048A
ENCODING 1162
SWIDTH 864 0
DWIDTH 18 0
BBX 15 22 2 -3
BITMAP
1040
18C0
0F80
0000
C018
C038
C078
C0F8
C0D8
C198
C398
C718
C618
CC18
DC18
F818
F018
E01E
E01E
000C
000C
000C
ENDCHAR
STARTCHAR 048B
ENCODING 1163
SWIDTH 720 0
DWIDTH 15 0
BBX 12 18 2 -2
BITMAP
2100
3100
1E00
0000
0000
C0E0
C1E0
C1E0
C360
C660
CC60
DC60
F860
F060
E070
C070
0030
0020
ENDCHAR
STARTCHAR 048C
ENCODING 1164
SWIDTH 720 0
DWIDTH 15 0
BBX 14 16 1 0
BITMAP
3000
3000
FF00
FF00
3000
3000
3FC0
3FF0
3038
3018
301C
301C
3018
3018
3FF0
3FE0
ENDCHAR
STARTCHAR 048D
ENCODING 1165
SWIDTH 624 0
DWIDTH 13 0
BBX 12 11 0 0
BITMAP
1800
1800
FF80
1800
1FC0
18F0
1830
1830
1830
1FE0
1FC0
ENDCHAR
STARTCHAR 048E
ENCODING 1166
SWIDTH 720 0
DWIDTH 15 0
BBX 12 15 2 0
BITMAP
FF80
FFE0
C060
C030
C030
C230
C230
C370
C1E0
FFC0
FFC0
C060
C030
C000
C000
ENDCHAR
STARTCHAR 048F
ENCODING 1167
SWIDTH 720 0
DWIDTH 15 0
BBX 11 15 2 -4
BITMAP
CF00
FFC0
E0E0
C060
C060
C060
C060
C360
E1E0
FFC0
CF60
C060
C000
C000
C000
ENDCHAR
STARTCHAR 0490
ENCODING 1168
SWIDTH 576 0
DWIDTH 12 0
BBX 10 18 2 0
BITMAP
00C0
00C0
00C0
FFC0
FFC0
C000
C000
C000
C000
C000
C000
C000
C000
C000
C000
C000
C000
C000
ENDCHAR
STARTCHAR 0491
ENCODING 1169
SWIDTH 480 0
DWIDTH 10 0
BBX 8 13 2 0
BITMAP
03
03
FF
FF
C0
C0
C0
C0
C0
C0
C0
C0
C0
ENDCHAR
STARTCHAR 0492
ENCODING 1170
SWIDTH 624 0
DWIDTH 13 0
BBX 11 15 1 0
BITMAP
3FE0
3FE0
3000
3000
3000
3000
3000
FFC0
FFC0
3000
3000
3000
3000
3000
3000
ENDCHAR
STARTCHAR 0493
ENCODING 1171
SWIDTH 528 0
DWIDTH 11 0
BBX 9 11 1 0
BITMAP
7F80
7F80
6000
6000
6000
6000
FF00
6000
6000
6000
6000
ENDCHAR
STARTCHAR 0494
ENCODING 1172
SWIDTH 720 0
DWIDTH 15 0
BBX 12 18 2 -3
BITMAP
FFC0
FFC0
C000
C000
C000
C000
C700
FFC0
F0E0
C060
C070
C030
C030
C060
C060
00E0
07C0
0700
ENDCHAR
STARTCHAR 0495
ENCODING 1173
SWIDTH 624 0
DWIDTH 13 0
BBX 10 15 2 -4
BITMAP
FF00
FF00
C000
C000
C000
FE00
FF80
C1C0
C0C0
C0C0
C0C0
00C0
0180
1F80
1E00
ENDCHAR
STARTCHAR 0496
ENCODING 1174
SWIDTH 1056 0
DWIDTH 22 0
BBX 21 18 1 -3
BITMAP
C06060
606060
7060C0
306180
186180
186300
0FFE00
0FFF00
1C6300
186380
306180
7060C0
6060C0
E06078
C06078
000018
000018
000018
ENDCHAR
STARTCHAR 0497
ENCODING 1175
SWIDTH 864 0
DWIDTH 18 0
BBX 17 13 1 -2
BITMAP
C18300
618600
618C00
318C00
1FF800
1FF800
319C00
718C00
618E00
E18780
C18380
000180
000180
ENDCHAR
STARTCHAR 0498
ENCODING 1176
SWIDTH 624 0
DWIDTH 13 0
BBX 11 18 1 -3
BITMAP
3F00
FF80
40C0
00E0
00E0
00C0
3F80
3F80
00C0
0060
0060
0060
C0E0
FFC0
3F00
0C00
0C00
0C00
ENDCHAR
STARTCHAR 0499
ENCODING 1177
SWIDTH 528 0
DWIDTH 11 0
BBX 9 13 1 -2
BITMAP
7E00
FF00
0180
0180
0700
1F00
0180
0180
8180
FF80
7E00
1800
1800
ENDCHAR
STARTCHAR 049A
ENCODING 1178
SWIDTH 768 0
DWIDTH 16 0
BBX 13 18 2 -3
BITMAP
C030
C060
C0C0
C1C0
C180
C300
FE00
FE00
C300
C380
C180
C0C0
C0E0
C078
C038
0018
0018
0018
ENDCHAR
STARTCHAR 049B
ENCODING 1179
SWIDTH 576 0
DWIDTH 12 0
BBX 11 13 2 -2
BITMAP
C1C0
C180
C300
C600
FC00
FC00
C600
C700
C300
C1E0
C0E0
0060
0060
ENDCHAR
STARTCHAR 049C
ENCODING 1180
SWIDTH 720 0
DWIDTH 15 0
BBX 13 15 2 0
BITMAP
C030
C030
C060
C0E0
C8C0
C980
C980
FF00
FF80
C980
C9C0
C8E0
C060
C030
C038
ENDCHAR
STARTCHAR 049D
ENCODING 1181
SWIDTH 624 0
DWIDTH 13 0
BBX 10 11 2 0
BITMAP
C0C0
C180
C180
D300
D600
FE00
FE00
D300
D380
C180
C0C0
ENDCHAR
STARTCHAR 049E
ENCODING 1182
SWIDTH 720 0
DWIDTH 15 0
BBX 14 15 1 0
BITMAP
3018
3038
FE30
3060
30E0
30C0
3180
3F80
3F80
31C0
30E0
3060
3030
3038
301C
ENDCHAR
STARTCHAR 049F
ENCODING 1183
SWIDTH 576 0
DWIDTH 12 0
BBX 12 16 0 0
BITMAP
3000
3000
FE00
3000
3000
3070
3060
30C0
3180
3180
3F00
3F00
3180
30C0
3060
3070
ENDCHAR
STARTCHAR 04A0
ENCODING 1184
SWIDTH 816 0
DWIDTH 17 0
BBX 17 15 0 0
BITMAP
FE0300
FE0600
060600
060C00
061800
063000
07F000
07F000
063000
061800
061C00
060E00
060600
060700
060380
ENDCHAR
STARTCHAR 04A1
ENCODING 1185
SWIDTH 672 0
DWIDTH 14 0
BBX 13 11 0 0
BITMAP
F818
F830
1830
1860
18C0
1F80
1FC0
18E0
1870
1838
1818
ENDCHAR
STARTCHAR 04A2
ENCODING 1186
SWIDTH 864 0
DWIDTH 18 0
BBX 15 18 2 -3
BITMAP
C018
C018
C018
C018
C018
C018
FFF8
FFF8
C018
C018
C018
C018
C018
C01E
C01E
0006
0006
0006
ENDCHAR
STARTCHAR 04A3
ENCODING 1187
SWIDTH 720 0
DWIDTH 15 0
BBX 12 13 2 -2
BITMAP
C0C0
C0C0
C0C0
C0C0
FFC0
FFC0
C0C0
C0C0
C0C0
C0F0
C0F0
0030
0030
ENDCHAR
STARTCHAR 04A4
ENCODING 1188
SWIDTH 1104 0
DWIDTH 23 0
BBX 20 15 2 0
BITMAP
C01FF0
C01FF0
C01800
C01800
C01800
C01800
FFF800
FFF800
C01800
C01800
C01800
C01800
C01800
C01800
C01800
ENDCHAR
STARTCHAR 04A5
ENCODING 1189
SWIDTH 864 0
DWIDTH 18 0
BBX 16 11 2 0
BITMAP
C0FF
C0FF
C0C0
C0C0
C0C0
FFC0
FFC0
C0C0
C0C0
C0C0
C0C0
ENDCHAR
STARTCHAR 04A6
ENCODING 1190
SWIDTH 1200 0
DWIDTH 25 0
BBX 22 18 2 -3
BITMAP
FFF800
FFF800
C01800
C01800
C01800
C01800
C019C0
C01FF0
C01C38
C0181C
C0180C
C0180C
C0180C
C0180C
C0181C
000018
0001F0
0001E0
ENDCHAR
STARTCHAR 04A7
ENCODING 1191
SWIDTH 960 0
DWIDTH 20 0
BBX 18 15 2 -4
BITMAP
FFC000
FFC000
C0C000
C0C000
C0C000
C0FE00
C0FF80
C0C180
C0C0C0
C0C0C0
C0C0C0
0000C0
000180
001F80
001E00
ENDCHAR
STARTCHAR 04A8
ENCODING 1192
SWIDTH 960 0
DWIDTH 20 0
BBX 18 15 1 0
BITMAP
183C00
38FF00
71C380
618180
618180
C301C0
C300C0
C301C0
C18180
E18180
618300
70C300
387E00
1FFFC0
07EFC0
ENDCHAR
STARTCHAR 04A9
ENCODING 1193
SWIDTH 816 0
DWIDTH 17 0
BBX 14 11 1 0
BITMAP
31F0
73F8
630C
C60C
C60C
C60C
C60C
E318
73B8
3FF4
0FFC
ENDCHAR
STARTCHAR 04AA
ENCODING 1194
SWIDTH 720 0
DWIDTH 15 0
BBX 13 18 1 -3
BITMAP
07E0
1FF8
3818
7000
6000
C000
C000
C000
C000
C000
6000
7000
3818
1FF8
07E0
0300
0300
0300
ENDCHAR
STARTCHAR 04AB
ENCODING 1195
SWIDTH 576 0
DWIDTH 12 0
BBX 10 13 1 -2
BITMAP
1F00
3FC0
60C0
C000
C000
C000
C000
E000
70C0
3FC0
1F00
0400
0400
ENDCHAR
STARTCHAR 04AC
ENCODING 1196
SWIDTH 624 0
DWIDTH 13 0
BBX 12 18 0 -3
BITMAP
FFF0
FFF0
0600
0600
0600
0600
0600
0600
0600
0600
0600
0600
0600
07C0
07C0
00C0
00C0
00C0
ENDCHAR
STARTCHAR 04AD
ENCODING 1197
SWIDTH 480 0
DWIDTH 10 0
BBX 10 13 0 -2
BITMAP
FFC0
FFC0
0C00
0C00
0C00
0C00
0C00
0C00
0C00
0F00
0F00
0300
0300
ENDCHAR
STARTCHAR 04AE
ENCODING 1198
SWIDTH 672 0
DWIDTH 14 0
BBX 13 15 0 0
BITMAP
E018
6018
3030
3030
1860
1CE0
0CC0
0780
0780
0300
0300
0300
0300
0300
0300
ENDCHAR
STARTCHAR 04AF
ENCODING 1199
SWIDTH 576 0
DWIDTH 12 0
BBX 12 15 0 -4
BITMAP
C030
6060
6060
30C0
30C0
1980
1980
1980
0F00
0F00
0600
0600
0600
0600
0600
ENDCHAR
STARTCHAR 04B0
ENCODING 1200
SWIDTH 672 0
DWIDTH 14 0
BBX 13 15 0 0
BITMAP
E018
6018
3030
3030
1860
1CE0
0CC0
0780
0780
3FE0
0300
0300
0300
0300
0300
ENDCHAR
STARTCHAR 04B1
ENCODING 1201
SWIDTH 576 0
DWIDTH 12 0
BBX 12 15 0 -4
BITMAP
C030
6060
6060
30C0
30C0
1980
1980
1D00
0F00
0F00
7FC0
0600
0600
0600
0600
ENDCHAR
STARTCHAR 04B2
ENCODING 1202
SWIDTH 720 0
DWIDTH 15 0
BBX 13 18 1 -3
BITMAP
C070
6060
70C0
39C0
1980
1F00
0F00
0600
0F00
1F80
3980
30C0
60E0
E078
C038
0008
0008
0008
ENDCHAR
STARTCHAR 04B3
ENCODING 1203
SWIDTH 528 0
DWIDTH 11 0
BBX 11 13 1 -2
BITMAP
C180
6180
7300
3600
1C00
1C00
1E00
3600
6300
E1E0
C1E0
0060
0060
ENDCHAR
STARTCHAR 04B4
ENCODING 1204
SWIDTH 960 0
DWIDTH 20 0
BBX 20 18 0 -3
BITMAP
FFF1C0
FFF1C0
0601C0
0601C0
0601C0
0601C0
0601C0
0601C0
0601C0
0601C0
0601C0
0601C0
0601C0
07FFF0
07FFF0
000030
000030
000030
ENDCHAR
STARTCHAR 04B5
ENCODING 1205
SWIDTH 768 0
DWIDTH 16 0
BBX 15 13 0 -2
BITMAP
FF8C
FF8C
0C0C
0C0C
0C0C
0C0C
0C0C
0C0C
0C0C
0FFE
0FFE
0006
0006
ENDCHAR
STARTCHAR 04B6
ENCODING 1206
SWIDTH 768 0
DWIDTH 16 0
BBX 14 18 1 -3
BITMAP
C030
C030
C030
C030
C030
C030
E030
6070
7FF0
1FB0
0030
0030
0030
003C
003C
000C
000C
000C
ENDCHAR
STARTCHAR 04B7
ENCODING 1207
SWIDTH 624 0
DWIDTH 13 0
BBX 11 13 1 -2
BITMAP
C0C0
C0C0
C0C0
C0C0
C0C0
FFC0
3EC0
00C0
00C0
00E0
00E0
0020
0020
ENDCHAR
STARTCHAR 04B8
ENCODING 1208
SWIDTH 720 0
DWIDTH 15 0
BBX 12 15 1 0
BITMAP
C030
C030
C030
C030
C030
C630
E630
7670
7FF0
1F30
0630
0630
0630
0030
0030
ENDCHAR
STARTCHAR 04B9
ENCODING 1209
SWIDTH 624 0
DWIDTH 13 0
BBX 10 11 1 0
BITMAP
C0C0
C0C0
C0C0
C0C0
C8C0
E9C0
7FC0
3CC0
08C0
08C0
00C0
ENDCHAR
STARTCHAR 04BA
ENCODING 1210
SWIDTH 720 0
DWIDTH 15 0
BBX 12 15 2 0
BITMAP
C000
C000
C000
C000
C000
DF80
FFE0
E070
C030
C030
C030
C030
C030
C030
C030
ENDCHAR
STARTCHAR 04BB
ENCODING 1211
SWIDTH 672 0
DWIDTH 14 0
BBX 10 16 2 0
BITMAP
C000
C000
C000
C000
C000
DF00
FF80
E0C0
C0C0
C0C0
C0C0
C0C0
C0C0
C0C0
C0C0
C0C0
ENDCHAR
STARTCHAR 04BC
ENCODING 1212
SWIDTH 1008 0
DWIDTH 21 0
BBX 19 15 1 0
BITMAP
007C00
01FF00
038380
C601C0
CE00C0
CC00C0
CC0060
FFFFE0
3FFFE0
0C0000
0E0000
060000
078380
01FF00
007C00
ENDCHAR
STARTCHAR 04BD
ENCODING 1213
SWIDTH 768 0
DWIDTH 16 0
BBX 15 11 0 0
BITMAP
01F0
03FC
660C
CC06
6C06
7FFE
0C00
0C00
0604
03FC
01F8
ENDCHAR
STARTCHAR 04BE
ENCODING 1214
SWIDTH 1008 0
DWIDTH 21 0
BBX 19 18 1 -3
BITMAP
007C00
01FF00
038380
C601C0
CE00C0
CC00C0
CC0060
FFFFE0
3FFFE0
0C0000
0E0000
060000
078380
01FF00
00FE00
003000
003000
003000
ENDCHAR
STARTCHAR 04BF
ENCODING 1215
SWIDTH 768 0
DWIDTH 16 0
BBX 15 13 0 -2
BITMAP
01F0
03FC
660C
CC06
6C06
7FFE
0C00
0C00
070C
03FC
01F8
0060
0060
ENDCHAR
STARTCHAR 04C0
ENCODING 1216
SWIDTH 336 0
DWIDTH 7 0
BBX 2 15 2 0
BITMAP
C0
C0
C0
C0
C0
C0
C0
C0
C0
C0
C0
C0
C0
C0
C0
ENDCHAR
STARTCHAR 04C1
ENCODING 1217
SWIDTH 1008 0
DWIDTH 21 0
BBX 20 19 1 0
BITMAP
030800
031800
01F000
000000
C06060
606060
7060C0
306180
186180
186300
0FFE00
0FFF00
1C6300
186380
306180
7060C0
6060E0
E06060
C06070
ENDCHAR
STARTCHAR 04C2
ENCODING 1218
SWIDTH 864 0
DWIDTH 18 0
BBX 16 16 1 0
BITMAP
0420
0460
03C0
0000
0000
C183
E186
618E
318C
3198
1FF8
3FF8
318C
618E
E186
C183
ENDCHAR
STARTCHAR 04C3
ENCODING 1219
SWIDTH 720 0
DWIDTH 15 0
BBX 12 19 2 -4
BITMAP
C030
C060
C0C0
C1C0
C180
C300
FE00
FF00
C300
C180
C0C0
C0E0
C060
C030
C030
0030
0030
01F0
01E0
ENDCHAR
STARTCHAR 04C4
ENCODING 1220
SWIDTH 576 0
DWIDTH 12 0
BBX 10 15 2 -4
BITMAP
C1C0
C180
C300
C600
FC00
FE00
C700
C300
C180
C180
C0C0
00C0
00C0
0F80
0F00
ENDCHAR
STARTCHAR 04C6
ENCODING 1222
SWIDTH 672 0
DWIDTH 14 0
BBX 13 13 0 -2
BITMAP
1FE0
1FE0
1860
1860
1860
1060
1060
3060
3060
F078
E078
0010
0030
ENDCHAR
STARTCHAR 04C7
ENCODING 1223
SWIDTH 816 0
DWIDTH 17 0
BBX 13 19 2 -4
BITMAP
C018
C018
C018
C018
C018
C018
C018
FFF8
FFF8
C018
C018
C018
C018
C018
C018
0018
0038
01F0
01E0
ENDCHAR
STARTCHAR 04C8
ENCODING 1224
SWIDTH 672 0
DWIDTH 14 0
BBX 10 15 2 -4
BITMAP
C0C0
C0C0
C0C0
C0C0
C0C0
FFC0
FFC0
C0C0
C0C0
C0C0
C0C0
00C0
00C0
07C0
0780
ENDCHAR
STARTCHAR 04C9
ENCODING 1225
SWIDTH 864 0
DWIDTH 18 0
BBX 15 18 2 -3
BITMAP
C018
C018
C018
C018
C018
C018
FFF8
FFF8
C018
C018
C018
C018
C018
C01E
C01E
000C
000C
000C
ENDCHAR
STARTCHAR 04CA
ENCODING 1226
SWIDTH 720 0
DWIDTH 15 0
BBX 12 13 2 -2
BITMAP
C0C0
C0C0
C0C0
C0C0
FFC0
FFC0
C0C0
C0C0
C0C0
C0F0
C0F0
0020
0060
ENDCHAR
STARTCHAR 04CB
ENCODING 1227
SWIDTH 720 0
DWIDTH 15 0
BBX 12 18 1 -3
BITMAP
C030
C030
C030
C030
C030
C030
E030
7070
7FF0
1F30
0030
0030
0030
01F0
01F0
0180
0180
0180
ENDCHAR
STARTCHAR 04CC
ENCODING 1228
SWIDTH 624 0
DWIDTH 13 0
BBX 10 13 1 -2
BITMAP
C0C0
C0C0
C0C0
C0C0
E1C0
7FC0
1CC0
00C0
00C0
03C0
03C0
0300
0300
ENDCHAR
STARTCHAR 04CD
ENCODING 1229
SWIDTH 1008 0
DWIDTH 21 0
BBX 18 18 2 -3
BITMAP
C00300
E00700
E00700
F00F00
F81F00
D81B00
CC3300
CC3300
C66300
C66300
C3C300
C18300
C18300
C003C0
C003C0
000080
000180
000180
ENDCHAR
STARTCHAR 04CE
ENCODING 1230
SWIDTH 816 0
DWIDTH 17 0
BBX 15 13 2 -2
BITMAP
C038
E038
E078
F078
D8D8
D998
CD98
CF18
C618
C21E
C01C
000C
000C
ENDCHAR
STARTCHAR 04CF
ENCODING 1231
SWIDTH 288 0
DWIDTH 6 0
BBX 2 16 2 0
BITMAP
C0
C0
C0
C0
C0
C0
C0
C0
C0
C0
C0
C0
C0
C0
C0
C0
ENDCHAR
STARTCHAR 04D0
ENCODING 1232
SWIDTH 768 0
DWIDTH 16 0
BBX 15 19 0 0
BITMAP
0C20
0460
03C0
0000
0180
03C0
03C0
06C0
0660
0C60
0C30
0C30
1818
1FF8
3FFC
300C
600C
6006
E006
ENDCHAR
STARTCHAR 04D1
ENCODING 1233
SWIDTH 576 0
DWIDTH 12 0
BBX 10 15 1 0
BITMAP
2100
3300
1E00
0000
3E00
FF80
4180
00C0
00C0
7FC0
C0C0
C0C0
C1C0
7FC0
3CC0
ENDCHAR
STARTCHAR 04D2
ENCODING 1234
SWIDTH 768 0
DWIDTH 16 0
BBX 15 19 0 0
BITMAP
0660
0660
0000
0000
0180
03C0
03C0
06C0
0660
0C60
0C30
0C30
1818
1FF8
3FFC
300C
600C
6006
E006
ENDCHAR
STARTCHAR 04D3
ENCODING 1235
SWIDTH 576 0
DWIDTH 12 0
BBX 10 15 1 0
BITMAP
3300
3300
0000
0000
3E00
FF80
4180
00C0
00C0
7FC0
C0C0
C0C0
C1C0
7FC0
3CC0
ENDCHAR
STARTCHAR 04D4
ENCODING 1236
SWIDTH 1056 0
DWIDTH 22 0
BBX 21 15 0 0
BITMAP
007FF8
00FFF8
01B000
01B000
033000
033000
063FF0
0C3FF0
0C3000
1FF000
1FF000
303000
303000
603FF8
E03FF8
ENDCHAR
STARTCHAR 04D5
ENCODING 1237
SWIDTH 1008 0
DWIDTH 21 0
BBX 19 11 1 0
BITMAP
3E1F00
FFFF80
41E0C0
00C0C0
00C060
7FFFE0
C0C000
C1C000
C1E080
7F7FC0
3E1F00
ENDCHAR
STARTCHAR 04D6
ENCODING 1238
SWIDTH 672 0
DWIDTH 14 0
BBX 11 19 2 0
BITMAP
2180
3180
1F00
0000
FFE0
FFE0
C000
C000
C000
C000
FFC0
FFC0
C000
C000
C000
C000
C000
FFE0
FFE0
ENDCHAR
STARTCHAR 04D7
ENCODING 1239
SWIDTH 624 0
DWIDTH 13 0
BBX 11 15 1 0
BITMAP
3180
3100
1F00
0000
1F00
3F80
60C0
C060
C060
FFE0
C000
C000
60C0
3FC0
1F00
ENDCHAR
STARTCHAR 04D8
ENCODING 1240
SWIDTH 816 0
DWIDTH 17 0
BBX 15 15 1 0
BITMAP
0FC0
3FF0
3038
001C
000E
0006
FFFE
FFFE
C006
C006
E00C
601C
3838
1FF0
07C0
ENDCHAR
STARTCHAR 04D9
ENCODING 1241
SWIDTH 624 0
DWIDTH 13 0
BBX 11 11 1 0
BITMAP
1F00
7F80
60C0
0060
0060
FFE0
C060
C060
60C0
3FC0
1F00
ENDCHAR
STARTCHAR 04DA
ENCODING 1242
SWIDTH 816 0
DWIDTH 17 0
BBX 15 18 1 0
BITMAP
0660
0640
0000
0FC0
3FF0
3038
001C
000E
0006
FFFE
FFFE
C006
C006
E00C
601C
3838
1FF0
07C0
ENDCHAR
STARTCHAR 04DB
ENCODING 1243
SWIDTH 624 0
DWIDTH 13 0
BBX 11 15 1 0
BITMAP
1900
1980
0000
0000
1F00
7F80
60C0
0060
0060
FFE0
C060
C060
60C0
3FC0
1F00
ENDCHAR
STARTCHAR 04DC
ENCODING 1244
SWIDTH 1008 0
DWIDTH 21 0
BBX 20 19 1 0
BITMAP
019800
019800
000000
000000
C06060
606060
7060C0
306180
186180
186300
0FFE00
0FFF00
1C6300
186380
306180
7060C0
6060E0
E06060
C06070
ENDCHAR
STARTCHAR 04DD
ENCODING 1245
SWIDTH 864 0
DWIDTH 18 0
BBX 16 15 1 0
BITMAP
0660
0660
0000
0000
C183
E186
618E
318C
3198
1FF8
3FF8
318C
618E
E186
C183
ENDCHAR
STARTCHAR 04DE
ENCODING 1246
SWIDTH 624 0
DWIDTH 13 0
BBX 11 18 1 0
BITMAP
1980
1900
0000
3F00
FF80
40C0
00E0
00E0
00C0
3F80
3F80
00C0
0060
0060
0060
C0E0
FFC0
3F00
ENDCHAR
STARTCHAR 04DF
ENCODING 1247
SWIDTH 528 0
DWIDTH 11 0
BBX 9 15 1 0
BITMAP
2200
3600
0000
0000
7E00
FF00
0180
0180
0700
1F00
0180
0180
8180
FF00
7E00
ENDCHAR
STARTCHAR 04E0
ENCODING 1248
SWIDTH 624 0
DWIDTH 13 0
BBX 11 15 1 0
BITMAP
FFC0
FFC0
0180
0380
0300
0600
0E00
0F80
00C0
0060
0060
0060
C0C0
FFC0
3F00
ENDCHAR
STARTCHAR 04E1
ENCODING 1249
SWIDTH 528 0
DWIDTH 11 0
BBX 10 15 0 -4
BITMAP
FFC0
FFC0
0180
0300
0600
0C00
0C00
1F80
01C0
00C0
00C0
00C0
C1C0
FF80
3F00
ENDCHAR
STARTCHAR 04E2
ENCODING 1250
SWIDTH 816 0
DWIDTH 17 0
BBX 13 18 2 0
BITMAP
1FC0
0000
0000
C018
C038
C078
C0F8
C0D8
C198
C398
C718
C618
CC18
DC18
F818
F018
E018
E018
ENDCHAR
STARTCHAR 04E3
ENCODING 1251
SWIDTH 672 0
DWIDTH 14 0
BBX 11 15 2 0
BITMAP
3F00
0000
0000
0000
C0E0
C1E0
C1E0
C360
C660
CC60
DC60
F860
F060
E060
C060
ENDCHAR
STARTCHAR 04E4
ENCODING 1252
SWIDTH 816 0
DWIDTH 17 0
BBX 13 19 2 0
BITMAP
0880
0D80
0000
0000
C018
C038
C078
C0F8
C0D8
C198
C398
C718
C618
CC18
DC18
F818
F018
E018
E018
ENDCHAR
STARTCHAR 04E5
ENCODING 1253
SWIDTH 672 0
DWIDTH 14 0
BBX 11 15 2 0
BITMAP
3300
3300
0000
0000
C0E0
C1E0
C1E0
C360
C660
CC60
DC60
F860
F060
E060
C060
ENDCHAR
STARTCHAR 04E6
ENCODING 1254
SWIDTH 864 0
DWIDTH 18 0
BBX 16 18 1 0
BITMAP
0660
0660
0000
07E0
1FF8
381C
700C
6006
C006
C006
C007
C006
C006
6006
700C
381C
1FF8
07E0
ENDCHAR
STARTCHAR 04E7
ENCODING 1255
SWIDTH 624 0
DWIDTH 13 0
BBX 11 15 1 0
BITMAP
1900
1980
0000
0000
1F00
3FC0
60E0
C060
C060
C060
C060
C060
60E0
3FC0
1F00
ENDCHAR
STARTCHAR 04E8
ENCODING 1256
SWIDTH 864 0
DWIDTH 18 0
BBX 16 15 1 0
BITMAP
07E0
1FF8
381C
700E
6006
C006
FFFF
FFFF
C006
E006
6006
700C
383C
1FF8
07E0
ENDCHAR
STARTCHAR 04E9
ENCODING 1257
SWIDTH 672 0
DWIDTH 14 0
BBX 12 11 1 0
BITMAP
1F00
3FC0
60E0
C060
C030
FFF0
C020
C060
60E0
3FC0
1F00
ENDCHAR
STARTCHAR 04EA
ENCODING 1258
SWIDTH 864 0
DWIDTH 18 0
BBX 16 18 1 0
BITMAP
0660
0660
0000
07E0
1FF8
381C
700E
6006
C006
FFFF
FFFF
C006
E006
6006
700C
383C
1FF8
07E0
ENDCHAR
STARTCHAR 04EB
ENCODING 1259
SWIDTH 672 0
DWIDTH 14 0
BBX 12 15 1 0
BITMAP
1980
1980
0000
0000
1F00
3FC0
60E0
C060
C030
FFF0
C020
C060
60E0
3FC0
1F00
ENDCHAR
STARTCHAR 04EC
ENCODING 1260
SWIDTH 720 0
DWIDTH 15 0
BBX 13 18 1 0
BITMAP
1980
1980
0000
3F00
FFC0
C0E0
0070
0030
0030
1FF8
1FF8
0038
0030
0030
0070
C0E0
FFC0
3F00
ENDCHAR
STARTCHAR 04ED
ENCODING 1261
SWIDTH 576 0
DWIDTH 12 0
BBX 10 15 1 0
BITMAP
2200
3600
0000
0000
7E00
FF00
8180
00C0
00C0
1FC0
00C0
00C0
8180
FF00
7E00
ENDCHAR
STARTCHAR 04EE
ENCODING 1262
SWIDTH 672 0
DWIDTH 14 0
BBX 13 18 1 0
BITMAP
1F80
0000
0000
C018
C030
6030
6060
3060
30C0
18C0
1980
0D80
0F00
0700
0600
0E00
7C00
7800
ENDCHAR
STARTCHAR 04EF
ENCODING 1263
SWIDTH 576 0
DWIDTH 12 0
BBX 12 19 0 -4
BITMAP
3F80
0000
0000
0000
C030
6060
6060
30C0
30C0
1980
1980
1900
0F00
0F00
0600
0600
0C00
FC00
F000
ENDCHAR
STARTCHAR 04F0
ENCODING 1264
SWIDTH 672 0
DWIDTH 14 0
BBX 13 19 1 0
BITMAP
1980
1980
0000
0000
C018
C030
6030
6060
3060
30C0
18C0
1980
0D80
0F00
0700
0600
0E00
7C00
7800
ENDCHAR
STARTCHAR 04F1
ENCODING 1265
SWIDTH 576 0
DWIDTH 12 0
BBX 12 19 0 -4
BITMAP
1980
1980
0000
0000
C030
6060
6060
30C0
30C0
1980
1980
1900
0F00
0F00
0600
0600
0C00
FC00
F000
ENDCHAR
STARTCHAR 04F2
ENCODING 1266
SWIDTH 672 0
DWIDTH 14 0
BBX 13 19 1 0
BITMAP
0660
0CC0
0980
0000
C018
C030
6030
6060
3060
30C0
18C0
1980
0D80
0F00
0700
0600
0E00
7C00
7800
ENDCHAR
STARTCHAR 04F3
ENCODING 1267
SWIDTH 576 0
DWIDTH 12 0
BBX 12 19 0 -4
BITMAP
06C0
0D80
1980
0000
C030
6060
6060
30C0
30C0
1980
1980
1900
0F00
0F00
0600
0600
0C00
FC00
F000
ENDCHAR
STARTCHAR 04F4
ENCODING 1268
SWIDTH 720 0
DWIDTH 15 0
BBX 12 19 1 0
BITMAP
1980
1980
0000
0000
C030
C030
C030
C030
C030
C030
E030
6070
7FF0
1FB0
0030
0030
0030
0030
0030
ENDCHAR
STARTCHAR 04F5
ENCODING 1269
SWIDTH 624 0
DWIDTH 13 0
BBX 10 15 1 0
BITMAP
3300
3300
0000
0000
C0C0
C0C0
C0C0
C0C0
C0C0
E1C0
7FC0
1CC0
00C0
00C0
00C0
ENDCHAR
STARTCHAR 04F6
ENCODING 1270
SWIDTH 576 0
DWIDTH 12 0
BBX 10 18 2 -3
BITMAP
FFC0
FFC0
C000
C000
C000
C000
C000
C000
C000
C000
C000
C000
C000
F800
F800
1800
1800
1800
ENDCHAR
STARTCHAR 04F7
ENCODING 1271
SWIDTH 480 0
DWIDTH 10 0
BBX 8 13 2 -2
BITMAP
FF
FF
C0
C0
C0
C0
C0
C0
C0
F0
F0
30
30
ENDCHAR
STARTCHAR 04F8
ENCODING 1272
SWIDTH 1008 0
DWIDTH 21 0
BBX 16 19 2 0
BITMAP
0260
0660
0000
0000
C003
C003
C003
C003
C003
FF03
FFE3
C063
C033
C033
C033
C033
C073
FFE3
FF83
ENDCHAR
STARTCHAR 04F9
ENCODING 1273
SWIDTH 816 0
DWIDTH 17 0
BBX 13 15 2 0
BITMAP
0CC0
0CC0
0000
0000
C018
C018
C018
C018
FF18
C398
C198
C198
C198
FF98
FE18
ENDCHAR
STARTCHAR 04FA
ENCODING 1274
SWIDTH 624 0
DWIDTH 13 0
BBX 11 19 1 -4
BITMAP
3FE0
3FE0
3000
3000
3000
3000
3000
FFC0
FFC0
3000
3000
3000
3000
3C00
3C00
0C00
0C00
FC00
F000
ENDCHAR
STARTCHAR 04FB
ENCODING 1275
SWIDTH 480 0
DWIDTH 10 0
BBX 9 15 1 -4
BITMAP
7F80
7F80
6000
6000
6000
FF00
6000
6000
6000
7800
7800
1800
1800
F800
F000
ENDCHAR
STARTCHAR 04FC
ENCODING 1276
SWIDTH 672 0
DWIDTH 14 0
BBX 12 19 1 -4
BITMAP
C030
6060
70E0
30C0
1980
1F00
0F00
0600
0F00
1980
39C0
30E0
6060
E070
C030
0030
0030
01F0
01E0
ENDCHAR
STARTCHAR 04FD
ENCODING 1277
SWIDTH 528 0
DWIDTH 11 0
BBX 10 15 1 -4
BITMAP
C1C0
6180
7300
3600
1C00
1C00
1E00
3700
6300
E180
C0C0
00C0
00C0
07C0
0780
ENDCHAR
STARTCHAR 04FE
ENCODING 1278
SWIDTH 672 0
DWIDTH 14 0
BBX 12 15 1 0
BITMAP
E030
6060
30E0
39C0
1980
0F80
7FE0
7FE0
0F00
1D80
19C0
30C0
7060
6070
C030
ENDCHAR
STARTCHAR 04FF
ENCODING 1279
SWIDTH 576 0
DWIDTH 12 0
BBX 10 11 1 0
BITMAP
C0C0
6180
3300
3E00
1E00
7F80
1E00
3300
7380
6180
C0C0
ENDCHAR
STARTCHAR 0510
ENCODING 1296
SWIDTH 624 0
DWIDTH 13 0
BBX 11 15 1 0
BITMAP
0FC0
3FE0
7020
6000
6000
6000
3F80
3F80
6000
C000
C000
E000
7020
7FE0
1F80
ENDCHAR
STARTCHAR 0511
ENCODING 1297
SWIDTH 528 0
DWIDTH 11 0
BBX 10 11 1 0
BITMAP
3F00
7F80
E000
E000
7000
3E00
E000
C000
E000
7FC0
3F00
ENDCHAR
STARTCHAR 0512
ENCODING 1298
SWIDTH 768 0
DWIDTH 16 0
BBX 14 19 0 -4
BITMAP
0FFC
0FFC
0C0C
0C0C
0C0C
0C0C
0C0C
080C
080C
180C
180C
180C
380C
F00C
E00C
000C
000C
007C
0078
ENDCHAR
STARTCHAR 0513
ENCODING 1299
SWIDTH 624 0
DWIDTH 13 0
BBX 11 15 0 -4
BITMAP
1FE0
1FE0
1860
1860
1860
1060
1060
3060
3060
F060
E060
0060
0060
03E0
03C0
ENDCHAR
STARTCHAR 051A
ENCODING 1306
SWIDTH 864 0
DWIDTH 18 0
BBX 16 18 1 -3
BITMAP
07E0
1FF8
381C
700C
6006
C006
C006
C007
C006
C006
6006
700E
381C
1FF8
07E0
00C1
007F
003E
ENDCHAR
STARTCHAR 051B
ENCODING 1307
SWIDTH 672 0
DWIDTH 14 0
BBX 11 15 1 -4
BITMAP
1F60
3FE0
60E0
C060
C060
C060
C060
C060
60E0
3FE0
1F60
0060
0060
0060
0060
ENDCHAR
STARTCHAR 051C
ENCODING 1308
SWIDTH 1104 0
DWIDTH 23 0
BBX 21 15 1 0
BITMAP
C07018
C07018
C07030
60F030
60D830
60D860
319860
318C60
318CC0
3B0CC0
1B06C0
1B0780
1E0780
0E0380
0E0380
ENDCHAR
STARTCHAR 051D
ENCODING 1309
SWIDTH 960 0
DWIDTH 20 0
BBX 19 11 0 0
BITMAP
C06060
60E060
60F0C0
30B0C0
31B0C0
319980
1B1980
1B0F00
1A0F00
0E0F00
0E0600
ENDCHAR
STARTCHAR 0524
ENCODING 1316
SWIDTH 864 0
DWIDTH 18 0
BBX 15 18 2 -3
BITMAP
FFF8
FFF8
C018
C018
C018
C018
C018
C018
C018
C018
C018
C018
C018
C01E
C01E
0006
0006
0006
ENDCHAR
STARTCHAR 0525
ENCODING 1317
SWIDTH 672 0
DWIDTH 14 0
BBX 12 13 2 -2
BITMAP
FFC0
FFC0
C0C0
C0C0
C0C0
C0C0
C0C0
C0C0
C0C0
C0F0
C0F0
0030
0030
ENDCHAR
STARTCHAR 0526
ENCODING 1318
SWIDTH 816 0
DWIDTH 17 0
BBX 14 18 2 -3
BITMAP
C000
C000
C000
C000
C000
DF80
FFE0
E070
C030
C030
C030
C030
C030
C03C
C03C
0004
0004
0004
ENDCHAR
STARTCHAR 0527
ENCODING 1319
SWIDTH 720 0
DWIDTH 15 0
BBX 12 18 2 -2
BITMAP
C000
C000
C000
C000
C000
CF00
FF80
E1C0
C0C0
C0C0
C0C0
C0C0
C0C0
C0C0
C0F0
C0F0
0030
0030
ENDCHAR
STARTCHAR 0528
ENCODING 1320
SWIDTH 816 0
DWIDTH 17 0
BBX 16 19 -1 -4
BITMAP
1803
1803
1803
1803
1803
1803
1803
1FFF
1FFF
1803
1803
1803
1803
1803
1803
1800
1800
F800
F000
ENDCHAR
STARTCHAR 0529
ENCODING 1321
SWIDTH 672 0
DWIDTH 14 0
BBX 14 15 -2 -4
BITMAP
0C0C
0C0C
0C0C
0C0C
0C0C
0FFC
0FFC
0C0C
0C0C
0C0C
0C0C
0C00
0C00
F800
F000
ENDCHAR
STARTCHAR 052E
ENCODING 1326
SWIDTH 816 0
DWIDTH 17 0
BBX 16 18 0 -3
BITMAP
0FFC
0FFC
0C0C
0C0C
0C0C
0C0C
0C0C
080C
080C
180C
180C
180C
380C
F00F
E00F
0003
0003
0003
ENDCHAR
STARTCHAR 052F
ENCODING 1327
SWIDTH 672 0
DWIDTH 14 0
BBX 13 13 0 -2
BITMAP
1FE0
1FE0
1860
1860
1860
1060
1060
3060
3060
F078
E078
0018
0018
ENDCHAR
STARTCHAR 1E08
ENCODING 7688
SWIDTH 720 0
DWIDTH 15 0
BBX 13 23 1 -4
BITMAP
0060
00C0
0180
0000
07E0
1FF0
3838
7000
6000
C000
C000
C000
C000
C000
6000
7000
3838
1FF0
07E0
0100
0380
0080
0780
ENDCHAR
STARTCHAR 1E09
ENCODING 7689
SWIDTH 576 0
DWIDTH 12 0
BBX 10 19 1 -4
BITMAP
0300
0600
0C00
0000
1F00
3FC0
60C0
C000
C000
C000
C000
C000
60C0
7FC0
1F00
0C00
0E00
0200
1E00
ENDCHAR
STARTCHAR 1E0C
ENCODING 7692
SWIDTH 816 0
DWIDTH 17 0
BBX 14 19 2 -4
BITMAP
FF80
FFE0
C070
C018
C01C
C00C
C00C
C00C
C00C
C00C
C01C
C018
C070
FFE0
FF80
0000
0000
0600
0600
ENDCHAR
STARTCHAR 1E0D
ENCODING 7693
SWIDTH 672 0
DWIDTH 14 0
BBX 11 20 1 -4
BITMAP
0060
0060
0060
0060
0060
1F60
7FE0
60E0
C060
C060
C060
C060
C060
60E0
7FE0
1F60
0000
0000
0600
0600
ENDCHAR
STARTCHAR 1E0E
ENCODING 7694
SWIDTH 816 0
DWIDTH 17 0
BBX 14 18 2 -3
BITMAP
FF80
FFE0
C070
C018
C01C
C00C
C00C
C00C
C00C
C00C
C01C
C018
C070
FFE0
FF80
0000
0000
1F80
ENDCHAR
STARTCHAR 1E0F
ENCODING 7695
SWIDTH 672 0
DWIDTH 14 0
BBX 11 19 1 -3
BITMAP
0060
0060
0060
0060
0060
1F60
7FE0
60E0
C060
C060
C060
C060
C060
60E0
7FE0
1F60
0000
0000
1FC0
ENDCHAR
STARTCHAR 1E14
ENCODING 7700
SWIDTH 672 0
DWIDTH 14 0
BBX 11 21 2 0
BITMAP
1800
0C00
0000
3F80
0000
0000
FFC0
FFC0
C000
C000
C000
C000
FFC0
FFC0
C000
C000
C000
C000
C000
FFE0
FFE0
ENDCHAR
STARTCHAR 1E15
ENCODING 7701
SWIDTH 624 0
DWIDTH 13 0
BBX 11 18 1 0
BITMAP
1800
0C00
0000
0000
3F80
0000
0000
1F00
7F80
60C0
C060
C060
FFE0
C000
C000
60C0
3FC0
1F00
ENDCHAR
STARTCHAR 1E16
ENCODING 7702
SWIDTH 672 0
DWIDTH 14 0
BBX 11 21 2 0
BITMAP
0700
0C00
0000
3F80
0000
0000
FFC0
FFC0
C000
C000
C000
C000
FFC0
FFC0
C000
C000
C000
C000
C000
FFE0
FFE0
ENDCHAR
STARTCHAR 1E17
ENCODING 7703
SWIDTH 624 0
DWIDTH 13 0
BBX 11 18 1 0
BITMAP
0300
0600
0800
0000
3F80
0000
0000
1F00
7F80
60C0
C060
C060
FFE0
C000
C000
60C0
3FC0
1F00
ENDCHAR
STARTCHAR 1E1C
ENCODING 7708
SWIDTH 672 0
DWIDTH 14 0
BBX 11 23 2 -4
BITMAP
2180
3100
1E00
0000
FFC0
FFC0
C000
C000
C000
C000
FFC0
FFC0
C000
C000
C000
C000
C000
FFE0
FFE0
0400
0600
0300
1E00
ENDCHAR
STARTCHAR 1E1D
ENCODING 7709
SWIDTH 624 0
DWIDTH 13 0
BBX 11 19 1 -4
BITMAP
2180
3100
1E00
0000
1F00
7F80
60C0
C060
C060
FFE0
C000
C000
60C0
3FC0
1F00
0400
0E00
0200
1E00
ENDCHAR
STARTCHAR 1E20
ENCODING 7712
SWIDTH 768 0
DWIDTH 16 0
BBX 13 18 1 0
BITMAP
0FE0
0000
0000
07E0
1FF8
3818
7000
6000
C000
C000
C018
C018
C018
6018
7018
3818
1FF8
07E0
ENDCHAR
STARTCHAR 1E21
ENCODING 7713
SWIDTH 672 0
DWIDTH 14 0
BBX 11 19 1 -4
BITMAP
3F80
0000
0000
0000
1F20
7FA0
60E0
C060
C060
C060
C060
E060
70E0
3FE0
0E60
0060
40E0
7FC0
1F80
ENDCHAR
STARTCHAR 1E24
ENCODING 7716
SWIDTH 816 0
DWIDTH 17 0
BBX 13 19 2 -4
BITMAP
C018
C018
C018
C018
C018
C018
FFF8
FFF8
C018
C018
C018
C018
C018
C018
C018
0000
0000
0600
0600
ENDCHAR
STARTCHAR 1E25
ENCODING 7717
SWIDTH 672 0
DWIDTH 14 0
BBX 10 20 2 -4
BITMAP
C000
C000
C000
C000
C000
DF00
FF80
E1C0
C0C0
C0C0
C0C0
C0C0
C0C0
C0C0
C0C0
C0C0
0000
0000
0C00
0C00
ENDCHAR
STARTCHAR 1E2A
ENCODING 7722
SWIDTH 816 0
DWIDTH 17 0
BBX 13 19 2 -4
BITMAP
C018
C018
C018
C018
C018
C018
FFF8
FFF8
C018
C018
C018
C018
C018
C018
C018
0000
0000
18C0
0F80
ENDCHAR
STARTCHAR 1E2B
ENCODING 7723
SWIDTH 672 0
DWIDTH 14 0
BBX 10 20 2 -4
BITMAP
C000
C000
C000
C000
C000
DF00
FF80
E1C0
C0C0
C0C0
C0C0
C0C0
C0C0
C0C0
C0C0
C0C0
0000
0000
3100
1E00
ENDCHAR
STARTCHAR 1E2E
ENCODING 7726
SWIDTH 288 0
DWIDTH 6 0
BBX 6 21 0 0
BITMAP
1C
30
00
CC
CC
00
30
30
30
30
30
30
30
30
30
30
30
30
30
30
30
ENDCHAR
STARTCHAR 1E2F
ENCODING 7727
SWIDTH 288 0
DWIDTH 6 0
BBX 6 18 0 0
BITMAP
1C
30
00
CC
CC
00
00
30
30
30
30
30
30
30
30
30
30
30
ENDCHAR
STARTCHAR 1E36
ENCODING 7734
SWIDTH 576 0
DWIDTH 12 0
BBX 10 19 2 -4
BITMAP
C000
C000
C000
C000
C000
C000
C000
C000
C000
C000
C000
C000
C000
FFC0
FFC0
0000
0000
0C00
0C00
ENDCHAR
STARTCHAR 1E37
ENCODING 7735
SWIDTH 288 0
DWIDTH 6 0
BBX 2 20 2 -4
BITMAP
C0
C0
C0
C0
C0
C0
C0
C0
C0
C0
C0
C0
C0
C0
C0
C0
00
00
C0
C0
ENDCHAR
STARTCHAR 1E3A
ENCODING 7738
SWIDTH 576 0
DWIDTH 12 0
BBX 10 18 2 -3
BITMAP
C000
C000
C000
C000
C000
C000
C000
C000
C000
C000
C000
C000
C000
FFC0
FFC0
0000
0000
3F80
ENDCHAR
STARTCHAR 1E3B
ENCODING 7739
SWIDTH 288 0
DWIDTH 6 0
BBX 7 19 -1 -3
BITMAP
18
18
18
18
18
18
18
18
18
18
18
18
18
18
18
18
00
00
FE
ENDCHAR
STARTCHAR 1E42
ENCODING 7746
SWIDTH 960 0
DWIDTH 20 0
BBX 16 19 2 -4
BITMAP
C003
E007
E007
F00F
F01B
D81B
CC33
CC33
C663
C663
C3C3
C383
C183
C003
C003
0000
0000
0180
0180
ENDCHAR
STARTCHAR 1E43
ENCODING 7747
SWIDTH 1056 0
DWIDTH 22 0
BBX 18 15 2 -4
BITMAP
DF1F00
FFBF80
E1E1C0
C0C0C0
C0C0C0
C0C0C0
C0C0C0
C0C0C0
C0C0C0
C0C0C0
C0C0C0
000000
000000
00C000
00C000
ENDCHAR
STARTCHAR 1E44
ENCODING 7748
SWIDTH 816 0
DWIDTH 17 0
BBX 13 19 2 0
BITMAP
0600
0700
0000
0000
C018
E018
F018
F818
D818
CC18
CE18
C718
C398
C198
C1D8
C0F8
C078
C038
C018
ENDCHAR
STARTCHAR 1E45
ENCODING 7749
SWIDTH 672 0
DWIDTH 14 0
BBX 10 16 2 0
BITMAP
0C00
0C00
0000
0000
0000
DF00
FF80
E1C0
C0C0
C0C0
C0C0
C0C0
C0C0
C0C0
C0C0
C0C0
ENDCHAR
STARTCHAR 1E46
ENCODING 7750
SWIDTH 816 0
DWIDTH 17 0
BBX 13 19 2 -4
BITMAP
C018
E018
F018
F818
D818
CC18
CE18
C718
C398
C198
C1D8
C0F8
C078
C038
C018
0000
0000
0600
0600
ENDCHAR
STARTCHAR 1E47
ENCODING 7751
SWIDTH 672 0
DWIDTH 14 0
BBX 10 15 2 -4
BITMAP
DF00
FF80
E1C0
C0C0
C0C0
C0C0
C0C0
C0C0
C0C0
C0C0
C0C0
0000
0000
0C00
0C00
ENDCHAR
STARTCHAR 1E48
ENCODING 7752
SWIDTH 816 0
DWIDTH 17 0
BBX 13 18 2 -3
BITMAP
C018
E018
F018
F818
D818
CC18
CE18
C718
C398
C198
C1D8
C0F8
C078
C038
C018
0000
0000
1FC0
ENDCHAR
STARTCHAR 1E49
ENCODING 7753
SWIDTH 672 0
DWIDTH 14 0
BBX 10 14 2 -3
BITMAP
DF00
FF80
E1C0
C0C0
C0C0
C0C0
C0C0
C0C0
C0C0
C0C0
C0C0
0000
0000
3F80
ENDCHAR
STARTCHAR 1E4C
ENCODING 7756
SWIDTH 864 0
DWIDTH 18 0
BBX 15 21 1 0
BITMAP
00C0
0180
0000
0720
0CE0
0000
07E0
1FF8
383C
700C
6006
C006
C006
C006
C006
C006
6006
700C
381C
1FF8
07E0
ENDCHAR
STARTCHAR 1E4D
ENCODING 7757
SWIDTH 624 0
DWIDTH 13 0
BBX 11 18 1 0
BITMAP
0300
0600
0000
1C80
2780
0000
0000
1F00
3FC0
60C0
C060
C060
C060
C060
C060
60C0
3FC0
1F00
ENDCHAR
STARTCHAR 1E4E
ENCODING 7758
SWIDTH 864 0
DWIDTH 18 0
BBX 15 21 1 0
BITMAP
0660
0660
0000
0720
0CE0
0000
07E0
1FF8
383C
700C
6006
C006
C006
C006
C006
C006
6006
700C
381C
1FF8
07E0
ENDCHAR
STARTCHAR 1E4F
ENCODING 7759
SWIDTH 624 0
DWIDTH 13 0
BBX 11 18 1 0
BITMAP
1900
1900
0000
1C80
2780
0000
0000
1F00
3FC0
60C0
C060
C060
C060
C060
C060
60C0
3FC0
1F00
ENDCHAR
STARTCHAR 1E50
ENCODING 7760
SWIDTH 864 0
DWIDTH 18 0
BBX 15 21 1 0
BITMAP
0700
0180
0000
0FE0
0000
0000
07E0
1FF8
383C
700C
6006
C006
C006
C006
C006
C006
6006
700C
381C
1FF8
07E0
ENDCHAR
STARTCHAR 1E51
ENCODING 7761
SWIDTH 624 0
DWIDTH 13 0
BBX 11 18 1 0
BITMAP
1800
0C00
0200
0000
3F80
0000
0000
1F00
3FC0
60C0
C060
C060
C060
C060
C060
60C0
3FC0
1F00
ENDCHAR
STARTCHAR 1E52
ENCODING 7762
SWIDTH 864 0
DWIDTH 18 0
BBX 15 21 1 0
BITMAP
00C0
0180
0000
0FE0
0000
0000
07E0
1FF8
383C
700C
6006
C006
C006
C006
C006
C006
6006
700C
381C
1FF8
07E0
ENDCHAR
STARTCHAR 1E53
ENCODING 7763
SWIDTH 624 0
DWIDTH 13 0
BBX 11 18 1 0
BITMAP
0300
0600
0000
0000
3F80
0000
0000
1F00
3FC0
60C0
C060
C060
C060
C060
C060
60C0
3FC0
1F00
ENDCHAR
STARTCHAR 1E5A
ENCODING 7770
SWIDTH 720 0
DWIDTH 15 0
BBX 12 19 2 -4
BITMAP
FF80
FFC0
C060
C070
C030
C030
C030
C070
C0E0
FFC0
FF80
C1C0
C0C0
C060
C030
0000
0000
0600
0600
ENDCHAR
STARTCHAR 1E5B
ENCODING 7771
SWIDTH 432 0
DWIDTH 9 0
BBX 6 15 2 -4
BITMAP
DC
FC
E0
C0
C0
C0
C0
C0
C0
C0
C0
00
00
C0
C0
ENDCHAR
STARTCHAR 1E5E
ENCODING 7774
SWIDTH 720 0
DWIDTH 15 0
BBX 12 18 2 -3
BITMAP
FF80
FFC0
C060
C070
C030
C030
C030
C070
C0E0
FFC0
FF80
C1C0
C0C0
C060
C030
0000
0000
3F80
ENDCHAR
STARTCHAR 1E5F
ENCODING 7775
SWIDTH 432 0
DWIDTH 9 0
BBX 9 14 -1 -3
BITMAP
1B80
1F80
1C00
1800
1800
1800
1800
1800
1800
1800
1800
0000
0000
FE00
ENDCHAR
STARTCHAR 1E60
ENCODING 7776
SWIDTH 624 0
DWIDTH 13 0
BBX 11 19 1 0
BITMAP
0600
0E00
0000
0000
1F80
7FC0
6040
C000
C000
E000
7000
3F00
0FC0
00E0
0060
0060
C0E0
FFC0
3F00
ENDCHAR
STARTCHAR 1E61
ENCODING 7777
SWIDTH 480 0
DWIDTH 10 0
BBX 9 16 1 0
BITMAP
1800
1800
0000
0000
0000
3E00
FF00
C100
C000
E000
7E00
0F00
0180
8180
FF00
7E00
ENDCHAR
STARTCHAR 1E62
ENCODING 7778
SWIDTH 624 0
DWIDTH 13 0
BBX 11 19 1 -4
BITMAP
1F80
7FC0
6040
C000
C000
E000
7000
3F00
0FC0
00E0
0060
0060
C0E0
FFC0
3F00
0000
0000
0600
0600
ENDCHAR
STARTCHAR 1E63
ENCODING 7779
SWIDTH 480 0
DWIDTH 10 0
BBX 9 15 1 -4
BITMAP
3E00
FF00
C100
C000
E000
7E00
0F00
0180
8180
FF00
7E00
0000
0000
1800
1800
ENDCHAR
STARTCHAR 1E64
ENCODING 7780
SWIDTH 624 0
DWIDTH 13 0
BBX 11 21 1 0
BITMAP
0600
0600
0000
0300
0600
0000
1F80
7FC0
6040
C000
C000
E000
7000
3F00
0FC0
00E0
0060
0060
C0E0
FFC0
3F00
ENDCHAR
STARTCHAR 1E65
ENCODING 7781
SWIDTH 480 0
DWIDTH 10 0
BBX 9 18 1 0
BITMAP
1800
1800
0000
0600
0800
1000
0000
3E00
FF00
C100
C000
E000
7E00
0F00
0180
8180
FF00
7E00
ENDCHAR
STARTCHAR 1E66
ENCODING 7782
SWIDTH 624 0
DWIDTH 13 0
BBX 11 21 1 0
BITMAP
0600
0600
0000
1980
0E00
0000
1F80
7FC0
6040
C000
C000
E000
7000
3F00
0FC0
00E0
0060
0060
C0E0
FFC0
3F00
ENDCHAR
STARTCHAR 1E67
ENCODING 7783
SWIDTH 480 0
DWIDTH 10 0
BBX 9 18 1 0
BITMAP
1800
1800
0000
6600
3C00
0000
0000
3E00
FF00
C100
C000
E000
7E00
0F00
0180
8180
FF00
7E00
ENDCHAR
STARTCHAR 1E68
ENCODING 7784
SWIDTH 624 0
DWIDTH 13 0
BBX 11 23 1 -4
BITMAP
0600
0E00
0000
0000
1F80
7FC0
6040
C000
C000
E000
7000
3F00
0FC0
00E0
0060
0060
C0E0
FFC0
3F00
0000
0000
0600
0600
ENDCHAR
STARTCHAR 1E69
ENCODING 7785
SWIDTH 480 0
DWIDTH 10 0
BBX 9 20 1 -4
BITMAP
1800
1800
0000
0000
0000
3E00
FF00
C100
C000
E000
7E00
0F00
0180
8180
FF00
7E00
0000
0000
1800
1800
ENDCHAR
STARTCHAR 1E6C
ENCODING 7788
SWIDTH 576 0
DWIDTH 12 0
BBX 12 19 0 -4
BITMAP
FFF0
FFF0
0600
0600
0600
0600
0600
0600
0600
0600
0600
0600
0600
0600
0600
0000
0000
0600
0600
ENDCHAR
STARTCHAR 1E6D
ENCODING 7789
SWIDTH 432 0
DWIDTH 9 0
BBX 8 17 0 -4
BITMAP
30
30
FE
FE
30
30
30
30
30
30
30
1F
0F
00
00
0C
0C
ENDCHAR
STARTCHAR 1E6E
ENCODING 7790
SWIDTH 576 0
DWIDTH 12 0
BBX 12 18 0 -3
BITMAP
FFF0
FFF0
0600
0600
0600
0600
0600
0600
0600
0600
0600
0600
0600
0600
0600
0000
0000
1F80
ENDCHAR
STARTCHAR 1E6F
ENCODING 7791
SWIDTH 432 0
DWIDTH 9 0
BBX 9 16 0 -3
BITMAP
3000
3000
FE00
FE00
3000
3000
3000
3000
3000
3000
3000
1F00
0F00
0000
0000
3F80
ENDCHAR
STARTCHAR 1E78
ENCODING 7800
SWIDTH 768 0
DWIDTH 16 0
BBX 12 21 2 0
BITMAP
0380
0600
0000
1EC0
1380
0000
C030
C030
C030
C030
C030
C030
C030
C030
C030
C030
C030
6030
7060
3FE0
1F80
ENDCHAR
STARTCHAR 1E79
ENCODING 7801
SWIDTH 672 0
DWIDTH 14 0
BBX 10 18 2 0
BITMAP
0700
0C00
0000
3900
2700
0000
0000
C0C0
C0C0
C0C0
C0C0
C0C0
C0C0
C0C0
C0C0
E1C0
7FC0
3EC0
ENDCHAR
STARTCHAR 1E7A
ENCODING 7802
SWIDTH 768 0
DWIDTH 16 0
BBX 12 22 2 0
BITMAP
1980
1980
0000
0000
1FC0
0000
0000
C030
C030
C030
C030
C030
C030
C030
C030
C030
C030
C030
6030
7060
3FE0
1F80
ENDCHAR
STARTCHAR 1E7B
ENCODING 7803
SWIDTH 672 0
DWIDTH 14 0
BBX 10 18 2 0
BITMAP
3300
3300
0000
0000
3F00
0000
0000
C0C0
C0C0
C0C0
C0C0
C0C0
C0C0
C0C0
C0C0
E1C0
7FC0
3EC0
ENDCHAR
STARTCHAR 1E80
ENCODING 7808
SWIDTH 1104 0
DWIDTH 23 0
BBX 22 19 1 0
BITMAP
00C000
006000
003000
000000
C0300C
C07018
E07818
607818
60D830
70CC30
30CC30
318C60
398660
198660
1B06C0
1B03C0
0F03C0
0E0380
0E0180
ENDCHAR
STARTCHAR 1E81
ENCODING 7809
SWIDTH 912 0
DWIDTH 19 0
BBX 18 15 0 0
BITMAP
038000
01C000
006000
000000
C0C040
60E0C0
60E0C0
61B180
31B180
333180
131B00
1A1B00
1E0A00
0E0E00
0C0E00
ENDCHAR
STARTCHAR 1E82
ENCODING 7810
SWIDTH 1104 0
DWIDTH 23 0
BBX 22 19 1 0
BITMAP
001C00
003800
006000
000000
C0300C
C07018
E07818
607818
60D830
70CC30
30CC30
318C60
398660
198660
1B06C0
1B03C0
0F03C0
0E0380
0E0180
ENDCHAR
STARTCHAR 1E83
ENCODING 7811
SWIDTH 912 0
DWIDTH 19 0
BBX 18 15 0 0
BITMAP
003000
006000
00C000
000000
C0C040
60E0C0
60E0C0
61B180
31B180
333180
131B00
1A1B00
1E0A00
0E0E00
0C0E00
ENDCHAR
STARTCHAR 1E84
ENCODING 7812
SWIDTH 1104 0
DWIDTH 23 0
BBX 22 19 1 0
BITMAP
00CC00
00CC00
000000
000000
C0300C
C07018
E07818
607818
60D830
70CC30
30CC30
318C60
398660
198660
1B06C0
1B03C0
0F03C0
0E0380
0E0180
ENDCHAR
STARTCHAR 1E85
ENCODING 7813
SWIDTH 912 0
DWIDTH 19 0
BBX 18 15 0 0
BITMAP
033000
033000
000000
000000
C0C040
60E0C0
60E0C0
61B180
31B180
333180
131B00
1A1B00
1E0A00
0E0E00
0C0E00
ENDCHAR
STARTCHAR 1E8E
ENCODING 7822
SWIDTH 624 0
DWIDTH 13 0
BBX 13 19 0 0
BITMAP
0300
0300
0000
0000
C018
6018
7030
3060
1860
18C0
0CC0
0F80
0780
0300
0300
0300
0300
0300
0300
ENDCHAR
STARTCHAR 1E8F
ENCODING 7823
SWIDTH 576 0
DWIDTH 12 0
BBX 11 20 0 -4
BITMAP
0600
0E00
0000
0000
0000
C060
6060
6060
30C0
30C0
3180
1980
1B00
0F00
0E00
0600
0600
0C00
F800
F000
ENDCHAR
STARTCHAR 1E92
ENCODING 7826
SWIDTH 672 0
DWIDTH 14 0
BBX 12 19 1 -4
BITMAP
FFF0
FFF0
0060
00C0
0180
0380
0700
0600
0C00
1C00
3800
3000
6000
FFF0
FFF0
0000
0000
0600
0600
ENDCHAR
STARTCHAR 1E93
ENCODING 7827
SWIDTH 528 0
DWIDTH 11 0
BBX 9 15 1 -4
BITMAP
FF80
FF80
0300
0600
0C00
1C00
3800
3000
6000
FF80
FF80
0000
0000
0C00
0C00
ENDCHAR
STARTCHAR 1E97
ENCODING 7831
SWIDTH 432 0
DWIDTH 9 0
BBX 8 17 0 0
BITMAP
CC
CC
00
00
30
30
FE
FE
30
30
30
30
30
30
30
1F
0F
ENDCHAR
STARTCHAR 1E9E
ENCODING 7838
SWIDTH 768 0
DWIDTH 16 0
BBX 13 15 2 0
BITMAP
0FC0
3FE0
7020
6060
C0C0
C180
C380
C3E0
C030
C038
C018
C018
C030
C7F0
C7C0
ENDCHAR
STARTCHAR 1EA0
ENCODING 7840
SWIDTH 720 0
DWIDTH 15 0
BBX 15 19 0 -4
BITMAP
0380
0380
06C0
06C0
0660
0C60
0C70
1830
1830
3FF8
3FF8
300C
600C
600E
C006
0000
0000
0180
0180
ENDCHAR
STARTCHAR 1EA1
ENCODING 7841
SWIDTH 576 0
DWIDTH 12 0
BBX 10 15 1 -4
BITMAP
3F00
FF80
4180
00C0
00C0
7FC0
E0C0
C0C0
C1C0
7FC0
3EC0
0000
0000
0C00
0C00
ENDCHAR
STARTCHAR 1EA2
ENCODING 7842
SWIDTH 720 0
DWIDTH 15 0
BBX 15 20 0 0
BITMAP
0380
00C0
00C0
0080
0000
0380
0380
06C0
06C0
0660
0C60
0C70
1830
1830
3FF8
3FF8
300C
600C
600E
C006
ENDCHAR
STARTCHAR 1EA3
ENCODING 7843
SWIDTH 576 0
DWIDTH 12 0
BBX 10 17 1 0
BITMAP
1E00
0200
0200
0600
0400
0000
3F00
FF80
4180
00C0
00C0
7FC0
E0C0
C0C0
C1C0
7FC0
3EC0
ENDCHAR
STARTCHAR 1EA4
ENCODING 7844
SWIDTH 720 0
DWIDTH 15 0
BBX 15 20 0 0
BITMAP
001C
0030
0380
0660
0000
0380
0380
06C0
06C0
0660
0C60
0C70
1830
1830
3FF8
3FF8
300C
600C
600E
C006
ENDCHAR
STARTCHAR 1EA5
ENCODING 7845
SWIDTH 576 0
DWIDTH 12 0
BBX 11 17 1 0
BITMAP
0060
00C0
1E00
3300
0000
0000
3F00
FF80
4180
00C0
00C0
7FC0
E0C0
C0C0
C1C0
7FC0
3EC0
ENDCHAR
STARTCHAR 1EA6
ENCODING 7846
SWIDTH 720 0
DWIDTH 15 0
BBX 15 20 0 0
BITMAP
0060
0030
0380
0660
0000
0380
0380
06C0
06C0
0660
0C60
0C70
1830
1830
3FF8
3FF8
300C
600C
600E
C006
ENDCHAR
STARTCHAR 1EA7
ENCODING 7847
SWIDTH 576 0
DWIDTH 12 0
BBX 10 17 1 0
BITMAP
0300
0180
1E00
3300
0000
0000
3F00
FF80
4180
00C0
00C0
7FC0
E0C0
C0C0
C1C0
7FC0
3EC0
ENDCHAR
STARTCHAR 1EA8
ENCODING 7848
SWIDTH 720 0
DWIDTH 15 0
BBX 15 21 0 0
BITMAP
0060
0010
0010
0380
0660
0000
0380
0380
06C0
06C0
0660
0C60
0C70
1830
1830
3FF8
3FF8
300C
600C
600E
C006
ENDCHAR
STARTCHAR 1EA9
ENCODING 7849
SWIDTH 576 0
DWIDTH 12 0
BBX 10 18 1 0
BITMAP
0380
0080
0080
1E00
3300
0000
0000
3F00
FF80
4180
00C0
00C0
7FC0
E0C0
C0C0
C1C0
7FC0
3EC0
ENDCHAR
STARTCHAR 1EAA
ENCODING 7850
SWIDTH 720 0
DWIDTH 15 0
BBX 15 21 0 0
BITMAP
0720
09C0
0000
0380
0660
0000
0380
0380
06C0
06C0
0660
0C60
0C70
1830
1830
3FF8
3FF8
300C
600C
600E
C006
ENDCHAR
STARTCHAR 1EAB
ENCODING 7851
SWIDTH 576 0
DWIDTH 12 0
BBX 10 18 1 0
BITMAP
3900
2700
0000
1E00
3300
0000
0000
3F00
FF80
4180
00C0
00C0
7FC0
E0C0
C0C0
C1C0
7FC0
3EC0
ENDCHAR
STARTCHAR 1EAC
ENCODING 7852
SWIDTH 720 0
DWIDTH 15 0
BBX 15 23 0 -4
BITMAP
0380
06C0
0C60
0000
0380
0380
06C0
06C0
0660
0C60
0C70
1830
1830
3FF8
3FF8
300C
600C
600E
C006
0000
0000
0180
0180
ENDCHAR
STARTCHAR 1EAD
ENCODING 7853
SWIDTH 576 0
DWIDTH 12 0
BBX 10 19 1 -4
BITMAP
0E00
1B00
2180
0000
3F00
FF80
4180
00C0
00C0
7FC0
E0C0
C0C0
C1C0
7FC0
3EC0
0000
0000
0C00
0C00
ENDCHAR
STARTCHAR 1EAE
ENCODING 7854
SWIDTH 720 0
DWIDTH 15 0
BBX 15 21 0 0
BITMAP
00C0
0180
0000
0C60
07C0
0000
0380
0380
06C0
06C0
0660
0C60
0C70
1830
1830
3FF8
3FF8
300C
600C
600E
C006
ENDCHAR
STARTCHAR 1EAF
ENCODING 7855
SWIDTH 576 0
DWIDTH 12 0
BBX 10 18 1 0
BITMAP
0300
0400
0800
2100
1F00
0000
0000
3F00
FF80
4180
00C0
00C0
7FC0
E0C0
C0C0
C1C0
7FC0
3EC0
ENDCHAR
STARTCHAR 1EB0
ENCODING 7856
SWIDTH 720 0
DWIDTH 15 0
BBX 15 21 0 0
BITMAP
0600
0300
0080
0C60
07C0
0000
0380
0380
06C0
06C0
0660
0C60
0C70
1830
1830
3FF8
3FF8
300C
600C
600E
C006
ENDCHAR
STARTCHAR 1EB1
ENCODING 7857
SWIDTH 576 0
DWIDTH 12 0
BBX 10 18 1 0
BITMAP
3800
0C00
0000
2100
1F00
0000
0000
3F00
FF80
4180
00C0
00C0
7FC0
E0C0
C0C0
C1C0
7FC0
3EC0
ENDCHAR
STARTCHAR 1EB2
ENCODING 7858
SWIDTH 720 0
DWIDTH 15 0
BBX 15 21 0 0
BITMAP
0380
0080
0180
0C60
07C0
0000
0380
0380
06C0
06C0
0660
0C60
0C70
1830
1830
3FF8
3FF8
300C
600C
600E
C006
ENDCHAR
STARTCHAR 1EB3
ENCODING 7859
SWIDTH 576 0
DWIDTH 12 0
BBX 10 18 1 0
BITMAP
0C00
0200
0400
2100
1F00
0000
0000
3F00
FF80
4180
00C0
00C0
7FC0
E0C0
C0C0
C1C0
7FC0
3EC0
ENDCHAR
STARTCHAR 1EB4
ENCODING 7860
SWIDTH 720 0
DWIDTH 15 0
BBX 15 21 0 0
BITMAP
0720
09E0
0000
0C60
07C0
0000
0380
0380
06C0
06C0
0660
0C60
0C70
1830
1830
3FF8
3FF8
300C
600C
600E
C006
ENDCHAR
STARTCHAR 1EB5
ENCODING 7861
SWIDTH 576 0
DWIDTH 12 0
BBX 10 18 1 0
BITMAP
3900
2700
0000
2100
1F00
0000
0000
3F00
FF80
4180
00C0
00C0
7FC0
E0C0
C0C0
C1C0
7FC0
3EC0
ENDCHAR
STARTCHAR 1EB6
ENCODING 7862
SWIDTH 720 0
DWIDTH 15 0
BBX 15 23 0 -4
BITMAP
0C20
0460
03C0
0000
0380
0380
06C0
06C0
0660
0C60
0C70
1830
1830
3FF8
3FF8
300C
600C
600E
C006
0000
0000
0180
0180
ENDCHAR
STARTCHAR 1EB7
ENCODING 7863
SWIDTH 576 0
DWIDTH 12 0
BBX 10 19 1 -4
BITMAP
2100
3300
1E00
0000
3F00
FF80
4180
00C0
00C0
7FC0
E0C0
C0C0
C1C0
7FC0
3EC0
0000
0000
0C00
0C00
ENDCHAR
STARTCHAR 1EB8
ENCODING 7864
SWIDTH 672 0
DWIDTH 14 0
BBX 11 19 2 -4
BITMAP
FFC0
FFC0
C000
C000
C000
C000
FFC0
FFC0
C000
C000
C000
C000
C000
FFE0
FFE0
0000
0000
0600
0400
ENDCHAR
STARTCHAR 1EB9
ENCODING 7865
SWIDTH 624 0
DWIDTH 13 0
BBX 11 15 1 -4
BITMAP
1F00
7F80
60C0
C060
C060
FFE0
C000
C000
60C0
3FC0
1F00
0000
0000
0C00
0C00
ENDCHAR
STARTCHAR 1EBA
ENCODING 7866
SWIDTH 672 0
DWIDTH 14 0
BBX 11 20 2 0
BITMAP
1E00
0200
0200
0600
0000
FFC0
FFC0
C000
C000
C000
C000
FFC0
FFC0
C000
C000
C000
C000
C000
FFE0
FFE0
ENDCHAR
STARTCHAR 1EBB
ENCODING 7867
SWIDTH 624 0
DWIDTH 13 0
BBX 11 17 1 0
BITMAP
0E00
0200
0200
0600
0000
0000
1F00
7F80
60C0
C060
C060
FFE0
C000
C000
60C0
3FC0
1F00
ENDCHAR
STARTCHAR 1EBC
ENCODING 7868
SWIDTH 672 0
DWIDTH 14 0
BBX 11 19 2 0
BITMAP
1800
2580
2300
0000
FFC0
FFC0
C000
C000
C000
C000
FFC0
FFC0
C000
C000
C000
C000
C000
FFE0
FFE0
ENDCHAR
STARTCHAR 1EBD
ENCODING 7869
SWIDTH 624 0
DWIDTH 13 0
BBX 11 15 1 0
BITMAP
1800
2580
2300
0000
1F00
7F80
60C0
C060
C060
FFE0
C000
C000
60C0
3FC0
1F00
ENDCHAR
STARTCHAR 1EBE
ENCODING 7870
SWIDTH 672 0
DWIDTH 14 0
BBX 11 20 2 0
BITMAP
0060
00C0
0E00
3300
0000
FFC0
FFC0
C000
C000
C000
C000
FFC0
FFC0
C000
C000
C000
C000
C000
FFE0
FFE0
ENDCHAR
STARTCHAR 1EBF
ENCODING 7871
SWIDTH 624 0
DWIDTH 13 0
BBX 11 17 1 0
BITMAP
0060
00C0
0E00
3300
0000
0000
1F00
7F80
60C0
C060
C060
FFE0
C000
C000
60C0
3FC0
1F00
ENDCHAR
STARTCHAR 1EC0
ENCODING 7872
SWIDTH 672 0
DWIDTH 14 0
BBX 11 20 2 0
BITMAP
0380
00C0
0E00
3300
0000
FFC0
FFC0
C000
C000
C000
C000
FFC0
FFC0
C000
C000
C000
C000
C000
FFE0
FFE0
ENDCHAR
STARTCHAR 1EC1
ENCODING 7873
SWIDTH 624 0
DWIDTH 13 0
BBX 11 17 1 0
BITMAP
0300
0080
0E40
3300
0000
0000
1F00
7F80
60C0
C060
C060
FFE0
C000
C000
60C0
3FC0
1F00
ENDCHAR
STARTCHAR 1EC2
ENCODING 7874
SWIDTH 672 0
DWIDTH 14 0
BBX 11 21 2 0
BITMAP
0180
0040
0080
0E00
3300
0000
FFC0
FFC0
C000
C000
C000
C000
FFC0
FFC0
C000
C000
C000
C000
C000
FFE0
FFE0
ENDCHAR
STARTCHAR 1EC3
ENCODING 7875
SWIDTH 624 0
DWIDTH 13 0
BBX 11 18 1 0
BITMAP
0180
0040
00C0
0E80
3300
0000
0000
1F00
7F80
60C0
C060
C060
FFE0
C000
C000
60C0
3FC0
1F00
ENDCHAR
STARTCHAR 1EC4
ENCODING 7876
SWIDTH 672 0
DWIDTH 14 0
BBX 11 21 2 0
BITMAP
3C80
2700
0000
0E00
3300
0000
FFC0
FFC0
C000
C000
C000
C000
FFC0
FFC0
C000
C000
C000
C000
C000
FFE0
FFE0
ENDCHAR
STARTCHAR 1EC5
ENCODING 7877
SWIDTH 624 0
DWIDTH 13 0
BBX 11 18 1 0
BITMAP
1C80
2700
0000
0E00
3300
0000
0000
1F00
7F80
60C0
C060
C060
FFE0
C000
C000
60C0
3FC0
1F00
ENDCHAR
STARTCHAR 1EC6
ENCODING 7878
SWIDTH 672 0
DWIDTH 14 0
BBX 11 23 2 -4
BITMAP
0E00
1B00
3180
0000
FFC0
FFC0
C000
C000
C000
C000
FFC0
FFC0
C000
C000
C000
C000
C000
FFE0
FFE0
0000
0000
0600
0400
ENDCHAR
STARTCHAR 1EC7
ENCODING 7879
SWIDTH 624 0
DWIDTH 13 0
BBX 11 19 1 -4
BITMAP
0E00
1B00
3180
0000
1F00
7F80
60C0
C060
C060
FFE0
C000
C000
60C0
3FC0
1F00
0000
0000
0C00
0C00
ENDCHAR
STARTCHAR 1EC8
ENCODING 7880
SWIDTH 288 0
DWIDTH 6 0
BBX 4 20 1 0
BITMAP
F0
10
10
30
00
60
60
60
60
60
60
60
60
60
60
60
60
60
60
60
ENDCHAR
STARTCHAR 1EC9
ENCODING 7881
SWIDTH 288 0
DWIDTH 6 0
BBX 4 17 1 0
BITMAP
E0
10
10
30
00
00
60
60
60
60
60
60
60
60
60
60
60
ENDCHAR
STARTCHAR 1ECA
ENCODING 7882
SWIDTH 288 0
DWIDTH 6 0
BBX 2 19 2 -4
BITMAP
C0
C0
C0
C0
C0
C0
C0
C0
C0
C0
C0
C0
C0
C0
C0
00
00
C0
C0
ENDCHAR
STARTCHAR 1ECB
ENCODING 7883
SWIDTH 288 0
DWIDTH 6 0
BBX 2 20 2 -4
BITMAP
80
C0
C0
00
00
C0
C0
C0
C0
C0
C0
C0
C0
C0
C0
C0
00
00
C0
C0
ENDCHAR
STARTCHAR 1ECC
ENCODING 7884
SWIDTH 864 0
DWIDTH 18 0
BBX 15 19 1 -4
BITMAP
07E0
1FF8
383C
700C
6006
C006
C006
C006
C006
C006
6006
700C
381C
1FF8
07E0
0000
0000
0180
0180
ENDCHAR
STARTCHAR 1ECD
ENCODING 7885
SWIDTH 624 0
DWIDTH 13 0
BBX 11 15 1 -4
BITMAP
1F00
3FC0
60C0
C060
C060
C060
C060
C060
60C0
3FC0
1F00
0000
0000
0600
0600
ENDCHAR
STARTCHAR 1ECE
ENCODING 7886
SWIDTH 864 0
DWIDTH 18 0
BBX 15 20 1 0
BITMAP
0380
0040
0040
0080
0000
07E0
1FF8
383C
700C
6006
C006
C006
C006
C006
C006
6006
700C
381C
1FF8
07E0
ENDCHAR
STARTCHAR 1ECF
ENCODING 7887
SWIDTH 624 0
DWIDTH 13 0
BBX 11 17 1 0
BITMAP
0E00
0300
0300
0200
0000
0000
1F00
3FC0
60C0
C060
C060
C060
C060
C060
60C0
3FC0
1F00
ENDCHAR
STARTCHAR 1ED0
ENCODING 7888
SWIDTH 864 0
DWIDTH 18 0
BBX 15 20 1 0
BITMAP
001C
0030
0380
0660
0000
07E0
1FF8
383C
700C
6006
C006
C006
C006
C006
C006
6006
700C
381C
1FF8
07E0
ENDCHAR
STARTCHAR 1ED1
ENCODING 7889
SWIDTH 624 0
DWIDTH 13 0
BBX 12 17 1 0
BITMAP
0030
00C0
0E00
1980
0000
0000
1F00
3FC0
60C0
C060
C060
C060
C060
C060
60C0
3FC0
1F00
ENDCHAR
STARTCHAR 1ED2
ENCODING 7890
SWIDTH 864 0
DWIDTH 18 0
BBX 15 20 1 0
BITMAP
0060
0030
0380
0660
0000
07E0
1FF8
383C
700C
6006
C006
C006
C006
C006
C006
6006
700C
381C
1FF8
07E0
ENDCHAR
STARTCHAR 1ED3
ENCODING 7891
SWIDTH 624 0
DWIDTH 13 0
BBX 11 17 1 0
BITMAP
0380
00C0
0E00
1980
0000
0000
1F00
3FC0
60C0
C060
C060
C060
C060
C060
60C0
3FC0
1F00
ENDCHAR
STARTCHAR 1ED4
ENCODING 7892
SWIDTH 864 0
DWIDTH 18 0
BBX 15 21 1 0
BITMAP
0070
0010
0010
0380
0660
0000
07E0
1FF8
383C
700C
6006
C006
C006
C006
C006
C006
6006
700C
381C
1FF8
07E0
ENDCHAR
STARTCHAR 1ED5
ENCODING 7893
SWIDTH 624 0
DWIDTH 13 0
BBX 11 18 1 0
BITMAP
0180
0040
0040
0E00
1980
0000
0000
1F00
3FC0
60C0
C060
C060
C060
C060
C060
60C0
3FC0
1F00
ENDCHAR
STARTCHAR 1ED6
ENCODING 7894
SWIDTH 864 0
DWIDTH 18 0
BBX 15 21 1 0
BITMAP
0720
0DE0
0000
0380
0660
0000
07E0
1FF8
383C
700C
6006
C006
C006
C006
C006
C006
6006
700C
381C
1FF8
07E0
ENDCHAR
STARTCHAR 1ED7
ENCODING 7895
SWIDTH 624 0
DWIDTH 13 0
BBX 11 18 1 0
BITMAP
1C80
2780
0000
0E00
1980
0000
0000
1F00
3FC0
60C0
C060
C060
C060
C060
C060
60C0
3FC0
1F00
ENDCHAR
STARTCHAR 1ED8
ENCODING 7896
SWIDTH 864 0
DWIDTH 18 0
BBX 15 23 1 -4
BITMAP
0180
03C0
0460
0000
07E0
1FF8
383C
700C
6006
C006
C006
C006
C006
C006
6006
700C
381C
1FF8
07E0
0000
0000
0180
0180
ENDCHAR
STARTCHAR 1ED9
ENCODING 7897
SWIDTH 624 0
DWIDTH 13 0
BBX 11 19 1 -4
BITMAP
0E00
1B00
3180
0000
1F00
3FC0
60C0
C060
C060
C060
C060
C060
60C0
3FC0
1F00
0000
0000
0600
0600
ENDCHAR
STARTCHAR 1EDA
ENCODING 7898
SWIDTH 864 0
DWIDTH 18 0
BBX 15 19 1 0
BITMAP
0060
00C6
0182
0002
07FE
1FF8
383C
700C
6006
C006
C006
C006
C006
C006
6006
700C
383C
1FF8
07E0
ENDCHAR
STARTCHAR 1EDB
ENCODING 7899
SWIDTH 624 0
DWIDTH 13 0
BBX 11 15 1 0
BITMAP
0380
0620
0C20
0020
1FE0
3FC0
60C0
C060
C060
C060
C060
C060
60C0
3FC0
1F00
ENDCHAR
STARTCHAR 1EDC
ENCODING 7900
SWIDTH 864 0
DWIDTH 18 0
BBX 15 19 1 0
BITMAP
0E00
0306
0182
0002
07FE
1FF8
383C
700C
6006
C006
C006
C006
C006
C006
6006
700C
383C
1FF8
07E0
ENDCHAR
STARTCHAR 1EDD
ENCODING 7901
SWIDTH 624 0
DWIDTH 13 0
BBX 11 15 1 0
BITMAP
3800
0C20
0620
0020
1FE0
3FC0
60C0
C060
C060
C060
C060
C060
60C0
3FC0
1F00
ENDCHAR
STARTCHAR 1EDE
ENCODING 7902
SWIDTH 864 0
DWIDTH 18 0
BBX 15 20 1 0
BITMAP
0380
0040
0046
0082
0002
07FE
1FF8
383C
700C
6006
C006
C006
C006
C006
C006
6006
700C
383C
1FF8
07E0
ENDCHAR
STARTCHAR 1EDF
ENCODING 7903
SWIDTH 624 0
DWIDTH 13 0
BBX 11 17 1 0
BITMAP
0E00
0300
0300
0260
0020
0020
1FE0
3FC0
60C0
C060
C060
C060
C060
C060
60C0
3FC0
1F00
ENDCHAR
STARTCHAR 1EE0
ENCODING 7904
SWIDTH 864 0
DWIDTH 18 0
BBX 15 19 1 0
BITMAP
0600
0D22
08E2
0002
07FE
1FF8
383C
700C
6006
C006
C006
C006
C006
C006
6006
700C
383C
1FF8
07E0
ENDCHAR
STARTCHAR 1EE1
ENCODING 7905
SWIDTH 624 0
DWIDTH 13 0
BBX 11 15 1 0
BITMAP
1800
1580
2320
0020
1FE0
3FC0
60C0
C060
C060
C060
C060
C060
60C0
3FC0
1F00
ENDCHAR
STARTCHAR 1EE2
ENCODING 7906
SWIDTH 864 0
DWIDTH 18 0
BBX 15 22 1 -4
BITMAP
0002
0002
0002
07FE
1FF8
383C
700C
6006
C006
C006
C006
C006
C006
6006
700C
383C
1FF8
07E0
0000
0000
0180
0180
ENDCHAR
STARTCHAR 1EE3
ENCODING 7907
SWIDTH 624 0
DWIDTH 13 0
BBX 11 18 1 -4
BITMAP
0060
0020
0020
1FE0
3FC0
60C0
C060
C060
C060
C060
C060
60C0
3FC0
1F00
0000
0000
0600
0600
ENDCHAR
STARTCHAR 1EE4
ENCODING 7908
SWIDTH 768 0
DWIDTH 16 0
BBX 12 19 2 -4
BITMAP
C030
C030
C030
C030
C030
C030
C030
C030
C030
C030
C030
6030
7060
3FE0
1F80
0000
0000
0600
0600
ENDCHAR
STARTCHAR 1EE5
ENCODING 7909
SWIDTH 672 0
DWIDTH 14 0
BBX 10 15 2 -4
BITMAP
C0C0
C0C0
C0C0
C0C0
C0C0
C0C0
C0C0
C0C0
E1C0
7FC0
3EC0
0000
0000
0C00
0C00
ENDCHAR
STARTCHAR 1EE6
ENCODING 7910
SWIDTH 768 0
DWIDTH 16 0
BBX 12 20 2 0
BITMAP
0F00
0100
0100
0300
0000
C030
C030
C030
C030
C030
C030
C030
C030
C030
C030
C030
6030
7060
3FE0
1F80
ENDCHAR
STARTCHAR 1EE7
ENCODING 7911
SWIDTH 672 0
DWIDTH 14 0
BBX 10 17 2 0
BITMAP
1C00
0200
0200
0600
0000
0000
C0C0
C0C0
C0C0
C0C0
C0C0
C0C0
C0C0
C0C0
E1C0
7FC0
3EC0
ENDCHAR
STARTCHAR 1EE8
ENCODING 7912
SWIDTH 816 0
DWIDTH 17 0
BBX 15 19 2 0
BITMAP
0180
0304
0606
0004
C03C
C030
C030
C030
C030
C030
C030
C030
C030
C030
C030
6030
7060
3FE0
1F80
ENDCHAR
STARTCHAR 1EE9
ENCODING 7913
SWIDTH 672 0
DWIDTH 14 0
BBX 12 15 2 0
BITMAP
0300
0610
0C30
0030
C0E0
C0C0
C0C0
C0C0
C0C0
C0C0
C0C0
C0C0
E1C0
7FC0
3EC0
ENDCHAR
STARTCHAR 1EEA
ENCODING 7914
SWIDTH 816 0
DWIDTH 17 0
BBX 15 19 2 0
BITMAP
1800
0E04
0306
0004
C03C
C030
C030
C030
C030
C030
C030
C030
C030
C030
C030
6030
7060
3FE0
1F80
ENDCHAR
STARTCHAR 1EEB
ENCODING 7915
SWIDTH 672 0
DWIDTH 14 0
BBX 12 15 2 0
BITMAP
3000
1810
0C30
0030
C0E0
C0C0
C0C0
C0C0
C0C0
C0C0
C0C0
C0C0
E1C0
7FC0
3EC0
ENDCHAR
STARTCHAR 1EEC
ENCODING 7916
SWIDTH 816 0
DWIDTH 17 0
BBX 15 20 2 0
BITMAP
0F00
0100
0104
0306
0004
C03C
C030
C030
C030
C030
C030
C030
C030
C030
C030
C030
6030
7060
3FE0
1F80
ENDCHAR
STARTCHAR 1EED
ENCODING 7917
SWIDTH 672 0
DWIDTH 14 0
BBX 12 17 2 0
BITMAP
1C00
0200
0200
0630
0010
0030
C0E0
C0C0
C0C0
C0C0
C0C0
C0C0
C0C0
C0C0
E1C0
7FC0
3EC0
ENDCHAR
STARTCHAR 1EEE
ENCODING 7918
SWIDTH 816 0
DWIDTH 17 0
BBX 14 19 2 0
BITMAP
0800
16C4
1184
0004
C03C
C030
C030
C030
C030
C030
C030
C030
C030
C030
C030
6030
7060
3FE0
1F80
ENDCHAR
STARTCHAR 1EEF
ENCODING 7919
SWIDTH 672 0
DWIDTH 14 0
BBX 12 15 2 0
BITMAP
3000
2D00
2730
0030
C0E0
C0C0
C0C0
C0C0
C0C0
C0C0
C0C0
C0C0
E1C0
7FC0
3EC0
ENDCHAR
STARTCHAR 1EF0
ENCODING 7920
SWIDTH 816 0
DWIDTH 17 0
BBX 15 22 2 -4
BITMAP
0004
0006
0004
C03C
C030
C030
C030
C030
C030
C030
C030
C030
C030
C030
6030
7060
3FE0
1F80
0000
0000
0600
0600
ENDCHAR
STARTCHAR 1EF1
ENCODING 7921
SWIDTH 672 0
DWIDTH 14 0
BBX 12 18 2 -4
BITMAP
0030
0010
0030
C0E0
C0C0
C0C0
C0C0
C0C0
C0C0
C0C0
C0C0
E1C0
7FC0
3EC0
0000
0000
0C00
0C00
ENDCHAR
STARTCHAR 1EF2
ENCODING 7922
SWIDTH 624 0
DWIDTH 13 0
BBX 13 19 0 0
BITMAP
0C00
0600
0300
0000
C018
6018
7030
3060
1860
18C0
0CC0
0F80
0780
0300
0300
0300
0300
0300
0300
ENDCHAR
STARTCHAR 1EF3
ENCODING 7923
SWIDTH 576 0
DWIDTH 12 0
BBX 11 19 0 -4
BITMAP
3800
0C00
0600
0000
C060
6060
6060
30C0
30C0
3180
1980
1B00
0F00
0E00
0600
0600
0C00
F800
F000
ENDCHAR
STARTCHAR 1EF4
ENCODING 7924
SWIDTH 624 0
DWIDTH 13 0
BBX 13 19 0 -4
BITMAP
C018
6018
7030
3060
1860
18C0
0CC0
0F80
0780
0300
0300
0300
0300
0300
0300
0000
0000
0300
0300
ENDCHAR
STARTCHAR 1EF5
ENCODING 7925
SWIDTH 576 0
DWIDTH 12 0
BBX 11 15 0 -4
BITMAP
C060
6060
6060
30C0
30C0
3180
1980
1B00
0F00
0E00
0600
0600
0C00
F880
F080
ENDCHAR
STARTCHAR 1EF6
ENCODING 7926
SWIDTH 624 0
DWIDTH 13 0
BBX 13 20 0 0
BITMAP
0700
0180
0180
0100
0000
C018
6018
7030
3060
1860
18C0
0CC0
0F80
0780
0300
0300
0300
0300
0300
0300
ENDCHAR
STARTCHAR 1EF7
ENCODING 7927
SWIDTH 576 0
DWIDTH 12 0
BBX 11 21 0 -4
BITMAP
0E00
0300
0300
0200
0000
0000
C060
6060
6060
30C0
30C0
3180
1980
1B00
0F00
0E00
0600
0600
0C00
F800
F000
ENDCHAR
STARTCHAR 1EF8
ENCODING 7928
SWIDTH 624 0
DWIDTH 13 0
BBX 13 19 0 0
BITMAP
0C00
1A40
1180
0000
C018
6018
7030
3060
1860
18C0
0CC0
0F80
0780
0300
0300
0300
0300
0300
0300
ENDCHAR
STARTCHAR 1EF9
ENCODING 7929
SWIDTH 576 0
DWIDTH 12 0
BBX 11 19 0 -4
BITMAP
1800
3480
2300
0000
C060
6060
6060
30C0
30C0
3180
1980
1B00
0F00
0E00
0600
0600
0C00
F800
F000
ENDCHAR
STARTCHAR 2007
ENCODING 8199
SWIDTH 720 0
DWIDTH 15 0
BBX 0 0 0 0
BITMAP
ENDCHAR
STARTCHAR 2008
ENCODING 8200
SWIDTH 240 0
DWIDTH 5 0
BBX 0 0 0 0
BITMAP
ENDCHAR
STARTCHAR 2009
ENCODING 8201
SWIDTH 144 0
DWIDTH 3 0
BBX 0 0 0 0
BITMAP
ENDCHAR
STARTCHAR 200A
ENCODING 8202
SWIDTH 96 0
DWIDTH 2 0
BBX 0 0 0 0
BITMAP
ENDCHAR
STARTCHAR 200B
ENCODING 8203
SWIDTH 0 0
DWIDTH 0 0
BBX 0 0 0 0
BITMAP
ENDCHAR
STARTCHAR 2010
ENCODING 8208
SWIDTH 384 0
DWIDTH 8 0
BBX 6 2 1 5
BITMAP
FC
FC
ENDCHAR
STARTCHAR 2012
ENCODING 8210
SWIDTH 720 0
DWIDTH 15 0
BBX 13 1 1 7
BITMAP
FFF8
ENDCHAR
STARTCHAR 2013
ENCODING 8211
SWIDTH 480 0
DWIDTH 10 0
BBX 10 1 0 5
BITMAP
FFC0
ENDCHAR
STARTCHAR 2014
ENCODING 8212
SWIDTH 1008 0
DWIDTH 21 0
BBX 21 1 0 5
BITMAP
FFFFF8
ENDCHAR
STARTCHAR 2015
ENCODING 8213
SWIDTH 1008 0
DWIDTH 21 0
BBX 21 1 0 5
BITMAP
FFFFF8
ENDCHAR
STARTCHAR 2018
ENCODING 8216
SWIDTH 240 0
DWIDTH 5 0
BBX 3 6 1 10
BITMAP
40
40
C0
C0
E0
C0
ENDCHAR
STARTCHAR 2019
ENCODING 8217
SWIDTH 240 0
DWIDTH 5 0
BBX 3 6 1 10
BITMAP
C0
E0
E0
40
C0
C0
ENDCHAR
STARTCHAR 201A
ENCODING 8218
SWIDTH 240 0
DWIDTH 5 0
BBX 3 6 1 -3
BITMAP
C0
E0
E0
40
C0
C0
ENDCHAR
STARTCHAR 201C
ENCODING 8220
SWIDTH 432 0
DWIDTH 9 0
BBX 7 6 1 10
BITMAP
44
44
CC
CC
EE
CC
ENDCHAR
STARTCHAR 201D
ENCODING 8221
SWIDTH 432 0
DWIDTH 9 0
BBX 7 6 1 10
BITMAP
CC
EE
EC
44
CC
C8
ENDCHAR
STARTCHAR 201E
ENCODING 8222
SWIDTH 432 0
DWIDTH 9 0
BBX 7 6 1 -3
BITMAP
CC
EE
EE
44
CC
CC
ENDCHAR
STARTCHAR 2020
ENCODING 8224
SWIDTH 576 0
DWIDTH 12 0
BBX 10 19 1 -4
BITMAP
0C00
0C00
0C00
0C00
0C00
FFC0
FFC0
0C00
0C00
0C00
0C00
0C00
0C00
0C00
0C00
0C00
0C00
0C00
0C00
ENDCHAR
STARTCHAR 2021
ENCODING 8225
SWIDTH 576 0
DWIDTH 12 0
BBX 10 19 1 -4
BITMAP
0C00
0C00
0C00
0C00
0C00
FFC0
FFC0
0C00
0C00
0C00
0C00
0C00
FFC0
FFC0
0C00
0C00
0C00
0C00
0C00
ENDCHAR
STARTCHAR 2022
ENCODING 8226
SWIDTH 336 0
DWIDTH 7 0
BBX 4 4 1 4
BITMAP
60
F0
F0
70
ENDCHAR
STARTCHAR 2026
ENCODING 8230
SWIDTH 672 0
DWIDTH 14 0
BBX 12 3 1 0
BITMAP
C630
E730
C630
ENDCHAR
STARTCHAR 2030
ENCODING 8240
SWIDTH 1200 0
DWIDTH 25 0
BBX 23 15 1 0
BITMAP
780800
CC1800
843000
862000
866000
84C000
CC8000
799C3C
032666
026342
064342
0C4342
086342
182666
301C3C
ENDCHAR
STARTCHAR 2032
ENCODING 8242
SWIDTH 192 0
DWIDTH 4 0
BBX 2 6 1 9
BITMAP
C0
C0
C0
C0
C0
C0
ENDCHAR
STARTCHAR 2033
ENCODING 8243
SWIDTH 384 0
DWIDTH 8 0
BBX 6 6 1 9
BITMAP
CC
CC
CC
CC
CC
CC
ENDCHAR
STARTCHAR 2039
ENCODING 8249
SWIDTH 336 0
DWIDTH 7 0
BBX 4 8 1 2
BITMAP
10
30
60
C0
C0
60
30
10
ENDCHAR
STARTCHAR 203A
ENCODING 8250
SWIDTH 336 0
DWIDTH 7 0
BBX 4 8 1 2
BITMAP
C0
60
20
30
30
20
60
C0
ENDCHAR
STARTCHAR 2044
ENCODING 8260
SWIDTH 192 0
DWIDTH 4 0
BBX 11 15 -4 0
BITMAP
0020
0060
00C0
0080
0180
0300
0200
0600
0C00
0800
1800
3000
2000
6000
C000
ENDCHAR
STARTCHAR 2052
ENCODING 8274
SWIDTH 528 0
DWIDTH 11 0
BBX 8 15 2 0
BITMAP
C6
C4
04
0C
08
08
18
10
30
30
20
60
60
47
C6
ENDCHAR
STARTCHAR 2070
ENCODING 8304
SWIDTH 432 0
DWIDTH 9 0
BBX 7 9 1 7
BITMAP
38
C6
86
82
82
82
86
C6
38
ENDCHAR
STARTCHAR 2074
ENCODING 8308
SWIDTH 432 0
DWIDTH 9 0
BBX 8 9 0 7
BITMAP
0C
08
18
30
26
46
FF
06
06
ENDCHAR
STARTCHAR 2075
ENCODING 8309
SWIDTH 432 0
DWIDTH 9 0
BBX 7 9 1 7
BITMAP
7C
40
40
C0
FC
06
06
86
FC
ENDCHAR
STARTCHAR 2076
ENCODING 8310
SWIDTH 432 0
DWIDTH 9 0
BBX 7 9 1 7
BITMAP
3E
60
C0
80
BC
C6
C2
C6
7C
ENDCHAR
STARTCHAR 2077
ENCODING 8311
SWIDTH 432 0
DWIDTH 9 0
BBX 7 9 1 7
BITMAP
FE
86
84
0C
08
18
10
30
20
ENDCHAR
STARTCHAR 2078
ENCODING 8312
SWIDTH 432 0
DWIDTH 9 0
BBX 7 9 1 7
BITMAP
7C
C6
82
C6
7C
C6
82
C6
7C
ENDCHAR
STARTCHAR 2079
ENCODING 8313
SWIDTH 432 0
DWIDTH 9 0
BBX 7 9 1 7
BITMAP
78
C4
86
86
C6
7A
06
04
F8
ENDCHAR
STARTCHAR 2080
ENCODING 8320
SWIDTH 432 0
DWIDTH 9 0
BBX 7 9 1 -2
BITMAP
38
C6
86
82
82
82
86
C6
38
ENDCHAR
STARTCHAR 2081
ENCODING 8321
SWIDTH 432 0
DWIDTH 9 0
BBX 6 8 2 -2
BITMAP
F0
30
30
30
30
30
30
FC
ENDCHAR
STARTCHAR 2082
ENCODING 8322
SWIDTH 432 0
DWIDTH 9 0
BBX 7 9 1 -2
BITMAP
78
CC
06
04
0C
18
30
40
FE
ENDCHAR
STARTCHAR 2083
ENCODING 8323
SWIDTH 432 0
DWIDTH 9 0
BBX 7 8 1 -2
BITMAP
FE
0C
18
3C
06
06
86
FC
ENDCHAR
STARTCHAR 2084
ENCODING 8324
SWIDTH 432 0
DWIDTH 9 0
BBX 8 9 0 -2
BITMAP
04
08
18
30
26
46
FF
06
06
ENDCHAR
STARTCHAR 2085
ENCODING 8325
SWIDTH 432 0
DWIDTH 9 0
BBX 7 8 1 -2
BITMAP
7C
40
40
FC
06
06
86
FC
ENDCHAR
STARTCHAR 2086
ENCODING 8326
SWIDTH 432 0
DWIDTH 9 0
BBX 7 9 1 -2
BITMAP
3E
60
C0
80
BC
C6
C2
C6
3C
ENDCHAR
STARTCHAR 2087
ENCODING 8327
SWIDTH 432 0
DWIDTH 9 0
BBX 7 8 1 -2
BITMAP
FE
86
04
0C
08
18
30
30
ENDCHAR
STARTCHAR 2088
ENCODING 8328
SWIDTH 432 0
DWIDTH 9 0
BBX 7 9 1 -2
BITMAP
7C
C6
82
C6
7C
C6
82
C6
7C
ENDCHAR
STARTCHAR 2089
ENCODING 8329
SWIDTH 432 0
DWIDTH 9 0
BBX 7 9 1 -2
BITMAP
78
C4
86
86
C6
7A
06
0C
F8
ENDCHAR
STARTCHAR 20A1
ENCODING 8353
SWIDTH 720 0
DWIDTH 15 0
BBX 13 19 1 -2
BITMAP
0190
0130
07E0
1FF0
3B78
7260
6240
C240
C6C0
C480
C480
C480
6D80
7900
3918
1FF0
1FE0
1200
1200
ENDCHAR
STARTCHAR 20A3
ENCODING 8355
SWIDTH 672 0
DWIDTH 14 0
BBX 12 15 1 0
BITMAP
3FF0
3FF0
3000
3000
3000
3000
3000
3FE0
3FE0
3000
3000
FF00
3000
3000
3000
ENDCHAR
STARTCHAR 20A4
ENCODING 8356
SWIDTH 624 0
DWIDTH 13 0
BBX 12 15 1 0
BITMAP
07E0
0FF0
1810
3000
3000
3000
FF80
3000
3000
FF80
3000
3000
3000
FFF0
FFF0
ENDCHAR
STARTCHAR 20A6
ENCODING 8358
SWIDTH 864 0
DWIDTH 18 0
BBX 17 15 1 0
BITMAP
300C00
380C00
380C00
3C0C00
3E0C00
370C00
FFFF80
318C00
FFFF80
306C00
307C00
303C00
301C00
300C00
300C00
ENDCHAR
STARTCHAR 20A7
ENCODING 8359
SWIDTH 1632 0
DWIDTH 34 0
BBX 32 15 2 0
BITMAP
FF800000
FFC18000
C0E18000
C0718000
C037F07C
C037F1FE
C0318180
C0718180
C0E181E0
FFC180FE
FF018006
C0018003
C0018106
C000FBFE
C00078FC
ENDCHAR
STARTCHAR 20A9
ENCODING 8361
SWIDTH 1200 0
DWIDTH 25 0
BBX 23 15 1 0
BITMAP
C03806
E0380C
60380C
606C0C
706C18
306C18
FFFFFE
30C630
18C630
FFFFFE
1D8360
0D8360
0F01E0
0F01C0
0601C0
ENDCHAR
STARTCHAR 20AB
ENCODING 8363
SWIDTH 672 0
DWIDTH 14 0
BBX 13 19 1 -3
BITMAP
0060
0060
07F8
0060
0060
1F60
7FE0
60E0
C060
C060
C060
C060
C060
60E0
7FE0
1F60
0000
0000
FFE0
ENDCHAR
STARTCHAR 20AC
ENCODING 8364
SWIDTH 816 0
DWIDTH 17 0
BBX 15 15 1 0
BITMAP
01F0
07FC
0E0E
1C04
3800
3000
FFE0
3000
FFE0
3000
3800
1C04
0E0E
07FC
01F0
ENDCHAR
STARTCHAR 20AD
ENCODING 8365
SWIDTH 672 0
DWIDTH 14 0
BBX 12 15 1 0
BITMAP
3030
3060
30E0
31C0
3380
3300
3600
FFE0
3E00
3700
3380
31C0
30E0
3060
3030
ENDCHAR
STARTCHAR 20AE
ENCODING 8366
SWIDTH 672 0
DWIDTH 14 0
BBX 12 15 1 0
BITMAP
FFF0
FFF0
0600
0600
0660
07C0
0700
1E60
37C0
0700
0E00
3600
0600
0600
0600
ENDCHAR
STARTCHAR 20B1
ENCODING 8369
SWIDTH 864 0
DWIDTH 18 0
BBX 16 15 1 0
BITMAP
3FE0
3FF0
3038
FFFF
300C
300C
FFFF
3018
3038
3FF0
3FC0
3000
3000
3000
3000
ENDCHAR
STARTCHAR 20B2
ENCODING 8370
SWIDTH 768 0
DWIDTH 16 0
BBX 13 19 1 -2
BITMAP
0100
0100
07E0
1FF8
3918
6100
6100
C100
C100
C118
C118
C118
6118
7118
3918
1FF8
07E0
0100
0100
ENDCHAR
STARTCHAR 20B4
ENCODING 8372
SWIDTH 816 0
DWIDTH 17 0
BBX 13 15 2 0
BITMAP
1F80
3FE0
2060
0030
0030
0070
FFF8
0000
FFF8
7000
6000
6000
7030
3FF0
0FC0
ENDCHAR
STARTCHAR 20B5
ENCODING 8373
SWIDTH 720 0
DWIDTH 15 0
BBX 13 19 1 -2
BITMAP
0100
0100
07E0
1FF0
3938
7100
6100
C100
C100
C100
C100
C100
6100
7100
3938
1FF0
07E0
0100
0100
ENDCHAR
STARTCHAR 20B8
ENCODING 8376
SWIDTH 720 0
DWIDTH 15 0
BBX 12 15 2 0
BITMAP
FFF0
0000
0000
FFF0
0600
0600
0600
0600
0600
0600
0600
0600
0600
0600
0600
ENDCHAR
STARTCHAR 20B9
ENCODING 8377
SWIDTH 720 0
DWIDTH 15 0
BBX 13 15 1 0
BITMAP
FFF8
01C0
00C0
FFF8
0060
0060
00E0
01C0
7F80
7F00
0300
0180
01C0
00C0
0060
ENDCHAR
STARTCHAR 20BA
ENCODING 8378
SWIDTH 720 0
DWIDTH 15 0
BBX 13 15 1 0
BITMAP
3000
3080
3180
3600
3880
7180
F600
3818
7018
F018
3030
3030
30E0
3FC0
3F00
ENDCHAR
STARTCHAR 20BC
ENCODING 8380
SWIDTH 912 0
DWIDTH 19 0
BBX 15 17 2 0
BITMAP
0100
0100
07C0
1FF0
3938
710C
610C
4106
C106
C106
C106
C106
C106
C106
C006
C006
C006
ENDCHAR
STARTCHAR 20BD
ENCODING 8381
SWIDTH 768 0
DWIDTH 16 0
BBX 14 15 1 0
BITMAP
3FE0
3FF0
3038
3018
301C
301C
3018
3038
3FF0
3FE0
3000
FF00
3000
3000
3000
ENDCHAR
STARTCHAR 2113
ENCODING 8467
SWIDTH 480 0
DWIDTH 10 0
BBX 8 15 1 0
BITMAP
0E
19
11
31
33
22
24
2C
38
70
60
E0
63
66
3C
ENDCHAR
STARTCHAR 2116
ENCODING 8470
SWIDTH 1200 0
DWIDTH 25 0
BBX 22 15 2 0
BITMAP
C018F0
E01988
F0190C
F81904
D8190C
DC1988
CE18F0
C71800
C31800
C199FC
C1D800
C0F800
C07800
C03800
C01800
ENDCHAR
STARTCHAR 2122
ENCODING 8482
SWIDTH 1008 0
DWIDTH 21 0
BBX 19 9 0 6
BITMAP
FF6020
186060
1870E0
1878A0
1869A0
186F20
186620
186220
186020
ENDCHAR
STARTCHAR 2126
ENCODING 8486
SWIDTH 912 0
DWIDTH 19 0
BBX 19 15 0 0
BITMAP
03F000
0FFC00
1E0E00
180700
300380
300180
300180
300180
300180
300180
300300
180300
0C0600
FE1FE0
FE1FE0
ENDCHAR
STARTCHAR 212A
ENCODING 8490
SWIDTH 720 0
DWIDTH 15 0
BBX 13 15 2 0
BITMAP
C030
C060
C0C0
C180
C300
C600
CE00
DE00
FF00
F380
E180
C0C0
C0E0
C070
C038
ENDCHAR
STARTCHAR 212B
ENCODING 8491
SWIDTH 720 0
DWIDTH 15 0
BBX 15 21 0 0
BITMAP
0380
0240
0440
0640
0380
0000
0380
0380
06C0
06C0
0660
0C60
0C70
1830
1830
3FF8
3FF8
300C
600C
600E
C006
ENDCHAR
STARTCHAR 212E
ENCODING 8494
SWIDTH 864 0
DWIDTH 18 0
BBX 16 15 1 0
BITMAP
07E0
1818
2004
6006
6007
E007
E007
FFF8
E000
E000
6000
6000
2004
1008
0FF0
ENDCHAR
STARTCHAR 2153
ENCODING 8531
SWIDTH 1056 0
DWIDTH 22 0
BBX 19 15 2 0
BITMAP
F00400
300C00
301800
301000
303000
306000
305FC0
30C0C0
FD8180
010300
0303C0
060040
040060
0C18C0
180F80
ENDCHAR
STARTCHAR 2154
ENCODING 8532
SWIDTH 1056 0
DWIDTH 22 0
BBX 20 15 1 0
BITMAP
780200
CC0600
060C00
040800
0C1800
183000
302FE0
406060
FEC0C0
008180
0181E0
030020
020030
060C60
0C07C0
ENDCHAR
STARTCHAR 215B
ENCODING 8539
SWIDTH 1056 0
DWIDTH 22 0
BBX 19 15 2 0
BITMAP
F00400
300C00
301800
301000
303000
306000
304780
30CC40
FD9860
010840
0307C0
061860
041860
0C1860
180FC0
ENDCHAR
STARTCHAR 215C
ENCODING 8540
SWIDTH 1056 0
DWIDTH 22 0
BBX 20 15 1 0
BITMAP
FE0200
0C0600
080C00
100800
3C1800
063000
0623C0
C66420
FCCC30
008420
0183E0
030C30
020C30
060C30
0C07E0
ENDCHAR
STARTCHAR 215D
ENCODING 8541
SWIDTH 1056 0
DWIDTH 22 0
BBX 20 15 1 0
BITMAP
7C0200
400600
400C00
C00800
FC1800
063000
0623C0
866420
FCCC30
008420
0183E0
030C30
020C30
060C30
0C07E0
ENDCHAR
STARTCHAR 215E
ENCODING 8542
SWIDTH 1056 0
DWIDTH 22 0
BBX 20 15 1 0
BITMAP
FE0200
860600
860C00
0C0800
0C1800
183000
1023C0
306420
20CC30
008420
0183E0
030C30
020C30
060C30
0C07E0
ENDCHAR
STARTCHAR 2190
ENCODING 8592
SWIDTH 624 0
DWIDTH 13 0
BBX 9 9 2 1
BITMAP
1000
3000
6000
7F80
FF80
6000
2000
3000
1800
ENDCHAR
STARTCHAR 2191
ENCODING 8593
SWIDTH 624 0
DWIDTH 13 0
BBX 8 9 2 1
BITMAP
18
3E
FF
99
18
18
18
18
18
ENDCHAR
STARTCHAR 2192
ENCODING 8594
SWIDTH 624 0
DWIDTH 13 0
BBX 9 9 1 1
BITMAP
0600
0300
0300
FF80
FF80
0180
0300
0600
0600
ENDCHAR
STARTCHAR 2193
ENCODING 8595
SWIDTH 624 0
DWIDTH 13 0
BBX 9 9 2 1
BITMAP
0800
0800
0800
0800
0880
C980
7F00
3E00
0800
ENDCHAR
STARTCHAR 2194
ENCODING 8596
SWIDTH 720 0
DWIDTH 15 0
BBX 13 9 1 1
BITMAP
1060
3060
6030
7FF8
FFF8
6030
2030
3060
18C0
ENDCHAR
STARTCHAR 2195
ENCODING 8597
SWIDTH 624 0
DWIDTH 13 0
BBX 8 13 2 1
BITMAP
08
3C
7E
DB
98
18
18
18
18
D9
7F
3C
08
ENDCHAR
STARTCHAR 2196
ENCODING 8598
SWIDTH 624 0
DWIDTH 13 0
BBX 8 8 2 2
BITMAP
1E
7C
70
58
4C
C6
43
01
ENDCHAR
STARTCHAR 2197
ENCODING 8599
SWIDTH 624 0
DWIDTH 13 0
BBX 7 8 3 2
BITMAP
70
3E
0E
1E
32
62
C2
80
ENDCHAR
STARTCHAR 2198
ENCODING 8600
SWIDTH 624 0
DWIDTH 13 0
BBX 7 8 3 2
BITMAP
80
C2
62
32
1A
0E
3E
78
ENDCHAR
STARTCHAR 2199
ENCODING 8601
SWIDTH 624 0
DWIDTH 13 0
BBX 8 8 2 2
BITMAP
01
43
C6
4C
58
70
7C
1E
ENDCHAR
STARTCHAR 2202
ENCODING 8706
SWIDTH 720 0
DWIDTH 15 0
BBX 12 15 1 0
BITMAP
7F00
3FC0
00E0
0060
0070
0030
1F30
3FF0
6070
6070
E070
6060
60E0
3FC0
1F00
ENDCHAR
STARTCHAR 2205
ENCODING 8709
SWIDTH 576 0
DWIDTH 12 0
BBX 10 10 1 2
BITMAP
0040
3FC0
6180
4380
44C0
48C0
5080
6180
7F00
8000
ENDCHAR
STARTCHAR 2206
ENCODING 8710
SWIDTH 720 0
DWIDTH 15 0
BBX 15 15 0 0
BITMAP
0380
0380
06C0
06C0
0660
0C60
0C70
1830
1830
3018
3018
300C
600C
7FFE
FFFE
ENDCHAR
STARTCHAR 220F
ENCODING 8719
SWIDTH 816 0
DWIDTH 17 0
BBX 13 19 2 -4
BITMAP
FFF8
FFF8
C018
C018
C018
C018
C018
C018
C018
C018
C018
C018
C018
C018
C018
C018
C018
C018
C018
ENDCHAR
STARTCHAR 2211
ENCODING 8721
SWIDTH 672 0
DWIDTH 14 0
BBX 12 19 1 -4
BITMAP
FFF0
FFF0
7000
3000
1800
1C00
0E00
0700
0300
0180
0300
0700
0E00
1C00
1800
3000
6000
FFF0
FFF0
ENDCHAR
STARTCHAR 2212
ENCODING 8722
SWIDTH 576 0
DWIDTH 12 0
BBX 10 2 1 6
BITMAP
FFC0
FFC0
ENDCHAR
STARTCHAR 2215
ENCODING 8725
SWIDTH 336 0
DWIDTH 7 0
BBX 8 20 0 -2
BITMAP
03
03
02
06
06
0C
0C
0C
18
18
18
30
30
20
60
60
40
C0
C0
80
ENDCHAR
STARTCHAR 2219
ENCODING 8729
SWIDTH 288 0
DWIDTH 6 0
BBX 2 3 2 6
BITMAP
C0
C0
C0
ENDCHAR
STARTCHAR 221A
ENCODING 8730
SWIDTH 816 0
DWIDTH 17 0
BBX 16 20 1 -4
BITMAP
0003
0006
0006
0006
000C
000C
000C
F818
F818
1818
0C30
0C30
0C30
0660
0660
0660
03C0
03C0
03C0
0180
ENDCHAR
STARTCHAR 221E
ENCODING 8734
SWIDTH 912 0
DWIDTH 19 0
BBX 17 9 1 3
BITMAP
180400
7E3F00
E36180
C1C180
80C080
C1C080
C36180
7F3F00
3C1E00
ENDCHAR
STARTCHAR 222B
ENCODING 8747
SWIDTH 384 0
DWIDTH 8 0
BBX 9 20 0 -4
BITMAP
0780
0F80
1800
1800
1800
1800
1800
1800
1800
1800
1800
1800
1800
1800
1800
1800
1800
1800
F800
F000
ENDCHAR
STARTCHAR 2248
ENCODING 8776
SWIDTH 576 0
DWIDTH 12 0
BBX 10 9 1 3
BITMAP
3000
78C0
CFC0
C380
0000
3000
78C0
CFC0
C380
ENDCHAR
STARTCHAR 2260
ENCODING 8800
SWIDTH 576 0
DWIDTH 12 0
BBX 10 11 1 2
BITMAP
0180
0300
FFC0
FFC0
0600
0C00
0800
FFC0
FFC0
3000
2000
ENDCHAR
STARTCHAR 2264
ENCODING 8804
SWIDTH 576 0
DWIDTH 12 0
BBX 10 13 1 0
BITMAP
00C0
03C0
1F00
7800
E000
F800
1E00
07C0
00C0
0000
0000
FFC0
FFC0
ENDCHAR
STARTCHAR 2265
ENCODING 8805
SWIDTH 576 0
DWIDTH 12 0
BBX 10 13 1 0
BITMAP
C000
F000
3E00
0780
01C0
07C0
1E00
F800
C000
0000
0000
FFC0
FFC0
ENDCHAR
STARTCHAR 25A0
ENCODING 9632
SWIDTH 624 0
DWIDTH 13 0
BBX 8 8 2 2
BITMAP
FF
FF
FF
FF
FF
FF
FF
FF
ENDCHAR
STARTCHAR 25A1
ENCODING 9633
SWIDTH 624 0
DWIDTH 13 0
BBX 8 7 2 2
BITMAP
FF
81
81
81
81
81
FF
ENDCHAR
STARTCHAR 25B2
ENCODING 9650
SWIDTH 624 0
DWIDTH 13 0
BBX 8 9 2 1
BITMAP
10
18
18
3C
3C
7E
7E
FF
FF
ENDCHAR
STARTCHAR 25B3
ENCODING 9651
SWIDTH 624 0
DWIDTH 13 0
BBX 8 8 2 2
BITMAP
08
18
14
24
22
42
41
FF
ENDCHAR
STARTCHAR 25B6
ENCODING 9654
SWIDTH 624 0
DWIDTH 13 0
BBX 9 9 2 1
BITMAP
8000
E000
F800
FE00
FF80
FE00
F800
E000
8000
ENDCHAR
STARTCHAR 25B7
ENCODING 9655
SWIDTH 624 0
DWIDTH 13 0
BBX 9 9 2 1
BITMAP
8000
E000
9800
8600
8180
8600
9800
E000
8000
ENDCHAR
STARTCHAR 25BC
ENCODING 9660
SWIDTH 624 0
DWIDTH 13 0
BBX 8 8 2 1
BITMAP
FF
7F
7E
3E
3C
1C
18
08
ENDCHAR
STARTCHAR 25BD
ENCODING 9661
SWIDTH 624 0
DWIDTH 13 0
BBX 8 8 2 1
BITMAP
FF
41
42
22
24
14
18
08
ENDCHAR
STARTCHAR 25C0
ENCODING 9664
SWIDTH 624 0
DWIDTH 13 0
BBX 9 9 1 1
BITMAP
0080
0380
0F80
3F80
FF80
3F80
0F80
0380
0080
ENDCHAR
STARTCHAR 25C1
ENCODING 9665
SWIDTH 624 0
DWIDTH 13 0
BBX 9 9 1 1
BITMAP
0080
0380
0C80
3080
C080
3080
0E80
0380
0080
ENDCHAR
STARTCHAR 25C6
ENCODING 9670
SWIDTH 624 0
DWIDTH 13 0
BBX 11 11 1 0
BITMAP
0400
0E00
1F00
3F80
7FC0
FFE0
7FC0
3F80
1F00
0E00
0400
ENDCHAR
STARTCHAR 25C7
ENCODING 9671
SWIDTH 624 0
DWIDTH 13 0
BBX 11 11 1 0
BITMAP
0400
0E00
1300
2180
40C0
8060
40C0
2180
1300
0E00
0400
ENDCHAR
STARTCHAR 25CA
ENCODING 9674
SWIDTH 480 0
DWIDTH 10 0
BBX 8 13 1 0
BITMAP
08
18
1C
26
62
43
81
43
62
24
1C
18
08
ENDCHAR
STARTCHAR 27E8
ENCODING 10216
SWIDTH 336 0
DWIDTH 7 0
BBX 5 20 1 -4
BITMAP
18
10
30
30
20
60
60
60
C0
C0
C0
C0
60
60
60
20
30
30
10
18
ENDCHAR
STARTCHAR 27E9
ENCODING 10217
SWIDTH 336 0
DWIDTH 7 0
BBX 5 20 1 -4
BITMAP
C0
C0
60
60
60
30
30
30
18
18
18
18
30
30
30
60
60
60
C0
C0
ENDCHAR
STARTCHAR A78B
ENCODING 42891
SWIDTH 240 0
DWIDTH 5 0
BBX 2 8 2 7
BITMAP
C0
C0
C0
C0
C0
C0
C0
80
ENDCHAR
STARTCHAR A78C
ENCODING 42892
SWIDTH 240 0
DWIDTH 5 0
BBX 2 8 2 6
BITMAP
C0
C0
C0
C0
C0
80
80
80
ENDCHAR
STARTCHAR FB01
ENCODING 64257
SWIDTH 720 0
DWIDTH 15 0
BBX 13 16 0 0
BITMAP
0F18
1F18
3010
3000
3000
FE18
FE18
3018
3018
3018
3018
3018
3018
3018
3018
3018
ENDCHAR
STARTCHAR FB02
ENCODING 64258
SWIDTH 624 0
DWIDTH 13 0
BBX 11 16 0 0
BITMAP
0F60
1F60
3060
3060
3060
FE60
FE60
3060
3060
3060
3060
3060
3060
3060
3060
3060
ENDCHAR
ENDFONT
